<?xml version="1.0" encoding="UTF-8"?>
<!DOCTYPE svg PUBLIC "-//W3C//DTD SVG 1.1//EN" "http://www.w3.org/Graphics/SVG/1.1/DTD/svg11.dtd">
<svg xmlns="http://www.w3.org/2000/svg" version="1.1" width="1526px" height="501px" style="shape-rendering:geometricPrecision; text-rendering:geometricPrecision; image-rendering:optimizeQuality; fill-rule:evenodd; clip-rule:evenodd" xmlns:xlink="http://www.w3.org/1999/xlink">
<g><path style="opacity:0.878" fill="#b39a66" d="M 714.5,-0.5 C 721.167,-0.5 727.833,-0.5 734.5,-0.5C 734.975,1.78368 735.975,3.78368 737.5,5.5C 730.833,5.5 724.167,5.5 717.5,5.5C 716.248,3.99913 715.248,2.33246 714.5,0.5C 714.5,0.166667 714.5,-0.166667 714.5,-0.5 Z"/></g>
<g><path style="opacity:0.877" fill="#957b49" d="M 734.5,-0.5 C 735.167,-0.5 735.833,-0.5 736.5,-0.5C 753.949,0.990116 770.949,4.65678 787.5,10.5C 786.761,10.369 786.094,10.5357 785.5,11C 786.64,12.9734 787.973,14.8067 789.5,16.5C 789.376,17.1067 789.043,17.44 788.5,17.5C 772.145,10.8281 755.145,6.82811 737.5,5.5C 735.975,3.78368 734.975,1.78368 734.5,-0.5 Z"/></g>
<g><path style="opacity:0.974" fill="#baa06d" d="M 787.5,10.5 C 795.754,12.9746 803.754,16.1412 811.5,20C 815.057,23.1815 815.391,26.6815 812.5,30.5C 810.902,31.4847 809.235,31.6514 807.5,31C 801.542,25.8601 795.209,21.3601 788.5,17.5C 789.043,17.44 789.376,17.1067 789.5,16.5C 787.973,14.8067 786.64,12.9734 785.5,11C 786.094,10.5357 786.761,10.369 787.5,10.5 Z"/></g>
<g><path style="opacity:0.932" fill="#ddc591" d="M 714.5,0.5 C 715.248,2.33246 716.248,3.99913 717.5,5.5C 688.865,6.37283 663.532,15.7062 641.5,33.5C 639.331,31.6597 637.998,29.3263 637.5,26.5C 646.537,18.6408 656.87,12.8075 668.5,9C 683.379,3.65736 698.713,0.824023 714.5,0.5 Z"/></g>
<g><path style="opacity:0.963" fill="#000000" d="M 798.5,88.5 C 798.631,89.2389 798.464,89.9056 798,90.5C 794.308,93.3648 790.808,96.3648 787.5,99.5C 783.46,103.542 779.127,107.209 774.5,110.5C 774.936,91.1203 774.436,71.7869 773,52.5C 767.858,41.1746 759.025,35.8413 746.5,36.5C 746.5,35.1667 746.5,33.8333 746.5,32.5C 773.167,32.5 799.833,32.5 826.5,32.5C 826.5,33.8333 826.5,35.1667 826.5,36.5C 811.808,35.7482 802.641,42.4149 799,56.5C 798.5,67.1615 798.333,77.8281 798.5,88.5 Z"/></g>
<g><path style="opacity:0.915" fill="#bda571" d="M 637.5,26.5 C 637.998,29.3263 639.331,31.6597 641.5,33.5C 635.114,39.9505 629.447,46.9505 624.5,54.5C 621.705,52.2486 619.372,49.5819 617.5,46.5C 623.188,38.8122 629.854,32.1456 637.5,26.5 Z"/></g>
<g><path style="opacity:0.969" fill="#f4dda8" d="M 894.5,110.5 C 893.761,110.631 893.094,110.464 892.5,110C 891.253,108.048 889.919,106.215 888.5,104.5C 892.319,92.9869 890.819,82.3202 884,72.5C 877.154,67.1544 869.321,64.821 860.5,65.5C 856.69,66.024 854.69,64.3574 854.5,60.5C 863.732,58.605 873.066,58.105 882.5,59C 894.938,63.5053 900.938,72.5053 900.5,86C 900.439,94.6759 898.439,102.843 894.5,110.5 Z"/></g>
<g><path style="opacity:0.933" fill="#a48a58" d="M 617.5,46.5 C 619.372,49.5819 621.705,52.2486 624.5,54.5C 617.174,66.8142 613.507,80.1475 613.5,94.5C 611.133,88.1053 607.466,82.4386 602.5,77.5C 605.661,66.1795 610.661,55.8462 617.5,46.5 Z"/></g>
<g><path style="opacity:0.985" fill="#d4bc87" d="M 854.5,60.5 C 854.69,64.3574 856.69,66.024 860.5,65.5C 855.647,66.6039 850.647,67.6039 845.5,68.5C 844.069,67.2196 843.402,65.5529 843.5,63.5C 847.123,62.3443 850.789,61.3443 854.5,60.5 Z"/></g>
<g><path style="opacity:0.898" fill="#b29964" d="M 843.5,63.5 C 843.402,65.5529 844.069,67.2196 845.5,68.5C 841.576,70.1472 837.576,71.8139 833.5,73.5C 831.738,72.7377 830.738,71.4044 830.5,69.5C 834.714,67.2263 839.047,65.2263 843.5,63.5 Z"/></g>
<g><path style="opacity:0.887" fill="#907543" d="M 830.5,69.5 C 830.738,71.4044 831.738,72.7377 833.5,73.5C 825.703,77.9011 818.036,82.5678 810.5,87.5C 810.167,85.1667 808.833,83.8333 806.5,83.5C 813.808,77.8391 821.808,73.1724 830.5,69.5 Z"/></g>
<g><path style="opacity:0.936" fill="#a9905d" d="M 806.5,83.5 C 808.833,83.8333 810.167,85.1667 810.5,87.5C 806.54,90.823 802.54,94.1563 798.5,97.5C 795.55,99.1153 792.884,101.115 790.5,103.5C 790.262,101.596 789.262,100.262 787.5,99.5C 790.808,96.3648 794.308,93.3648 798,90.5C 798.464,89.9056 798.631,89.2389 798.5,88.5C 801.167,86.8333 803.833,85.1667 806.5,83.5 Z"/></g>
<g><path style="opacity:0.984" fill="#000000" d="M 798.5,97.5 C 798.5,134.833 798.5,172.167 798.5,209.5C 797.925,211.411 796.925,213.078 795.5,214.5C 788.423,221.637 783.09,229.971 779.5,239.5C 777.644,242.409 775.977,245.409 774.5,248.5C 774.5,206.5 774.5,164.5 774.5,122.5C 775.415,120.246 776.748,118.246 778.5,116.5C 782.472,112.193 786.472,107.859 790.5,103.5C 792.884,101.115 795.55,99.1153 798.5,97.5 Z"/></g>
<g><path style="opacity:0.968" fill="#baa16d" d="M 602.5,77.5 C 607.466,82.4386 611.133,88.1053 613.5,94.5C 614.407,127.984 629.407,152.984 658.5,169.5C 661.566,173.749 664.899,177.915 668.5,182C 668.272,182.399 667.938,182.565 667.5,182.5C 659.633,180.231 652.299,176.898 645.5,172.5C 632.264,152.848 617.93,133.515 602.5,114.5C 599.905,102.302 599.905,89.9683 602.5,77.5 Z"/></g>
<g><path style="opacity:1" fill="#c2aa78" d="M 787.5,99.5 C 789.262,100.262 790.262,101.596 790.5,103.5C 786.472,107.859 782.472,112.193 778.5,116.5C 777.396,114.611 776.063,112.945 774.5,111.5C 774.5,111.167 774.5,110.833 774.5,110.5C 779.127,107.209 783.46,103.542 787.5,99.5 Z"/></g>
<g><path style="opacity:0.934" fill="#d2ba86" d="M 888.5,104.5 C 889.919,106.215 891.253,108.048 892.5,110C 893.094,110.464 893.761,110.631 894.5,110.5C 892.1,115.632 889.434,120.632 886.5,125.5C 883.438,124.732 881.772,122.732 881.5,119.5C 884.042,114.512 886.375,109.512 888.5,104.5 Z"/></g>
<g><path style="opacity:0.968" fill="#c4ab77" d="M 602.5,114.5 C 617.93,133.515 632.264,152.848 645.5,172.5C 622.748,159.414 608.414,140.08 602.5,114.5 Z"/></g>
<g><path style="opacity:0.937" fill="#e7d09b" d="M 774.5,111.5 C 776.063,112.945 777.396,114.611 778.5,116.5C 776.748,118.246 775.415,120.246 774.5,122.5C 763.691,135.431 754.358,149.431 746.5,164.5C 743.272,161.931 741.272,158.598 740.5,154.5C 749.668,138.521 761.001,124.188 774.5,111.5 Z"/></g>
<g><path style="opacity:0.867" fill="#9c824f" d="M 881.5,119.5 C 881.772,122.732 883.438,124.732 886.5,125.5C 877.5,139.167 866.167,150.5 852.5,159.5C 851.37,157.685 850.704,155.685 850.5,153.5C 862.991,144.015 873.325,132.681 881.5,119.5 Z"/></g>
<g><path style="opacity:0.891" fill="#bea571" d="M 850.5,153.5 C 850.704,155.685 851.37,157.685 852.5,159.5C 844.031,165.574 835.031,170.908 825.5,175.5C 825.107,173.716 824.441,172.05 823.5,170.5C 832.744,165.263 841.744,159.596 850.5,153.5 Z"/></g>
<g><path style="opacity:0.856" fill="#dec692" d="M 823.5,170.5 C 824.441,172.05 825.107,173.716 825.5,175.5C 817.673,178.888 809.673,181.888 801.5,184.5C 800.534,182.604 800.201,180.604 800.5,178.5C 808.305,176.232 815.972,173.565 823.5,170.5 Z"/></g>
<g><path style="opacity:0.912" fill="#c8af7b" d="M 740.5,154.5 C 741.272,158.598 743.272,161.931 746.5,164.5C 742.633,171.569 739.3,178.903 736.5,186.5C 748.541,187.741 760.541,187.407 772.5,185.5C 772.5,187.5 772.5,189.5 772.5,191.5C 759.544,192.927 746.544,193.593 733.5,193.5C 731.933,190.717 730.1,188.051 728,185.5C 726.991,183.975 726.491,182.308 726.5,180.5C 730.153,171.188 734.82,162.521 740.5,154.5 Z"/></g>
<g><path style="opacity:0.949" fill="#d1b885" d="M 853.5,230.5 C 852.894,225.709 850.727,221.709 847,218.5C 846.768,219.737 846.268,220.737 845.5,221.5C 846.373,212.578 843.039,205.911 835.5,201.5C 835.938,201.565 836.272,201.399 836.5,201C 834.915,198.931 833.581,196.764 832.5,194.5C 844.786,193.267 851.952,198.934 854,211.5C 854.82,218.014 854.653,224.347 853.5,230.5 Z"/></g>
<g><path style="opacity:0.924" fill="#ead29d" d="M 832.5,194.5 C 833.581,196.764 834.915,198.931 836.5,201C 836.272,201.399 835.938,201.565 835.5,201.5C 825.923,200.859 817.257,203.359 809.5,209C 805.802,212.174 802.135,215.341 798.5,218.5C 796.554,217.965 795.554,216.632 795.5,214.5C 796.925,213.078 797.925,211.411 798.5,209.5C 806.068,202.781 814.734,197.948 824.5,195C 827.146,194.503 829.813,194.336 832.5,194.5 Z"/></g>
<g><path style="opacity:0.928" fill="#a58c59" d="M 658.5,169.5 C 678.759,180.648 700.425,186.314 723.5,186.5C 724.519,184.396 725.519,182.396 726.5,180.5C 726.491,182.308 726.991,183.975 728,185.5C 730.1,188.051 731.933,190.717 733.5,193.5C 728.155,209.391 726.155,225.724 727.5,242.5C 723.167,237.167 718.833,231.833 714.5,226.5C 715.215,215.258 717.215,204.258 720.5,193.5C 702.109,192.717 684.442,189.051 667.5,182.5C 667.938,182.565 668.272,182.399 668.5,182C 664.899,177.915 661.566,173.749 658.5,169.5 Z"/></g>
<g><path style="opacity:0.949" fill="#020201" d="M 798.5,219.5 C 798.333,233.837 798.5,248.171 799,262.5C 802.286,277.074 811.453,283.741 826.5,282.5C 826.5,284.167 826.5,285.833 826.5,287.5C 809.5,287.5 792.5,287.5 775.5,287.5C 773.825,272.548 776.159,258.215 782.5,244.5C 786.09,234.971 791.423,226.637 798.5,219.5 Z"/></g>
<g><path style="opacity:1" fill="#c8b17e" d="M 795.5,214.5 C 795.554,216.632 796.554,217.965 798.5,218.5C 798.5,218.833 798.5,219.167 798.5,219.5C 791.423,226.637 786.09,234.971 782.5,244.5C 780.273,243.599 779.273,241.933 779.5,239.5C 783.09,229.971 788.423,221.637 795.5,214.5 Z"/></g>
<g><path style="opacity:0.927" fill="#edd6a0" d="M 853.5,230.5 C 851.432,241.056 847.432,250.723 841.5,259.5C 838.914,258.362 837.247,256.362 836.5,253.5C 841.935,243.527 844.935,232.86 845.5,221.5C 846.268,220.737 846.768,219.737 847,218.5C 850.727,221.709 852.894,225.709 853.5,230.5 Z"/></g>
<g><path style="opacity:0.982" fill="#b39a67" d="M 714.5,226.5 C 718.833,231.833 723.167,237.167 727.5,242.5C 729.223,252.371 732.056,262.038 736,271.5C 738.985,276.311 742.485,280.644 746.5,284.5C 747.945,286.063 749.611,287.396 751.5,288.5C 754.167,289.833 756.833,291.167 759.5,292.5C 760.806,294.816 762.139,297.15 763.5,299.5C 738.945,295.48 723.445,281.48 717,257.5C 714.872,247.279 714.039,236.946 714.5,226.5 Z"/></g>
<g><path style="opacity:0.919" fill="#d9c28d" d="M 836.5,253.5 C 837.247,256.362 838.914,258.362 841.5,259.5C 836.864,267.651 830.864,274.818 823.5,281C 820.485,281.201 817.485,280.868 814.5,280C 823.164,272.111 830.497,263.277 836.5,253.5 Z"/></g>
<g><path style="opacity:0.815" fill="#000000" d="M 769.5,274.5 C 769.5,278.833 769.5,283.167 769.5,287.5C 763.31,287.177 757.31,287.51 751.5,288.5C 749.611,287.396 747.945,286.063 746.5,284.5C 754.99,283.542 762.656,280.209 769.5,274.5 Z"/></g>
<g><path style="opacity:0.915" fill="#a68d5a" d="M 779.5,239.5 C 779.273,241.933 780.273,243.599 782.5,244.5C 776.159,258.215 773.825,272.548 775.5,287.5C 774.79,290.93 775.957,293.263 779,294.5C 786.113,293.68 792.946,291.847 799.5,289C 803.167,288.333 806.833,288.333 810.5,289C 800.386,295.204 789.386,298.704 777.5,299.5C 781.672,317.501 791.506,331.501 807,341.5C 807.854,343.607 807.188,344.941 805,345.5C 787.942,334.935 776.776,319.935 771.5,300.5C 768.914,299.52 766.247,299.187 763.5,299.5C 762.139,297.15 760.806,294.816 759.5,292.5C 762.521,293.005 765.521,293.672 768.5,294.5C 769.167,294.167 769.833,293.833 770.5,293.5C 769.652,291.591 769.318,289.591 769.5,287.5C 769.5,283.167 769.5,278.833 769.5,274.5C 769.897,265.579 771.564,256.912 774.5,248.5C 775.977,245.409 777.644,242.409 779.5,239.5 Z"/></g>
<g><path style="opacity:0.852" fill="#987d4b" d="M -0.5,334.5 C 15.5,334.5 31.5,334.5 47.5,334.5C 42.3595,335.488 37.0262,335.821 31.5,335.5C 31.5,336.833 31.5,338.167 31.5,339.5C 27.8333,339.5 24.1667,339.5 20.5,339.5C 20.5,369.833 20.5,400.167 20.5,430.5C 32.5046,430.667 44.5046,430.5 56.5,430C 61.9234,428.696 66.9234,426.53 71.5,423.5C 72.2186,425.764 72.552,428.097 72.5,430.5C 68.5761,432.865 64.2427,434.365 59.5,435C 39.5028,435.5 19.5028,435.667 -0.5,435.5C -0.5,434.833 -0.5,434.167 -0.5,433.5C 4.91907,434.041 8.41907,431.707 10,426.5C 10.6667,398.833 10.6667,371.167 10,343.5C 7.95653,338.953 4.45653,336.619 -0.5,336.5C -0.5,335.833 -0.5,335.167 -0.5,334.5 Z"/></g>
<g><path style="opacity:0.933" fill="#c0a773" d="M 747.5,334.5 C 758.187,334.168 768.854,334.501 779.5,335.5C 776.885,336.762 774.218,337.928 771.5,339C 770.54,340.419 769.707,341.919 769,343.5C 768.5,372.498 768.333,401.498 768.5,430.5C 778.912,430.926 789.246,430.426 799.5,429C 806.472,424.912 811.472,419.078 814.5,411.5C 814.833,412 815.167,412.5 815.5,413C 813.222,420.503 810.555,427.836 807.5,435C 787.492,435.833 767.492,435.666 747.5,434.5C 752.287,434.028 755.787,431.694 758,427.5C 758.667,399.5 758.667,371.5 758,343.5C 756.095,339.425 752.929,337.092 748.5,336.5C 747.702,336.043 747.369,335.376 747.5,334.5 Z"/></g>
<g><path style="opacity:0.967" fill="#f5dea9" d="M 1477.5,333.5 C 1502.65,334.727 1518.65,347.394 1525.5,371.5C 1525.5,380.833 1525.5,390.167 1525.5,399.5C 1515.77,427.827 1495.77,440.493 1465.5,437.5C 1465.5,435.833 1465.5,434.167 1465.5,432.5C 1493.82,434.592 1509.99,421.592 1514,393.5C 1516.59,375.005 1511.43,359.172 1498.5,346C 1490.96,340.874 1482.62,338.041 1473.5,337.5C 1473.5,336.167 1473.5,334.833 1473.5,333.5C 1474.83,333.5 1476.17,333.5 1477.5,333.5 Z"/></g>
<g><path style="opacity:0.983" fill="#b9a06c" d="M 152.5,335.5 C 150.5,335.5 148.5,335.5 146.5,335.5C 146.5,336.833 146.5,338.167 146.5,339.5C 141.833,339.5 137.167,339.5 132.5,339.5C 132.333,368.835 132.5,398.169 133,427.5C 135.035,432.036 138.535,434.369 143.5,434.5C 132.833,435.833 122.167,435.833 111.5,434.5C 116.287,434.028 119.787,431.694 122,427.5C 122.667,399.5 122.667,371.5 122,343.5C 119.799,339.133 116.299,336.466 111.5,335.5C 125.328,334.174 138.994,334.174 152.5,335.5 Z"/></g>
<g><path style="opacity:0.972" fill="#e5cd98" d="M 366.5,334.5 C 377.187,334.168 387.854,334.501 398.5,335.5C 393.285,336.552 389.785,339.552 388,344.5C 387.333,371.833 387.333,399.167 388,426.5C 389.613,431.61 393.113,434.277 398.5,434.5C 387.833,435.833 377.167,435.833 366.5,434.5C 371.465,434.369 374.965,432.036 377,427.5C 377.667,399.5 377.667,371.5 377,343.5C 375.878,341.376 374.378,339.543 372.5,338C 369.848,337.647 367.848,336.48 366.5,334.5 Z"/></g>
<g><path style="opacity:0.998" fill="#a98f5c" d="M 622.5,335.5 C 622.5,337.5 622.5,339.5 622.5,341.5C 616.936,340.104 611.269,339.437 605.5,339.5C 605.5,369.5 605.5,399.5 605.5,429.5C 614.307,430.003 622.974,429.336 631.5,427.5C 632.468,429.607 632.802,431.941 632.5,434.5C 616.521,435.788 600.521,435.788 584.5,434.5C 589.783,434.115 593.283,431.448 595,426.5C 595.667,398.833 595.667,371.167 595,343.5C 592.775,339.102 589.275,336.436 584.5,335.5C 597.169,334.317 609.836,334.317 622.5,335.5 Z"/></g>
<g><path style="opacity:0.991" fill="#ab915e" d="M 724.5,331.5 C 725.817,337.678 725.817,344.012 724.5,350.5C 724.115,345.217 721.448,341.717 716.5,340C 706.839,339.5 697.172,339.334 687.5,339.5C 687.5,353.833 687.5,368.167 687.5,382.5C 696.506,382.666 705.506,382.5 714.5,382C 716.816,379.695 718.15,376.862 718.5,373.5C 719.833,381.5 719.833,389.5 718.5,397.5C 718.159,392.995 715.826,390.162 711.5,389C 703.507,388.5 695.507,388.334 687.5,388.5C 687.5,402.5 687.5,416.5 687.5,430.5C 697.912,430.926 708.246,430.426 718.5,429C 721.902,427.6 724.736,425.433 727,422.5C 729.167,418.833 731.333,415.167 733.5,411.5C 733.833,412.167 734.167,412.833 734.5,413.5C 731.76,420.718 729.427,428.051 727.5,435.5C 707.156,435.833 686.822,435.5 666.5,434.5C 671.287,434.028 674.787,431.694 677,427.5C 677.667,399.5 677.667,371.5 677,343.5C 674.799,339.133 671.299,336.466 666.5,335.5C 683.49,334.667 700.49,334.167 717.5,334C 720.104,333.61 722.438,332.776 724.5,331.5 Z"/></g>
<g><path style="opacity:0.993" fill="#937846" d="M 1237.5,331.5 C 1240.34,332.771 1243.34,333.604 1246.5,334C 1268.17,334.667 1289.83,334.667 1311.5,334C 1314.63,333.608 1317.63,332.775 1320.5,331.5C 1321.5,337.798 1321.83,344.132 1321.5,350.5C 1320.5,350.5 1319.5,350.5 1318.5,350.5C 1318.5,345.312 1316.17,341.812 1311.5,340C 1302.51,339.5 1293.51,339.334 1284.5,339.5C 1284.33,369.502 1284.5,399.502 1285,429.5C 1287.69,432.734 1291.19,434.4 1295.5,434.5C 1284.83,435.833 1274.17,435.833 1263.5,434.5C 1268.69,433.478 1272.19,430.478 1274,425.5C 1274.5,396.835 1274.67,368.169 1274.5,339.5C 1264.83,339.334 1255.16,339.5 1245.5,340C 1240.96,342.035 1238.63,345.535 1238.5,350.5C 1237.5,344.202 1237.17,337.868 1237.5,331.5 Z"/></g>
<g><path style="opacity:0.986" fill="#a38956" d="M 1369.5,334.5 C 1364.36,335.488 1359.03,335.821 1353.5,335.5C 1353.5,336.833 1353.5,338.167 1353.5,339.5C 1352.34,368.997 1352.17,398.664 1353,428.5C 1355.32,432.415 1358.82,434.415 1363.5,434.5C 1352.83,435.833 1342.17,435.833 1331.5,434.5C 1336.92,433.71 1340.42,430.71 1342,425.5C 1342.67,398.5 1342.67,371.5 1342,344.5C 1340.02,339.756 1336.52,336.756 1331.5,335.5C 1344.15,334.501 1356.82,334.168 1369.5,334.5 Z"/></g>
<g><path style="opacity:0.936" fill="#ab925f" d="M 1200.5,332.5 C 1207.46,333.341 1214.46,333.674 1221.5,333.5C 1221.5,339.833 1221.5,346.167 1221.5,352.5C 1220.32,352.719 1219.32,352.386 1218.5,351.5C 1214.53,339.349 1206.53,335.516 1194.5,340C 1186.11,346.608 1184.28,354.775 1189,364.5C 1200.72,375.556 1212.39,386.556 1224,397.5C 1230.07,411.839 1227.23,424.006 1215.5,434C 1203.87,438.593 1192.21,438.593 1180.5,434C 1175.59,431.516 1173.59,427.516 1174.5,422C 1174.59,418.112 1175.09,414.279 1176,410.5C 1176.71,409.027 1177.88,408.36 1179.5,408.5C 1178.29,425.458 1186.29,433.291 1203.5,432C 1213.21,428.623 1217.71,421.789 1217,411.5C 1216.23,407.951 1214.89,404.618 1213,401.5C 1202.37,392.537 1192.03,383.203 1182,373.5C 1174.56,359.823 1176.39,347.656 1187.5,337C 1191.71,334.763 1196.05,333.263 1200.5,332.5 Z"/></g>
<g><path style="opacity:0.938" fill="#dcc591" d="M 1015.5,332.5 C 1028.21,332.306 1039.88,335.64 1050.5,342.5C 1051.93,349.153 1053.26,355.82 1054.5,362.5C 1053.68,363.386 1052.68,363.719 1051.5,363.5C 1048.94,351.774 1041.94,343.94 1030.5,340C 1025.21,338.839 1019.88,338.006 1014.5,337.5C 1014.37,335.708 1014.7,334.042 1015.5,332.5 Z"/></g>
<g><path style="opacity:0.975" fill="#ab915e" d="M 47.5,334.5 C 84.0671,337.234 101.234,356.9 99,393.5C 96.8542,410.786 88.0209,423.119 72.5,430.5C 72.552,428.097 72.2186,425.764 71.5,423.5C 84.5672,411.482 90.0672,396.482 88,378.5C 85.2356,356.07 72.7356,343.237 50.5,340C 44.1754,339.5 37.8421,339.334 31.5,339.5C 31.5,338.167 31.5,336.833 31.5,335.5C 37.0262,335.821 42.3595,335.488 47.5,334.5 Z"/></g>
<g><path style="opacity:0.994" fill="#d7be8a" d="M 1477.5,333.5 C 1476.17,333.5 1474.83,333.5 1473.5,333.5C 1473.5,334.833 1473.5,336.167 1473.5,337.5C 1450.85,340.646 1438.02,353.646 1435,376.5C 1432.14,395.919 1437.64,412.419 1451.5,426C 1456.03,428.667 1460.7,430.834 1465.5,432.5C 1465.5,434.167 1465.5,435.833 1465.5,437.5C 1443.52,433.688 1429.69,421.021 1424,399.5C 1419,377.188 1424.83,358.354 1441.5,343C 1452.42,335.19 1464.42,332.023 1477.5,333.5 Z"/></g>
<g><path style="opacity:0.983" fill="#f3dca6" d="M 1015.5,332.5 C 1014.7,334.042 1014.37,335.708 1014.5,337.5C 988.539,342.327 975.872,358.16 976.5,385C 976.028,398.417 980.028,410.251 988.5,420.5C 988.81,423.713 988.477,426.713 987.5,429.5C 975.466,421.913 968.299,410.913 966,396.5C 962.461,375.451 968.295,357.618 983.5,343C 993.211,336.596 1003.88,333.096 1015.5,332.5 Z"/></g>
<g><path style="opacity:0.946" fill="#b89f6c" d="M 540.5,400.5 C 540.5,399.167 540.5,397.833 540.5,396.5C 536.298,396.817 532.298,396.483 528.5,395.5C 532.514,395.666 536.514,395.499 540.5,395C 535.267,381.135 529.933,367.301 524.5,353.5C 524.167,353.833 523.833,354.167 523.5,354.5C 521.198,361.097 518.531,367.43 515.5,373.5C 515.821,368.305 515.487,363.305 514.5,358.5C 518.379,350.07 521.712,341.404 524.5,332.5C 538.85,363.022 552.35,394.022 565,425.5C 567.635,430.636 571.801,433.636 577.5,434.5C 566.5,435.833 555.5,435.833 544.5,434.5C 548.856,434.303 551.523,432.137 552.5,428C 549.347,418.866 546.347,409.699 543.5,400.5C 542.5,400.5 541.5,400.5 540.5,400.5 Z"/></g>
<g><path style="opacity:0.952" fill="#c4ab77" d="M 152.5,335.5 C 165.717,335.556 174.217,341.889 178,354.5C 180.476,367.072 176.976,377.572 167.5,386C 164.052,387.927 160.385,389.261 156.5,390C 158.667,392.167 160.833,394.333 163,396.5C 170.981,409.841 180.815,421.508 192.5,431.5C 192.5,432.833 192.5,434.167 192.5,435.5C 184.89,435.529 178.223,433.029 172.5,428C 164.279,417.446 156.446,406.613 149,395.5C 145.507,391.158 141.341,387.825 136.5,385.5C 158.935,386.903 168.768,376.569 166,354.5C 163.128,344.796 156.628,339.796 146.5,339.5C 146.5,338.167 146.5,336.833 146.5,335.5C 148.5,335.5 150.5,335.5 152.5,335.5 Z"/></g>
<g><path style="opacity:0.942" fill="#c3ab76" d="M 514.5,358.5 C 515.487,363.305 515.821,368.305 515.5,373.5C 513.134,380.764 510.467,387.93 507.5,395C 514.492,395.5 521.492,395.666 528.5,395.5C 532.298,396.483 536.298,396.817 540.5,396.5C 540.5,397.833 540.5,399.167 540.5,400.5C 528.5,400.5 516.5,400.5 504.5,400.5C 501.504,409.821 498.504,419.154 495.5,428.5C 495.79,432.124 497.79,434.124 501.5,434.5C 491.833,435.833 482.167,435.833 472.5,434.5C 477.132,434.036 480.965,432.036 484,428.5C 494.456,405.258 504.623,381.924 514.5,358.5 Z"/></g>
<g><path style="opacity:0.93" fill="#9f8552" d="M 622.5,335.5 C 642.827,340.613 648.993,352.946 641,372.5C 638.079,376.092 634.579,378.925 630.5,381C 647.81,385.428 655.31,396.595 653,414.5C 650.281,425.385 643.448,432.052 632.5,434.5C 632.802,431.941 632.468,429.607 631.5,427.5C 641.745,418.881 644.245,408.214 639,395.5C 636.382,390.884 632.549,387.717 627.5,386C 621.486,384.393 615.486,382.893 609.5,381.5C 630.641,378.583 637.141,367.25 629,347.5C 626.937,345.266 624.771,343.266 622.5,341.5C 622.5,339.5 622.5,337.5 622.5,335.5 Z"/></g>
<g><path style="opacity:0.958" fill="#e1ca95" d="M 876.5,347.5 C 887.891,373.294 899.057,399.294 910,425.5C 912.635,430.636 916.801,433.636 922.5,434.5C 911.5,435.833 900.5,435.833 889.5,434.5C 893.82,434.345 896.486,432.179 897.5,428C 894.333,419.167 891.167,410.333 888,401.5C 881.256,400.521 874.422,400.188 867.5,400.5C 867.5,399.167 867.5,397.833 867.5,396.5C 873.69,396.823 879.69,396.49 885.5,395.5C 882.437,387.977 879.77,380.31 877.5,372.5C 877.518,364.149 877.185,355.816 876.5,347.5 Z"/></g>
<g><path style="opacity:0.941" fill="#d3bb87" d="M 440.5,332.5 C 447.465,333.341 454.465,333.674 461.5,333.5C 461.5,339.833 461.5,346.167 461.5,352.5C 460.325,352.719 459.325,352.386 458.5,351.5C 456.694,343.197 451.527,338.531 443,337.5C 428.06,341.044 423.393,350.044 429,364.5C 438.868,374.037 449.035,383.203 459.5,392C 468.572,402.621 469.738,414.121 463,426.5C 454.421,436.581 443.588,440.081 430.5,437C 423.888,436.614 418.722,433.781 415,428.5C 414.242,422.109 414.576,415.776 416,409.5C 417.011,408.663 418.178,408.33 419.5,408.5C 417.422,419.843 421.756,427.676 432.5,432C 446.504,434.151 454.838,428.318 457.5,414.5C 457.052,409.273 455.218,404.606 452,400.5C 441.702,391.87 431.702,382.87 422,373.5C 416.444,363.7 416.11,353.7 421,343.5C 426.068,337.055 432.568,333.388 440.5,332.5 Z"/></g>
<g><path style="opacity:0.948" fill="#bfa673" d="M 1119.5,400.5 C 1119.5,399.167 1119.5,397.833 1119.5,396.5C 1115.3,396.817 1111.3,396.483 1107.5,395.5C 1115.17,395.5 1122.83,395.5 1130.5,395.5C 1125.84,381.011 1120.67,366.678 1115,352.5C 1114.06,354.488 1113.23,356.488 1112.5,358.5C 1111.83,354.167 1111.17,349.833 1110.5,345.5C 1112.36,341.268 1114.02,336.935 1115.5,332.5C 1129.6,363.936 1143.43,395.603 1157,427.5C 1159.83,431.496 1163.66,433.83 1168.5,434.5C 1157.5,435.833 1146.5,435.833 1135.5,434.5C 1139.6,434.396 1142.27,432.396 1143.5,428.5C 1140.43,419.462 1137.27,410.462 1134,401.5C 1129.26,400.531 1124.43,400.197 1119.5,400.5 Z"/></g>
<g><path style="opacity:0.942" fill="#d5bd88" d="M 876.5,347.5 C 877.185,355.816 877.518,364.149 877.5,372.5C 874.856,366.257 872.189,359.924 869.5,353.5C 863.647,367.052 857.98,380.718 852.5,394.5C 863.48,395.499 874.48,395.832 885.5,395.5C 879.69,396.49 873.69,396.823 867.5,396.5C 867.5,397.833 867.5,399.167 867.5,400.5C 861.5,400.5 855.5,400.5 849.5,400.5C 846.504,409.821 843.504,419.154 840.5,428.5C 840.79,432.124 842.79,434.124 846.5,434.5C 836.833,435.833 827.167,435.833 817.5,434.5C 822.132,434.036 825.965,432.036 829,428.5C 843.33,396.841 856.83,364.841 869.5,332.5C 872.614,337.065 874.947,342.065 876.5,347.5 Z"/></g>
<g><path style="opacity:0.961" fill="#e5ce98" d="M 250.5,342.5 C 263.073,371.024 275.573,399.691 288,428.5C 291.035,432.036 294.868,434.036 299.5,434.5C 288.5,435.833 277.5,435.833 266.5,434.5C 270.312,433.852 272.646,431.686 273.5,428C 270.394,418.848 267.394,409.682 264.5,400.5C 258.167,400.5 251.833,400.5 245.5,400.5C 245.5,399.167 245.5,397.833 245.5,396.5C 249.702,396.817 253.702,396.483 257.5,395.5C 258.978,395.762 260.311,395.429 261.5,394.5C 257.433,384.63 253.766,374.63 250.5,364.5C 249.345,357.013 249.345,349.68 250.5,342.5 Z"/></g>
<g><path style="opacity:0.945" fill="#ceb582" d="M 1110.5,345.5 C 1111.17,349.833 1111.83,354.167 1112.5,358.5C 1107.85,370.479 1103.18,382.479 1098.5,394.5C 1101.43,395.484 1104.43,395.817 1107.5,395.5C 1111.3,396.483 1115.3,396.817 1119.5,396.5C 1119.5,397.833 1119.5,399.167 1119.5,400.5C 1111.47,400.169 1103.47,400.502 1095.5,401.5C 1092,410.18 1089,419.013 1086.5,428C 1086.55,431.889 1088.55,434.055 1092.5,434.5C 1082.83,435.833 1073.17,435.833 1063.5,434.5C 1068.85,433.647 1073.02,430.98 1076,426.5C 1087.51,399.479 1099.01,372.479 1110.5,345.5 Z"/></g>
<g><path style="opacity:0.988" fill="#b89f6b" d="M 1369.5,334.5 C 1389.79,335.623 1399.29,346.29 1398,366.5C 1396.19,379.315 1389.02,387.148 1376.5,390C 1384.05,399.217 1391.22,408.717 1398,418.5C 1404.09,426.458 1411.93,431.791 1421.5,434.5C 1411.78,436.837 1402.78,435.337 1394.5,430C 1384.15,418.129 1374.65,405.629 1366,392.5C 1362.93,389.913 1359.76,387.58 1356.5,385.5C 1380.92,385.594 1390.09,373.927 1384,350.5C 1381.05,344.436 1376.21,340.936 1369.5,340C 1364.18,339.501 1358.84,339.334 1353.5,339.5C 1353.5,338.167 1353.5,336.833 1353.5,335.5C 1359.03,335.821 1364.36,335.488 1369.5,334.5 Z"/></g>
<g><path style="opacity:0.935" fill="#d5bd89" d="M 250.5,342.5 C 249.345,349.68 249.345,357.013 250.5,364.5C 249.048,360.841 247.381,357.175 245.5,353.5C 239.929,367.381 234.262,381.214 228.5,395C 238.161,395.5 247.828,395.666 257.5,395.5C 253.702,396.483 249.702,396.817 245.5,396.5C 245.5,397.833 245.5,399.167 245.5,400.5C 238.91,400.189 232.41,400.522 226,401.5C 222.339,410.317 219.172,419.317 216.5,428.5C 217.013,432.553 219.347,434.553 223.5,434.5C 213.188,435.499 202.855,435.832 192.5,435.5C 192.5,434.167 192.5,432.833 192.5,431.5C 194.55,431.961 196.55,432.628 198.5,433.5C 202.141,431.693 204.974,429.026 207,425.5C 220.227,394.396 233.394,363.396 246.5,332.5C 248.401,335.631 249.735,338.965 250.5,342.5 Z"/></g>
<g><path style="opacity:0.955" fill="#efd9a3" d="M 308.5,422.5 C 317.017,424.402 318.683,428.902 313.5,436C 305.862,437.957 302.362,435.123 303,427.5C 304.107,424.887 305.94,423.22 308.5,422.5 Z"/></g>
<g><path style="opacity:0.862" fill="#e4cc98" d="M 987.5,429.5 C 988.477,426.713 988.81,423.713 988.5,420.5C 1001.48,432.657 1016.48,435.824 1033.5,430C 1047.41,422.37 1054.91,410.537 1056,394.5C 1056.71,393.027 1057.88,392.36 1059.5,392.5C 1062.26,416.919 1051.59,431.752 1027.5,437C 1017.36,438.085 1007.36,437.418 997.5,435C 993.654,433.914 990.32,432.081 987.5,429.5 Z"/></g>
<g><path style="opacity:0.742" fill="#000000" d="M 726.5,449.5 C 728.527,449.338 730.527,449.505 732.5,450C 734.674,452.965 737.008,453.131 739.5,450.5C 743.204,452.031 743.204,453.864 739.5,456C 735.588,456.931 732.088,456.097 729,453.5C 727.25,456.994 725.416,457.161 723.5,454C 724.386,452.385 725.386,450.885 726.5,449.5 Z"/></g>
<g><path style="opacity:0.817" fill="#000000" d="M 732.5,457.5 C 738.853,470.382 744.853,483.549 750.5,497C 748.421,497.808 746.421,497.641 744.5,496.5C 743.296,493.261 741.962,490.094 740.5,487C 735.136,486.171 729.802,486.337 724.5,487.5C 723.167,490.5 721.833,493.5 720.5,496.5C 718.579,497.641 716.579,497.808 714.5,497C 720.643,483.882 726.643,470.715 732.5,457.5 Z M 732.5,468.5 C 734.725,472.623 736.725,476.956 738.5,481.5C 734.541,482.66 730.541,482.827 726.5,482C 728.643,477.548 730.643,473.048 732.5,468.5 Z"/></g>
<g><path style="opacity:0.822" fill="#000000" d="M 867.5,457.5 C 876.317,467.093 885.15,476.76 894,486.5C 894.5,477.506 894.666,468.506 894.5,459.5C 896.167,459.5 897.833,459.5 899.5,459.5C 899.667,472.837 899.5,486.171 899,499.5C 890.704,489.535 882.037,479.869 873,470.5C 872.5,479.494 872.334,488.494 872.5,497.5C 870.833,497.5 869.167,497.5 867.5,497.5C 867.5,484.167 867.5,470.833 867.5,457.5 Z"/></g>
<g><path style="opacity:0.817" fill="#000000" d="M 1067.5,457.5 C 1073.85,470.382 1079.85,483.549 1085.5,497C 1083.42,497.808 1081.42,497.641 1079.5,496.5C 1078.3,493.261 1076.96,490.094 1075.5,487C 1070.14,486.171 1064.8,486.337 1059.5,487.5C 1058.17,490.5 1056.83,493.5 1055.5,496.5C 1053.58,497.641 1051.58,497.808 1049.5,497C 1055.64,483.882 1061.64,470.715 1067.5,457.5 Z M 1067.5,468.5 C 1069.72,472.623 1071.72,476.956 1073.5,481.5C 1069.54,482.66 1065.54,482.827 1061.5,482C 1063.64,477.548 1065.64,473.048 1067.5,468.5 Z"/></g>
<g><path style="opacity:0.799" fill="#000000" d="M 452.5,459.5 C 457.998,459.068 463.331,459.735 468.5,461.5C 469.833,463.5 469.833,465.5 468.5,467.5C 457.825,461.209 449.658,463.543 444,474.5C 442.552,485.596 447.385,491.93 458.5,493.5C 462.226,493.072 465.559,491.739 468.5,489.5C 469.938,491.998 469.604,494.164 467.5,496C 446.031,500.527 436.864,492.027 440,470.5C 442.708,465.079 446.875,461.413 452.5,459.5 Z"/></g>
<g><path style="opacity:0.84" fill="#000000" d="M 488.5,459.5 C 490.167,459.5 491.833,459.5 493.5,459.5C 493.5,472.167 493.5,484.833 493.5,497.5C 491.833,497.5 490.167,497.5 488.5,497.5C 488.5,484.833 488.5,472.167 488.5,459.5 Z"/></g>
<g><path style="opacity:0.833" fill="#000000" d="M 514.5,459.5 C 519.599,459.175 524.599,459.675 529.5,461C 534.983,465.755 535.816,471.255 532,477.5C 529.92,479.123 527.754,480.623 525.5,482C 529.531,486.564 533.198,491.397 536.5,496.5C 534.579,497.641 532.579,497.808 530.5,497C 527,492.167 523.5,487.333 520,482.5C 519.501,487.489 519.334,492.489 519.5,497.5C 517.833,497.5 516.167,497.5 514.5,497.5C 514.5,484.833 514.5,472.167 514.5,459.5 Z M 519.5,463.5 C 528.084,463.55 530.75,467.383 527.5,475C 524.978,476.341 522.311,477.174 519.5,477.5C 519.5,472.833 519.5,468.167 519.5,463.5 Z"/></g>
<g><path style="opacity:0.825" fill="#000000" d="M 552.5,459.5 C 554.167,459.5 555.833,459.5 557.5,459.5C 557.109,469.233 557.609,478.9 559,488.5C 562.238,492.912 566.405,494.079 571.5,492C 573.487,490.681 574.654,488.848 575,486.5C 575.5,477.506 575.666,468.506 575.5,459.5C 577.167,459.5 578.833,459.5 580.5,459.5C 580.926,469.912 580.426,480.246 579,490.5C 576.657,495.671 572.657,498.005 567,497.5C 560.733,497.871 556.399,495.204 554,489.5C 552.605,479.566 552.105,469.566 552.5,459.5 Z"/></g>
<g><path style="opacity:0.814" fill="#000000" d="M 600.5,459.5 C 606.434,458.889 612.1,459.722 617.5,462C 622.682,470.326 621.015,476.992 612.5,482C 616.167,487 619.833,492 623.5,497C 621.5,497.667 619.5,497.667 617.5,497C 613.667,491.833 609.833,486.667 606,481.5C 605.501,486.823 605.334,492.156 605.5,497.5C 603.833,497.5 602.167,497.5 600.5,497.5C 600.5,484.833 600.5,472.167 600.5,459.5 Z M 605.5,463.5 C 608.238,463.851 610.904,464.518 613.5,465.5C 617.086,473.29 614.419,477.29 605.5,477.5C 605.5,472.833 605.5,468.167 605.5,463.5 Z"/></g>
<g><path style="opacity:0.816" fill="#000000" d="M 651.5,459.5 C 660.379,457.737 667.713,460.237 673.5,467C 672.333,468.167 671.167,469.333 670,470.5C 661.611,461.189 653.278,461.189 645,470.5C 640.249,482.664 644.249,490.33 657,493.5C 663.878,492.782 668.045,489.116 669.5,482.5C 665.833,482.5 662.167,482.5 658.5,482.5C 658.5,481.167 658.5,479.833 658.5,478.5C 664.176,478.334 669.843,478.501 675.5,479C 673.672,493.809 665.339,499.809 650.5,497C 638.248,490.871 634.748,481.371 640,468.5C 643.045,464.406 646.878,461.406 651.5,459.5 Z"/></g>
<g><path style="opacity:0.84" fill="#000000" d="M 694.5,459.5 C 696.167,459.5 697.833,459.5 699.5,459.5C 699.5,472.167 699.5,484.833 699.5,497.5C 697.833,497.5 696.167,497.5 694.5,497.5C 694.5,484.833 694.5,472.167 694.5,459.5 Z"/></g>
<g><path style="opacity:0.841" fill="#000000" d="M 779.5,459.5 C 789.61,457.483 798.11,460.15 805,467.5C 810.985,489.369 802.485,499.369 779.5,497.5C 779.5,484.833 779.5,472.167 779.5,459.5 Z M 784.5,463.5 C 798.08,463.572 803.914,470.239 802,483.5C 798.407,490.552 792.574,493.885 784.5,493.5C 784.5,483.5 784.5,473.5 784.5,463.5 Z"/></g>
<g><path style="opacity:0.907" fill="#000000" d="M 826.5,459.5 C 833.5,459.5 840.5,459.5 847.5,459.5C 847.5,460.833 847.5,462.167 847.5,463.5C 842.167,463.5 836.833,463.5 831.5,463.5C 831.5,467.167 831.5,470.833 831.5,474.5C 836.5,474.5 841.5,474.5 846.5,474.5C 846.5,475.833 846.5,477.167 846.5,478.5C 841.5,478.5 836.5,478.5 831.5,478.5C 831.5,483.5 831.5,488.5 831.5,493.5C 836.833,493.5 842.167,493.5 847.5,493.5C 847.5,494.833 847.5,496.167 847.5,497.5C 840.5,497.5 833.5,497.5 826.5,497.5C 826.5,484.833 826.5,472.167 826.5,459.5 Z"/></g>
<g><path style="opacity:0.87" fill="#000000" d="M 916.5,459.5 C 924.167,459.5 931.833,459.5 939.5,459.5C 939.5,460.833 939.5,462.167 939.5,463.5C 936.5,463.5 933.5,463.5 930.5,463.5C 930.5,474.833 930.5,486.167 930.5,497.5C 928.833,497.5 927.167,497.5 925.5,497.5C 925.5,486.167 925.5,474.833 925.5,463.5C 922.5,463.5 919.5,463.5 916.5,463.5C 916.5,462.167 916.5,460.833 916.5,459.5 Z"/></g>
<g><path style="opacity:0.82" fill="#000000" d="M 956.5,459.5 C 958.167,459.5 959.833,459.5 961.5,459.5C 961.5,472.167 961.5,484.833 961.5,497.5C 959.833,497.5 958.167,497.5 956.5,497.5C 956.5,484.833 956.5,472.167 956.5,459.5 Z"/></g>
<g><path style="opacity:0.787" fill="#000000" d="M 986.5,459.5 C 993.528,457.871 998.861,460.037 1002.5,466C 1001.03,466.635 999.7,467.469 998.5,468.5C 993.837,461.819 989.503,461.986 985.5,469C 988.426,473.139 992.426,475.806 997.5,477C 1005.83,484.305 1005.49,490.971 996.5,497C 987.413,499.466 981.746,496.299 979.5,487.5C 980.822,487.67 981.989,487.337 983,486.5C 988.265,495.292 993.432,495.458 998.5,487C 997.917,484.501 996.584,482.501 994.5,481C 989.919,479.129 985.752,476.629 982,473.5C 980.097,467.79 981.597,463.124 986.5,459.5 Z"/></g>
<g><path style="opacity:0.87" fill="#000000" d="M 1017.5,459.5 C 1025.17,459.5 1032.83,459.5 1040.5,459.5C 1040.5,460.833 1040.5,462.167 1040.5,463.5C 1037.5,463.5 1034.5,463.5 1031.5,463.5C 1031.5,474.833 1031.5,486.167 1031.5,497.5C 1029.83,497.5 1028.17,497.5 1026.5,497.5C 1026.5,486.167 1026.5,474.833 1026.5,463.5C 1023.5,463.5 1020.5,463.5 1017.5,463.5C 1017.5,462.167 1017.5,460.833 1017.5,459.5 Z"/></g>
<g><path style="opacity:0.856" fill="#aa905d" d="M -0.5,480.5 C 13.5,480.5 27.5,480.5 41.5,480.5C 40.0813,481.451 38.4147,481.784 36.5,481.5C 36.5,482.833 36.5,484.167 36.5,485.5C 24.1667,485.5 11.8333,485.5 -0.5,485.5C -0.5,483.833 -0.5,482.167 -0.5,480.5 Z"/></g>
<g><path style="opacity:0.895" fill="#d5bd88" d="M 41.5,480.5 C 53.1667,480.5 64.8333,480.5 76.5,480.5C 75.0813,481.451 73.4147,481.784 71.5,481.5C 71.4326,482.959 71.7659,484.292 72.5,485.5C 60.5,485.5 48.5,485.5 36.5,485.5C 36.5,484.167 36.5,482.833 36.5,481.5C 38.4147,481.784 40.0813,481.451 41.5,480.5 Z"/></g>
<g><path style="opacity:1" fill="#efd8a2" d="M 76.5,480.5 C 83.8333,480.5 91.1667,480.5 98.5,480.5C 100.265,481.461 102.265,481.795 104.5,481.5C 104.567,482.959 104.234,484.292 103.5,485.5C 93.1667,485.5 82.8333,485.5 72.5,485.5C 71.7659,484.292 71.4326,482.959 71.5,481.5C 73.4147,481.784 75.0813,481.451 76.5,480.5 Z"/></g>
<g><path style="opacity:0.856" fill="#d7bf8a" d="M 98.5,480.5 C 105.5,480.5 112.5,480.5 119.5,480.5C 122.287,481.477 125.287,481.81 128.5,481.5C 128.567,482.959 128.234,484.292 127.5,485.5C 119.5,485.5 111.5,485.5 103.5,485.5C 104.234,484.292 104.567,482.959 104.5,481.5C 102.265,481.795 100.265,481.461 98.5,480.5 Z"/></g>
<g><path style="opacity:0.83" fill="#bba26f" d="M 119.5,480.5 C 129.833,480.5 140.167,480.5 150.5,480.5C 152.948,481.473 155.615,481.806 158.5,481.5C 158.5,482.833 158.5,484.167 158.5,485.5C 148.167,485.5 137.833,485.5 127.5,485.5C 128.234,484.292 128.567,482.959 128.5,481.5C 125.287,481.81 122.287,481.477 119.5,480.5 Z"/></g>
<g><path style="opacity:0.856" fill="#ab925e" d="M 150.5,480.5 C 171.167,480.5 191.833,480.5 212.5,480.5C 210.052,481.473 207.385,481.806 204.5,481.5C 204.433,482.959 204.766,484.292 205.5,485.5C 189.833,485.5 174.167,485.5 158.5,485.5C 158.5,484.167 158.5,482.833 158.5,481.5C 155.615,481.806 152.948,481.473 150.5,480.5 Z"/></g>
<g><path style="opacity:0.856" fill="#d4bb87" d="M 212.5,480.5 C 225.833,480.5 239.167,480.5 252.5,480.5C 251.081,481.451 249.415,481.784 247.5,481.5C 247.433,482.959 247.766,484.292 248.5,485.5C 234.167,485.5 219.833,485.5 205.5,485.5C 204.766,484.292 204.433,482.959 204.5,481.5C 207.385,481.806 210.052,481.473 212.5,480.5 Z"/></g>
<g><path style="opacity:0.808" fill="#efd8a1" d="M 252.5,480.5 C 259.833,480.5 267.167,480.5 274.5,480.5C 275.919,481.451 277.585,481.784 279.5,481.5C 279.567,482.959 279.234,484.292 278.5,485.5C 268.5,485.5 258.5,485.5 248.5,485.5C 247.766,484.292 247.433,482.959 247.5,481.5C 249.415,481.784 251.081,481.451 252.5,480.5 Z"/></g>
<g><path style="opacity:0.83" fill="#c5ad78" d="M 274.5,480.5 C 292.167,480.5 309.833,480.5 327.5,480.5C 328.919,481.451 330.585,481.784 332.5,481.5C 332.567,482.959 332.234,484.292 331.5,485.5C 313.833,485.5 296.167,485.5 278.5,485.5C 279.234,484.292 279.567,482.959 279.5,481.5C 277.585,481.784 275.919,481.451 274.5,480.5 Z"/></g>
<g><path style="opacity:0.904" fill="#9d8351" d="M 327.5,480.5 C 346.167,480.5 364.833,480.5 383.5,480.5C 382.699,482.042 382.366,483.708 382.5,485.5C 365.5,485.5 348.5,485.5 331.5,485.5C 332.234,484.292 332.567,482.959 332.5,481.5C 330.585,481.784 328.919,481.451 327.5,480.5 Z"/></g>
<g><path style="opacity:1" fill="#d4bc87" d="M 383.5,480.5 C 389.833,480.5 396.167,480.5 402.5,480.5C 401.791,481.404 400.791,481.737 399.5,481.5C 399.433,482.959 399.766,484.292 400.5,485.5C 394.5,485.5 388.5,485.5 382.5,485.5C 382.366,483.708 382.699,482.042 383.5,480.5 Z"/></g>
<g><path style="opacity:0.838" fill="#f3dca7" d="M 402.5,480.5 C 407.5,480.5 412.5,480.5 417.5,480.5C 417.5,482.167 417.5,483.833 417.5,485.5C 411.833,485.5 406.167,485.5 400.5,485.5C 399.766,484.292 399.433,482.959 399.5,481.5C 400.791,481.737 401.791,481.404 402.5,480.5 Z"/></g>
<g><path style="opacity:0.856" fill="#a98f5c" d="M 1150.5,480.5 C 1149.08,481.451 1147.41,481.784 1145.5,481.5C 1145.5,482.833 1145.5,484.167 1145.5,485.5C 1132.83,485.5 1120.17,485.5 1107.5,485.5C 1107.5,483.833 1107.5,482.167 1107.5,480.5C 1121.83,480.5 1136.17,480.5 1150.5,480.5 Z"/></g>
<g><path style="opacity:0.895" fill="#d5bd88" d="M 1150.5,480.5 C 1162.17,480.5 1173.83,480.5 1185.5,480.5C 1184.08,481.451 1182.41,481.784 1180.5,481.5C 1180.43,482.959 1180.77,484.292 1181.5,485.5C 1169.5,485.5 1157.5,485.5 1145.5,485.5C 1145.5,484.167 1145.5,482.833 1145.5,481.5C 1147.41,481.784 1149.08,481.451 1150.5,480.5 Z"/></g>
<g><path style="opacity:1" fill="#efd8a2" d="M 1185.5,480.5 C 1192.83,480.5 1200.17,480.5 1207.5,480.5C 1209.26,481.461 1211.26,481.795 1213.5,481.5C 1213.57,482.959 1213.23,484.292 1212.5,485.5C 1202.17,485.5 1191.83,485.5 1181.5,485.5C 1180.77,484.292 1180.43,482.959 1180.5,481.5C 1182.41,481.784 1184.08,481.451 1185.5,480.5 Z"/></g>
<g><path style="opacity:0.856" fill="#d7bf8a" d="M 1207.5,480.5 C 1214.5,480.5 1221.5,480.5 1228.5,480.5C 1231.29,481.477 1234.29,481.81 1237.5,481.5C 1237.57,482.959 1237.23,484.292 1236.5,485.5C 1228.5,485.5 1220.5,485.5 1212.5,485.5C 1213.23,484.292 1213.57,482.959 1213.5,481.5C 1211.26,481.795 1209.26,481.461 1207.5,480.5 Z"/></g>
<g><path style="opacity:0.83" fill="#bba26f" d="M 1228.5,480.5 C 1238.83,480.5 1249.17,480.5 1259.5,480.5C 1261.95,481.473 1264.61,481.806 1267.5,481.5C 1267.5,482.833 1267.5,484.167 1267.5,485.5C 1257.17,485.5 1246.83,485.5 1236.5,485.5C 1237.23,484.292 1237.57,482.959 1237.5,481.5C 1234.29,481.81 1231.29,481.477 1228.5,480.5 Z"/></g>
<g><path style="opacity:0.856" fill="#ab925e" d="M 1259.5,480.5 C 1280.17,480.5 1300.83,480.5 1321.5,480.5C 1319.05,481.473 1316.39,481.806 1313.5,481.5C 1313.43,482.959 1313.77,484.292 1314.5,485.5C 1298.83,485.5 1283.17,485.5 1267.5,485.5C 1267.5,484.167 1267.5,482.833 1267.5,481.5C 1264.61,481.806 1261.95,481.473 1259.5,480.5 Z"/></g>
<g><path style="opacity:0.856" fill="#d4bb87" d="M 1321.5,480.5 C 1334.83,480.5 1348.17,480.5 1361.5,480.5C 1360.08,481.451 1358.41,481.784 1356.5,481.5C 1356.43,482.959 1356.77,484.292 1357.5,485.5C 1343.17,485.5 1328.83,485.5 1314.5,485.5C 1313.77,484.292 1313.43,482.959 1313.5,481.5C 1316.39,481.806 1319.05,481.473 1321.5,480.5 Z"/></g>
<g><path style="opacity:0.808" fill="#efd8a1" d="M 1361.5,480.5 C 1368.83,480.5 1376.17,480.5 1383.5,480.5C 1384.92,481.451 1386.59,481.784 1388.5,481.5C 1388.57,482.959 1388.23,484.292 1387.5,485.5C 1377.5,485.5 1367.5,485.5 1357.5,485.5C 1356.77,484.292 1356.43,482.959 1356.5,481.5C 1358.41,481.784 1360.08,481.451 1361.5,480.5 Z"/></g>
<g><path style="opacity:0.83" fill="#c5ad78" d="M 1383.5,480.5 C 1401.17,480.5 1418.83,480.5 1436.5,480.5C 1437.92,481.451 1439.59,481.784 1441.5,481.5C 1441.57,482.959 1441.23,484.292 1440.5,485.5C 1422.83,485.5 1405.17,485.5 1387.5,485.5C 1388.23,484.292 1388.57,482.959 1388.5,481.5C 1386.59,481.784 1384.92,481.451 1383.5,480.5 Z"/></g>
<g><path style="opacity:0.904" fill="#9d8351" d="M 1436.5,480.5 C 1455.17,480.5 1473.83,480.5 1492.5,480.5C 1491.7,482.042 1491.37,483.708 1491.5,485.5C 1474.5,485.5 1457.5,485.5 1440.5,485.5C 1441.23,484.292 1441.57,482.959 1441.5,481.5C 1439.59,481.784 1437.92,481.451 1436.5,480.5 Z"/></g>
<g><path style="opacity:1" fill="#d4bc87" d="M 1492.5,480.5 C 1498.83,480.5 1505.17,480.5 1511.5,480.5C 1510.79,481.404 1509.79,481.737 1508.5,481.5C 1508.43,482.959 1508.77,484.292 1509.5,485.5C 1503.5,485.5 1497.5,485.5 1491.5,485.5C 1491.37,483.708 1491.7,482.042 1492.5,480.5 Z"/></g>
<g><path style="opacity:0.856" fill="#f3dca7" d="M 1511.5,480.5 C 1516.17,480.5 1520.83,480.5 1525.5,480.5C 1525.5,482.167 1525.5,483.833 1525.5,485.5C 1520.17,485.5 1514.83,485.5 1509.5,485.5C 1508.77,484.292 1508.43,482.959 1508.5,481.5C 1509.79,481.737 1510.79,481.404 1511.5,480.5 Z"/></g>
</svg>
