<?xml version="1.0" encoding="UTF-8"?>
<!DOCTYPE svg PUBLIC "-//W3C//DTD SVG 1.1//EN" "http://www.w3.org/Graphics/SVG/1.1/DTD/svg11.dtd">
<svg xmlns="http://www.w3.org/2000/svg" version="1.1" width="2000px" height="2000px" style="shape-rendering:geometricPrecision; text-rendering:geometricPrecision; image-rendering:optimizeQuality; fill-rule:evenodd; clip-rule:evenodd" xmlns:xlink="http://www.w3.org/1999/xlink">
<g><path style="opacity:1" fill="#691c32" d="M -0.5,-0.5 C 40.5,-0.5 81.5,-0.5 122.5,-0.5C 81.8333,40.8333 40.8333,81.8333 -0.5,122.5C -0.5,81.5 -0.5,40.5 -0.5,-0.5 Z"/></g>
<g><path style="opacity:1" fill="#651b2f" d="M 122.5,-0.5 C 200.5,-0.5 278.5,-0.5 356.5,-0.5C 237.473,118.86 118.473,238.194 -0.5,357.5C -0.5,279.167 -0.5,200.833 -0.5,122.5C 40.8333,81.8333 81.8333,40.8333 122.5,-0.5 Z"/></g>
<g><path style="opacity:1" fill="#60192d" d="M 356.5,-0.5 C 440.167,-0.5 523.833,-0.5 607.5,-0.5C 405.167,202.5 202.5,405.167 -0.5,607.5C -0.5,524.167 -0.5,440.833 -0.5,357.5C 118.473,238.194 237.473,118.86 356.5,-0.5 Z"/></g>
<g><path style="opacity:1" fill="#5c192b" d="M 607.5,-0.5 C 628.167,-0.5 648.833,-0.5 669.5,-0.5C 446.5,223.167 223.167,446.5 -0.5,669.5C -0.5,648.833 -0.5,628.167 -0.5,607.5C 202.5,405.167 405.167,202.5 607.5,-0.5 Z"/></g>
<g><path style="opacity:1" fill="#591729" d="M 669.5,-0.5 C 726.833,-0.5 784.167,-0.5 841.5,-0.5C 561.167,280.5 280.5,561.167 -0.5,841.5C -0.5,784.167 -0.5,726.833 -0.5,669.5C 223.167,446.5 446.5,223.167 669.5,-0.5 Z"/></g>
<g><path style="opacity:1" fill="#541627" d="M 841.5,-0.5 C 924.833,-0.5 1008.17,-0.5 1091.5,-0.5C 727.473,363.86 363.473,728.194 -0.5,1092.5C -0.5,1008.83 -0.5,925.167 -0.5,841.5C 280.5,561.167 561.167,280.5 841.5,-0.5 Z"/></g>
<g><path style="opacity:1" fill="#511526" d="M 1091.5,-0.5 C 1101.83,-0.5 1112.17,-0.5 1122.5,-0.5C 748.861,374.806 374.527,749.473 -0.5,1123.5C -0.5,1113.17 -0.5,1102.83 -0.5,1092.5C 363.473,728.194 727.473,363.86 1091.5,-0.5 Z"/></g>
<g><path style="opacity:1" fill="#4d1423" d="M 1122.5,-0.5 C 1211.17,-0.5 1299.83,-0.5 1388.5,-0.5C 1026.84,361.326 665.341,723.326 304,1085.5C 303.536,1086.09 303.369,1086.76 303.5,1087.5C 299.557,1086.51 295.557,1085.85 291.5,1085.5C 273.662,1084.17 255.662,1084.17 237.5,1085.5C 238.325,1086.39 239.325,1086.72 240.5,1086.5C 243.675,1086.84 245.841,1088.51 247,1091.5C 247.5,1108.5 247.667,1125.5 247.5,1142.5C 164.833,1224.83 82.1667,1307.17 -0.5,1389.5C -0.5,1300.83 -0.5,1212.17 -0.5,1123.5C 374.527,749.473 748.861,374.806 1122.5,-0.5 Z"/></g>
<g><path style="opacity:1" fill="#481321" d="M 1388.5,-0.5 C 1445.83,-0.5 1503.17,-0.5 1560.5,-0.5C 1175.47,384.527 790.806,769.861 406.5,1155.5C 403.203,1152.26 400.37,1148.6 398,1144.5C 396.127,1142.29 393.96,1140.46 391.5,1139C 404.392,1137.44 412.226,1130.28 415,1117.5C 417.422,1101.83 411.255,1091.33 396.5,1086C 394.866,1085.51 393.199,1085.34 391.5,1085.5C 377.661,1084.17 363.661,1084.17 349.5,1085.5C 350.325,1086.39 351.325,1086.72 352.5,1086.5C 356.417,1087.25 358.917,1089.58 360,1093.5C 360.667,1121.17 360.667,1148.83 360,1176.5C 358.59,1180.08 356.09,1182.41 352.5,1183.5C 351.325,1183.28 350.325,1183.61 349.5,1184.5C 359.833,1185.83 370.167,1185.83 380.5,1184.5C 379.311,1183.57 377.978,1183.24 376.5,1183.5C 372.5,1182.83 370.167,1180.5 369.5,1176.5C 369.5,1147.5 369.5,1118.5 369.5,1089.5C 375.833,1089.5 382.167,1089.5 388.5,1089.5C 397.456,1091.03 402.623,1096.36 404,1105.5C 405.6,1126.4 395.766,1136.4 374.5,1135.5C 377.7,1136.53 380.533,1138.2 383,1140.5C 389.667,1149.83 396.333,1159.17 403,1168.5C 407.654,1175.49 413.821,1180.66 421.5,1184C 423.134,1184.49 424.801,1184.66 426.5,1184.5C 429.962,1185.48 433.629,1185.81 437.5,1185.5C 422.833,1200.5 408.167,1215.5 393.5,1230.5C 340.997,1230.17 288.664,1230.5 236.5,1231.5C 236.5,1232.5 236.5,1233.5 236.5,1234.5C 248.167,1234.5 259.833,1234.5 271.5,1234.5C 284.833,1234.5 298.167,1234.5 311.5,1234.5C 316.5,1234.5 321.5,1234.5 326.5,1234.5C 217.833,1343.83 108.833,1452.83 -0.5,1561.5C -0.5,1504.17 -0.5,1446.83 -0.5,1389.5C 82.1667,1307.17 164.833,1224.83 247.5,1142.5C 247.667,1154.17 247.5,1165.84 247,1177.5C 245.52,1180.82 243.02,1182.82 239.5,1183.5C 238.325,1183.28 237.325,1183.61 236.5,1184.5C 254.662,1185.83 272.662,1185.83 290.5,1184.5C 299.349,1184.06 307.349,1181.39 314.5,1176.5C 322.859,1172.16 328.693,1165.5 332,1156.5C 336.214,1142.92 336.547,1129.25 333,1115.5C 327.521,1101.52 317.688,1092.19 303.5,1087.5C 303.369,1086.76 303.536,1086.09 304,1085.5C 665.341,723.326 1026.84,361.326 1388.5,-0.5 Z"/></g>
<g><path style="opacity:1" fill="#451220" d="M 1560.5,-0.5 C 1581.5,-0.5 1602.5,-0.5 1623.5,-0.5C 1249.87,373.632 876.035,747.632 502,1121.5C 501.536,1122.09 501.369,1122.76 501.5,1123.5C 496.594,1113.35 491.928,1103.02 487.5,1092.5C 486.538,1089.24 485.038,1086.24 483,1083.5C 470.218,1115.06 456.884,1146.4 443,1177.5C 440.268,1182.12 436.434,1183.79 431.5,1182.5C 420.74,1175.74 412.407,1166.74 406.5,1155.5C 790.806,769.861 1175.47,384.527 1560.5,-0.5 Z"/></g>
<g><path style="opacity:1" fill="#41111e" d="M 1623.5,-0.5 C 1706.83,-0.5 1790.17,-0.5 1873.5,-0.5C 1595.03,278.465 1316.37,557.299 1037.5,836C 1037.73,836.399 1038.06,836.565 1038.5,836.5C 1037.83,837.833 1036.83,838.833 1035.5,839.5C 1035.33,827.162 1035.5,814.829 1036,802.5C 1041.24,790.623 1050.41,784.956 1063.5,785.5C 1063.5,784.5 1063.5,783.5 1063.5,782.5C 1036.83,782.5 1010.17,782.5 983.5,782.5C 983.5,783.5 983.5,784.5 983.5,785.5C 995.606,784.964 1004.44,789.964 1010,800.5C 1011.46,820.433 1011.96,840.433 1011.5,860.5C 998.299,874.697 986.632,890.03 976.5,906.5C 971.39,914.385 967.057,922.718 963.5,931.5C 962.229,933.109 961.229,934.942 960.5,937C 937.871,936.518 916.538,931.018 896.5,920.5C 864.823,902.494 849.156,875.16 849.5,838.5C 850.544,828.37 853.211,818.703 857.5,809.5C 862.987,800.002 869.654,791.335 877.5,783.5C 894.898,768.023 915.231,758.689 938.5,755.5C 950.484,754.723 962.484,754.39 974.5,754.5C 988.129,755.661 1001.46,758.327 1014.5,762.5C 1025.85,766.01 1035.85,771.843 1044.5,780C 1049.82,780.34 1051.99,777.84 1051,772.5C 1038.06,764.906 1024.22,759.573 1009.5,756.5C 989.19,750.472 968.523,748.472 947.5,750.5C 941.916,750.255 936.583,750.922 931.5,752.5C 909.193,755.493 889.526,764.16 872.5,778.5C 863.351,784.647 856.351,792.647 851.5,802.5C 845.627,810.586 841.627,819.586 839.5,829.5C 834.493,878.844 855.16,912.511 901.5,930.5C 911.868,934.845 922.534,938.178 933.5,940.5C 879.167,994.167 825.167,1048.17 771.5,1102.5C 768.108,1096.05 764.942,1089.38 762,1082.5C 757.044,1096.41 751.544,1110.07 745.5,1123.5C 743.739,1128.02 741.739,1132.35 739.5,1136.5C 739.631,1135.76 739.464,1135.09 739,1134.5C 726.632,1147.04 714.132,1159.37 701.5,1171.5C 704.327,1163.76 704.161,1156.09 701,1148.5C 690.323,1137.16 678.99,1126.49 667,1116.5C 660.358,1106.95 661.191,1098.11 669.5,1090C 682.831,1084 691.831,1087.84 696.5,1101.5C 697.496,1095.54 697.829,1089.54 697.5,1083.5C 687.753,1083.08 678.086,1083.58 668.5,1085C 654.507,1093.65 651.007,1105.48 658,1120.5C 668.535,1131.28 679.535,1141.61 691,1151.5C 696.565,1161.58 695.398,1170.75 687.5,1179C 667.447,1186.78 656.447,1179.95 654.5,1158.5C 653.808,1159.03 653.308,1159.69 653,1160.5C 652.333,1166.83 652.333,1173.17 653,1179.5C 656.762,1183.13 661.262,1185.3 666.5,1186C 673.528,1186.67 680.528,1186.51 687.5,1185.5C 672.833,1200.5 658.167,1215.5 643.5,1230.5C 560.167,1230.5 476.833,1230.5 393.5,1230.5C 408.167,1215.5 422.833,1200.5 437.5,1185.5C 444.863,1185.83 452.197,1185.5 459.5,1184.5C 458.675,1183.61 457.675,1183.28 456.5,1183.5C 455.542,1183.05 454.708,1182.38 454,1181.5C 453.333,1178.83 453.333,1176.17 454,1173.5C 456.642,1165.91 459.475,1158.41 462.5,1151C 475.496,1150.5 488.496,1150.33 501.5,1150.5C 504.796,1157.88 507.629,1165.54 510,1173.5C 510.667,1176.17 510.667,1178.83 510,1181.5C 508.887,1182.31 507.721,1182.97 506.5,1183.5C 505.325,1183.28 504.325,1183.61 503.5,1184.5C 514.167,1185.83 524.833,1185.83 535.5,1184.5C 534.675,1183.61 533.675,1183.28 532.5,1183.5C 529.011,1182.52 526.177,1180.52 524,1177.5C 516.003,1159.67 508.503,1141.67 501.5,1123.5C 501.369,1122.76 501.536,1122.09 502,1121.5C 876.035,747.632 1249.87,373.632 1623.5,-0.5 Z"/></g>
<g><path style="opacity:1" fill="#3b0f1b" d="M 1873.5,-0.5 C 1915.5,-0.5 1957.5,-0.5 1999.5,-0.5C 1999.5,41.1667 1999.5,82.8333 1999.5,124.5C 1678.5,444.833 1357.83,765.5 1037.5,1086.5C 1025.53,1076.84 1017.53,1064.51 1013.5,1049.5C 1024.99,1047.5 1035.99,1044 1046.5,1039C 1043.17,1038.33 1039.83,1038.33 1036.5,1039C 1028.79,1042.09 1020.79,1043.93 1012.5,1044.5C 1012.5,1041.83 1012.5,1039.17 1012.5,1036.5C 1029.5,1036.5 1046.5,1036.5 1063.5,1036.5C 1063.77,1034.9 1063.43,1033.57 1062.5,1032.5C 1049.56,1033.28 1040.73,1027.61 1036,1015.5C 1035.5,999.837 1035.33,984.17 1035.5,968.5C 1044.81,956.18 1057.14,950.346 1072.5,951C 1077.7,953.207 1081.2,957.04 1083,962.5C 1083.61,967.861 1083.44,973.195 1082.5,978.5C 1079.64,994.104 1072.97,1007.77 1062.5,1019.5C 1059.69,1023.14 1056.36,1026.3 1052.5,1029C 1058.46,1030.95 1063.13,1029.12 1066.5,1023.5C 1078.02,1012.13 1085.69,998.464 1089.5,982.5C 1092.84,971.93 1092.01,961.597 1087,951.5C 1085.13,949.291 1082.96,947.458 1080.5,946C 1067.86,942.525 1056.2,944.525 1045.5,952C 1042,954.669 1038.67,957.502 1035.5,960.5C 1035.5,922.5 1035.5,884.5 1035.5,846.5C 1035.5,845.833 1035.83,845.5 1036.5,845.5C 1046.69,836.632 1057.69,828.965 1069.5,822.5C 1075.15,820.161 1080.82,818.161 1086.5,816.5C 1098.06,812.913 1109.06,814.08 1119.5,820C 1122.87,823.236 1125.37,827.069 1127,831.5C 1127.71,838.203 1127.55,844.87 1126.5,851.5C 1124.49,857.207 1122.15,862.874 1119.5,868.5C 1109.21,885.786 1095.55,899.786 1078.5,910.5C 1065.7,918.396 1052.04,924.396 1037.5,928.5C 1037.21,930.288 1037.55,931.955 1038.5,933.5C 1053.3,928.764 1067.3,922.43 1080.5,914.5C 1097.43,904.236 1111.43,890.903 1122.5,874.5C 1126.29,869.684 1129.29,864.35 1131.5,858.5C 1137.86,844.874 1138.03,831.208 1132,817.5C 1128.91,813.072 1124.74,810.239 1119.5,809C 1108.63,807.811 1097.96,808.644 1087.5,811.5C 1080.59,813.581 1073.92,816.247 1067.5,819.5C 1057.56,824.795 1047.89,830.462 1038.5,836.5C 1038.06,836.565 1037.73,836.399 1037.5,836C 1316.37,557.299 1595.03,278.465 1873.5,-0.5 Z"/></g>
<g><path style="opacity:1" fill="#370e19" d="M 1999.5,124.5 C 1999.5,150.5 1999.5,176.5 1999.5,202.5C 1702.81,498.194 1406.81,794.527 1111.5,1091.5C 1110.05,1088.59 1108.55,1085.59 1107,1082.5C 1104.35,1091.3 1100.85,1099.63 1096.5,1107.5C 1071.5,1130.83 1046.83,1155.16 1022.5,1180.5C 1016.83,1180.5 1011.17,1180.5 1005.5,1180.5C 1005.5,1159.5 1005.5,1138.5 1005.5,1117.5C 1015.17,1108.17 1024.83,1098.83 1034.5,1089.5C 1037.09,1091.96 1040.09,1093.63 1043.5,1094.5C 1042.7,1091.02 1040.7,1088.35 1037.5,1086.5C 1357.83,765.5 1678.5,444.833 1999.5,124.5 Z"/></g>
<g><path style="opacity:1" fill="#340d17" d="M 1999.5,202.5 C 1999.5,270.167 1999.5,337.833 1999.5,405.5C 1743.89,661.605 1488.06,917.605 1232,1173.5C 1231.54,1174.09 1231.37,1174.76 1231.5,1175.5C 1220.12,1166.75 1213.95,1155.08 1213,1140.5C 1210.55,1121.16 1216.72,1105.33 1231.5,1093C 1236.36,1089.73 1241.69,1087.9 1247.5,1087.5C 1268.41,1084.69 1282.57,1093.03 1290,1112.5C 1290,1106.13 1289.33,1099.8 1288,1093.5C 1275.38,1084.76 1261.54,1081.43 1246.5,1083.5C 1223.96,1086.19 1209.79,1098.52 1204,1120.5C 1200.42,1137.77 1203.42,1153.77 1213,1168.5C 1217.1,1173.11 1221.6,1177.11 1226.5,1180.5C 1216.22,1189.11 1206.55,1198.45 1197.5,1208.5C 1196.17,1208.5 1194.83,1208.5 1193.5,1208.5C 1193.5,1209.83 1193.5,1211.17 1193.5,1212.5C 1184.83,1220.83 1176.17,1229.17 1167.5,1237.5C 1167.5,1229.5 1167.5,1221.5 1167.5,1213.5C 1170.5,1213.5 1173.5,1213.5 1176.5,1213.5C 1176.5,1211.83 1176.5,1210.17 1176.5,1208.5C 1168.98,1208.18 1161.65,1208.51 1154.5,1209.5C 1154.5,1210.5 1154.5,1211.5 1154.5,1212.5C 1156.95,1213.47 1159.61,1213.81 1162.5,1213.5C 1162.5,1223.5 1162.5,1233.5 1162.5,1243.5C 910.167,1495.17 658.167,1747.17 406.5,1999.5C 338.833,1999.5 271.167,1999.5 203.5,1999.5C 454.194,1748.14 705.194,1497.14 956.5,1246.5C 958.246,1243.13 959.912,1239.63 961.5,1236C 967.196,1235.17 972.863,1235.34 978.5,1236.5C 979.569,1239.54 980.735,1242.54 982,1245.5C 983.494,1246.75 984.994,1246.75 986.5,1245.5C 983.545,1239.26 980.878,1232.93 978.5,1226.5C 978.351,1225.45 978.517,1224.45 979,1223.5C 991.702,1210.97 1004.2,1198.3 1016.5,1185.5C 1026.01,1185.83 1035.35,1185.49 1044.5,1184.5C 1047,1177.17 1049.17,1169.84 1051,1162.5C 1046.22,1175.98 1036.72,1181.98 1022.5,1180.5C 1046.83,1155.16 1071.5,1130.83 1096.5,1107.5C 1087.63,1129.58 1078.46,1151.58 1069,1173.5C 1066.93,1178.41 1063.43,1181.74 1058.5,1183.5C 1057.32,1183.28 1056.32,1183.61 1055.5,1184.5C 1064.83,1185.83 1074.17,1185.83 1083.5,1184.5C 1082.68,1183.61 1081.68,1183.28 1080.5,1183.5C 1078.2,1182.37 1076.87,1180.53 1076.5,1178C 1079.61,1168.85 1082.61,1159.68 1085.5,1150.5C 1098.83,1150.5 1112.17,1150.5 1125.5,1150.5C 1128.42,1158.1 1131.26,1165.77 1134,1173.5C 1135.42,1177.87 1134.25,1181.21 1130.5,1183.5C 1129.32,1183.28 1128.32,1183.61 1127.5,1184.5C 1138.17,1185.83 1148.83,1185.83 1159.5,1184.5C 1158.68,1183.61 1157.68,1183.28 1156.5,1183.5C 1153.01,1182.52 1150.18,1180.52 1148,1177.5C 1136.78,1151.74 1125.62,1126.08 1114.5,1100.5C 1113.7,1097.43 1112.7,1094.43 1111.5,1091.5C 1406.81,794.527 1702.81,498.194 1999.5,202.5 Z"/></g>
<g><path style="opacity:1" fill="#310d16" d="M 1999.5,405.5 C 1999.5,416.167 1999.5,426.833 1999.5,437.5C 1783.83,652.5 1568.5,867.833 1353.5,1083.5C 1352.14,1084.59 1351.14,1085.92 1350.5,1087.5C 1331.5,1104.83 1312.83,1123.16 1294.5,1142.5C 1292.7,1152.38 1289.2,1161.71 1284,1170.5C 1277.85,1176.99 1270.35,1180.99 1261.5,1182.5C 1250.47,1183.97 1240.47,1181.63 1231.5,1175.5C 1231.37,1174.76 1231.54,1174.09 1232,1173.5C 1488.06,917.605 1743.89,661.605 1999.5,405.5 Z"/></g>
<g><path style="opacity:1" fill="#2e0b14" d="M 1999.5,437.5 C 1999.5,510.5 1999.5,583.5 1999.5,656.5C 1856.5,798.833 1713.83,941.5 1571.5,1084.5C 1569.82,1084.29 1568.82,1084.95 1568.5,1086.5C 1564.4,1090.59 1560.73,1094.92 1557.5,1099.5C 1557.5,1093.83 1557.5,1088.17 1557.5,1082.5C 1543.24,1084.07 1528.9,1084.73 1514.5,1084.5C 1503.5,1084.33 1492.5,1084.17 1481.5,1084C 1479.19,1083.34 1476.85,1082.84 1474.5,1082.5C 1474.33,1088.18 1474.5,1093.84 1475,1099.5C 1474.92,1095.15 1476.75,1091.99 1480.5,1090C 1490.83,1089.5 1501.16,1089.33 1511.5,1089.5C 1511.5,1107.83 1511.5,1126.17 1511.5,1144.5C 1482.5,1172.83 1453.83,1201.5 1425.5,1230.5C 1398.5,1230.5 1371.5,1230.5 1344.5,1230.5C 1344.23,1232.1 1344.57,1233.43 1345.5,1234.5C 1357.5,1234.5 1369.5,1234.5 1381.5,1234.5C 1394.5,1234.5 1407.5,1234.5 1420.5,1234.5C 1165.83,1489.5 911.167,1744.5 656.5,1999.5C 583.833,1999.5 511.167,1999.5 438.5,1999.5C 689.473,1746.86 941.139,1494.86 1193.5,1243.5C 1193.5,1244.83 1193.5,1246.17 1193.5,1247.5C 1195.17,1247.5 1196.83,1247.5 1198.5,1247.5C 1198.83,1234.32 1198.5,1221.32 1197.5,1208.5C 1206.55,1198.45 1216.22,1189.11 1226.5,1180.5C 1237.84,1186 1249.84,1188 1262.5,1186.5C 1287.48,1181.78 1298.15,1167.12 1294.5,1142.5C 1312.83,1123.16 1331.5,1104.83 1350.5,1087.5C 1349.51,1090.82 1348.51,1094.16 1347.5,1097.5C 1336.07,1123.36 1324.91,1149.36 1314,1175.5C 1311.76,1179.92 1308.26,1182.59 1303.5,1183.5C 1302.62,1183.37 1301.96,1183.7 1301.5,1184.5C 1310.83,1185.83 1320.17,1185.83 1329.5,1184.5C 1328.68,1183.61 1327.68,1183.28 1326.5,1183.5C 1322.83,1181.61 1321.66,1178.61 1323,1174.5C 1325.94,1166.3 1329.11,1158.3 1332.5,1150.5C 1345.52,1150.17 1358.52,1150.5 1371.5,1151.5C 1374.9,1160.04 1377.9,1168.71 1380.5,1177.5C 1380.28,1180.72 1378.61,1182.72 1375.5,1183.5C 1374.62,1183.37 1373.96,1183.7 1373.5,1184.5C 1384.17,1185.83 1394.83,1185.83 1405.5,1184.5C 1404.68,1183.61 1403.68,1183.28 1402.5,1183.5C 1396.62,1182.12 1392.78,1178.45 1391,1172.5C 1378.48,1142.81 1365.98,1113.14 1353.5,1083.5C 1568.5,867.833 1783.83,652.5 1999.5,437.5 Z"/></g>
<g><path style="opacity:1" fill="#2b0b13" d="M 1999.5,656.5 C 1999.5,672.167 1999.5,687.833 1999.5,703.5C 1871.45,830.548 1744.12,958.215 1617.5,1086.5C 1615.28,1085.63 1612.95,1085.3 1610.5,1085.5C 1597.68,1084.5 1584.68,1084.17 1571.5,1084.5C 1713.83,941.5 1856.5,798.833 1999.5,656.5 Z"/></g>
<g><path style="opacity:1" fill="#280a11" d="M 1999.5,703.5 C 1999.5,771.167 1999.5,838.833 1999.5,906.5C 1921.03,984.465 1842.7,1062.63 1764.5,1141C 1763.91,1141.46 1763.24,1141.63 1762.5,1141.5C 1765.26,1117.52 1756.26,1099.69 1735.5,1088C 1729.8,1085.29 1723.8,1083.79 1717.5,1083.5C 1696.12,1080.94 1679.29,1088.6 1667,1106.5C 1656.06,1128.28 1657.39,1149.28 1671,1169.5C 1681.25,1181.04 1694.08,1186.71 1709.5,1186.5C 1712.17,1186.5 1714.83,1186.5 1717.5,1186.5C 1717.63,1187.24 1717.46,1187.91 1717,1188.5C 1702.96,1202.37 1689.13,1216.37 1675.5,1230.5C 1592.17,1230.5 1508.83,1230.5 1425.5,1230.5C 1453.83,1201.5 1482.5,1172.83 1511.5,1144.5C 1511.67,1155.17 1511.5,1165.84 1511,1176.5C 1509.92,1180.42 1507.42,1182.75 1503.5,1183.5C 1502.32,1183.28 1501.32,1183.61 1500.5,1184.5C 1510.83,1185.83 1521.17,1185.83 1531.5,1184.5C 1530.31,1183.57 1528.98,1183.24 1527.5,1183.5C 1524.8,1183.33 1523.13,1182 1522.5,1179.5C 1541.5,1160.83 1560.5,1142.17 1579.5,1123.5C 1579.67,1141.5 1579.5,1159.5 1579,1177.5C 1577.52,1180.82 1575.02,1182.82 1571.5,1183.5C 1570.32,1183.28 1569.32,1183.61 1568.5,1184.5C 1578.83,1185.83 1589.17,1185.83 1599.5,1184.5C 1598.31,1183.57 1596.98,1183.24 1595.5,1183.5C 1592.5,1182.5 1590.5,1180.5 1589.5,1177.5C 1589.5,1148.17 1589.5,1118.83 1589.5,1089.5C 1595.83,1089.5 1602.17,1089.5 1608.5,1089.5C 1616.08,1091.25 1620.92,1095.92 1623,1103.5C 1626.29,1126.05 1616.46,1136.72 1593.5,1135.5C 1598.27,1136.77 1602.11,1139.43 1605,1143.5C 1612.89,1155.45 1621.39,1166.95 1630.5,1178C 1634.79,1181.81 1639.79,1183.98 1645.5,1184.5C 1649.35,1185.81 1653.35,1185.81 1657.5,1184.5C 1657.38,1183.89 1657.04,1183.56 1656.5,1183.5C 1655.13,1183.66 1653.79,1183.49 1652.5,1183C 1644.53,1179.26 1638.03,1173.76 1633,1166.5C 1626.68,1156.7 1619.51,1147.53 1611.5,1139C 1623.88,1136.95 1631.38,1129.79 1634,1117.5C 1636.83,1102.49 1631.33,1092.16 1617.5,1086.5C 1744.12,958.215 1871.45,830.548 1999.5,703.5 Z"/></g>
<g><path style="opacity:1" fill="#b49b68" d="M 947.5,750.5 C 955.507,750.334 963.507,750.5 971.5,751C 972.71,752.039 973.71,753.206 974.5,754.5C 962.484,754.39 950.484,754.723 938.5,755.5C 936.964,752.908 934.631,751.908 931.5,752.5C 936.583,750.922 941.916,750.255 947.5,750.5 Z"/></g>
<g><path style="opacity:1" fill="#917547" d="M 947.5,750.5 C 968.523,748.472 989.19,750.472 1009.5,756.5C 1011.86,757.865 1013.53,759.865 1014.5,762.5C 1001.46,758.327 988.129,755.661 974.5,754.5C 973.71,753.206 972.71,752.039 971.5,751C 963.507,750.5 955.507,750.334 947.5,750.5 Z"/></g>
<g><path style="opacity:1" fill="#b19665" d="M 1009.5,756.5 C 1024.22,759.573 1038.06,764.906 1051,772.5C 1051.99,777.84 1049.82,780.34 1044.5,780C 1035.85,771.843 1025.85,766.01 1014.5,762.5C 1013.53,759.865 1011.86,757.865 1009.5,756.5 Z"/></g>
<g><path style="opacity:1" fill="#e2c996" d="M 931.5,752.5 C 934.631,751.908 936.964,752.908 938.5,755.5C 915.231,758.689 894.898,768.023 877.5,783.5C 875.184,782.578 873.517,780.911 872.5,778.5C 889.526,764.16 909.193,755.493 931.5,752.5 Z"/></g>
<g><path style="opacity:1" fill="#fcfbfb" d="M 1035.5,839.5 C 1034.83,839.5 1034.5,839.833 1034.5,840.5C 1026.27,846.459 1018.61,853.125 1011.5,860.5C 1011.96,840.433 1011.46,820.433 1010,800.5C 1004.44,789.964 995.606,784.964 983.5,785.5C 983.5,784.5 983.5,783.5 983.5,782.5C 1010.17,782.5 1036.83,782.5 1063.5,782.5C 1063.5,783.5 1063.5,784.5 1063.5,785.5C 1050.41,784.956 1041.24,790.623 1036,802.5C 1035.5,814.829 1035.33,827.162 1035.5,839.5 Z"/></g>
<g><path style="opacity:1" fill="#b79d6b" d="M 872.5,778.5 C 873.517,780.911 875.184,782.578 877.5,783.5C 869.654,791.335 862.987,800.002 857.5,809.5C 854.833,807.827 852.833,805.493 851.5,802.5C 856.351,792.647 863.351,784.647 872.5,778.5 Z"/></g>
<g><path style="opacity:1" fill="#f0d8a4" d="M 1131.5,858.5 C 1127.15,858.146 1125.49,855.813 1126.5,851.5C 1127.55,844.87 1127.71,838.203 1127,831.5C 1125.37,827.069 1122.87,823.236 1119.5,820C 1109.06,814.08 1098.06,812.913 1086.5,816.5C 1085.08,816.25 1084.08,815.417 1083.5,814C 1084.45,813.383 1085.28,813.549 1086,814.5C 1086.51,813.473 1087.01,812.473 1087.5,811.5C 1097.96,808.644 1108.63,807.811 1119.5,809C 1124.74,810.239 1128.91,813.072 1132,817.5C 1138.03,831.208 1137.86,844.874 1131.5,858.5 Z"/></g>
<g><path style="opacity:1" fill="#a28856" d="M 851.5,802.5 C 852.833,805.493 854.833,807.827 857.5,809.5C 853.211,818.703 850.544,828.37 849.5,838.5C 846.777,835.414 844.277,832.08 842,828.5C 841.329,829.252 840.496,829.586 839.5,829.5C 841.627,819.586 845.627,810.586 851.5,802.5 Z"/></g>
<g><path style="opacity:1" fill="#b19767" d="M 1087.5,811.5 C 1087.01,812.473 1086.51,813.473 1086,814.5C 1085.28,813.549 1084.45,813.383 1083.5,814C 1084.08,815.417 1085.08,816.25 1086.5,816.5C 1080.82,818.161 1075.15,820.161 1069.5,822.5C 1068.09,822.027 1067.43,821.027 1067.5,819.5C 1073.92,816.247 1080.59,813.581 1087.5,811.5 Z"/></g>
<g><path style="opacity:1" fill="#957a4a" d="M 1067.5,819.5 C 1067.43,821.027 1068.09,822.027 1069.5,822.5C 1057.69,828.965 1046.69,836.632 1036.5,845.5C 1035.56,843.95 1034.89,842.284 1034.5,840.5C 1034.5,839.833 1034.83,839.5 1035.5,839.5C 1036.83,838.833 1037.83,837.833 1038.5,836.5C 1047.89,830.462 1057.56,824.795 1067.5,819.5 Z"/></g>
<g><path style="opacity:1" fill="#fcfcfc" d="M 1035.5,846.5 C 1035.5,884.5 1035.5,922.5 1035.5,960.5C 1025.74,970.606 1018.4,982.272 1013.5,995.5C 1012.5,954.003 1012.17,912.337 1012.5,870.5C 1019.47,861.867 1027.13,853.867 1035.5,846.5 Z"/></g>
<g><path style="opacity:1" fill="#bba16f" d="M 849.5,838.5 C 849.156,875.16 864.823,902.494 896.5,920.5C 897.3,922.682 898.8,924.349 901,925.5C 902.454,927.244 902.621,928.911 901.5,930.5C 855.16,912.511 834.493,878.844 839.5,829.5C 840.496,829.586 841.329,829.252 842,828.5C 844.277,832.08 846.777,835.414 849.5,838.5 Z"/></g>
<g><path style="opacity:1" fill="#d1b886" d="M 1126.5,851.5 C 1125.49,855.813 1127.15,858.146 1131.5,858.5C 1129.29,864.35 1126.29,869.684 1122.5,874.5C 1120.62,873.105 1119.62,871.105 1119.5,868.5C 1122.15,862.874 1124.49,857.207 1126.5,851.5 Z"/></g>
<g><path style="opacity:1" fill="#e6e0e2" d="M 1012.5,870.5 C 1012.17,912.337 1012.5,954.003 1013.5,995.5C 1013.07,996.71 1012.4,997.71 1011.5,998.5C 1011.5,956.167 1011.5,913.833 1011.5,871.5C 1011.5,870.833 1011.83,870.5 1012.5,870.5 Z"/></g>
<g><path style="opacity:1" fill="#3d101c" d="M 1011.5,871.5 C 1011.5,913.833 1011.5,956.167 1011.5,998.5C 1011.5,999.5 1011.5,1000.5 1011.5,1001.5C 1008.46,1008.77 1006.8,1016.43 1006.5,1024.5C 999.656,1030.21 991.99,1033.54 983.5,1034.5C 977.65,1029.64 973.316,1023.64 970.5,1016.5C 961.196,991.808 961.196,967.141 970.5,942.5C 983.54,942.531 996.54,941.865 1009.5,940.5C 1009.5,938.833 1009.5,937.167 1009.5,935.5C 997.208,937.426 984.875,937.759 972.5,936.5C 975.3,928.903 978.633,921.569 982.5,914.5C 990.446,898.921 1000.11,884.587 1011.5,871.5 Z"/></g>
<g><path style="opacity:1" fill="#9c8251" d="M 1119.5,868.5 C 1119.62,871.105 1120.62,873.105 1122.5,874.5C 1111.43,890.903 1097.43,904.236 1080.5,914.5C 1080.77,912.62 1080.1,911.287 1078.5,910.5C 1095.55,899.786 1109.21,885.786 1119.5,868.5 Z"/></g>
<g><path style="opacity:1" fill="#ddc491" d="M 1034.5,840.5 C 1034.89,842.284 1035.56,843.95 1036.5,845.5C 1035.83,845.5 1035.5,845.833 1035.5,846.5C 1027.13,853.867 1019.47,861.867 1012.5,870.5C 1011.83,870.5 1011.5,870.833 1011.5,871.5C 1000.11,884.587 990.446,898.921 982.5,914.5C 981.504,914.586 980.671,914.252 980,913.5C 978.121,911.473 976.954,909.14 976.5,906.5C 986.632,890.03 998.299,874.697 1011.5,860.5C 1018.61,853.125 1026.27,846.459 1034.5,840.5 Z"/></g>
<g><path style="opacity:1" fill="#22080e" d="M 1999.5,906.5 C 1999.5,989.833 1999.5,1073.17 1999.5,1156.5C 1718.14,1436.86 1437.47,1717.86 1157.5,1999.5C 1074.17,1999.5 990.833,1999.5 907.5,1999.5C 911.83,1995 915.997,1990.34 920,1985.5C 1170.37,1735.3 1420.53,1484.97 1670.5,1234.5C 1689.83,1234.5 1709.17,1234.5 1728.5,1234.5C 1739.83,1234.5 1751.17,1234.5 1762.5,1234.5C 1762.5,1233.5 1762.5,1232.5 1762.5,1231.5C 1733.67,1230.5 1704.67,1230.17 1675.5,1230.5C 1689.13,1216.37 1702.96,1202.37 1717,1188.5C 1717.46,1187.91 1717.63,1187.24 1717.5,1186.5C 1744.13,1183.21 1759.13,1168.21 1762.5,1141.5C 1763.24,1141.63 1763.91,1141.46 1764.5,1141C 1842.7,1062.63 1921.03,984.465 1999.5,906.5 Z"/></g>
<g><path style="opacity:1" fill="#c3aa77" d="M 976.5,906.5 C 976.954,909.14 978.121,911.473 980,913.5C 980.671,914.252 981.504,914.586 982.5,914.5C 978.633,921.569 975.3,928.903 972.5,936.5C 984.875,937.759 997.208,937.426 1009.5,935.5C 1009.5,937.167 1009.5,938.833 1009.5,940.5C 996.54,941.865 983.54,942.531 970.5,942.5C 967.906,938.974 965.573,935.308 963.5,931.5C 967.057,922.718 971.39,914.385 976.5,906.5 Z"/></g>
<g><path style="opacity:1" fill="#ceb483" d="M 1078.5,910.5 C 1080.1,911.287 1080.77,912.62 1080.5,914.5C 1067.3,922.43 1053.3,928.764 1038.5,933.5C 1037.55,931.955 1037.21,930.288 1037.5,928.5C 1052.04,924.396 1065.7,918.396 1078.5,910.5 Z"/></g>
<g><path style="opacity:1" fill="#3b0f1b" d="M 933.5,940.5 C 941.945,940.597 950.278,941.597 958.5,943.5C 951.795,961.868 950.128,980.534 953.5,999.5C 955.023,1015.05 961.69,1027.88 973.5,1038C 977.975,1041.57 982.975,1044.07 988.5,1045.5C 990.562,1046.78 992.896,1047.61 995.5,1048C 1000.15,1048.5 1004.82,1048.67 1009.5,1048.5C 1013,1065.19 1021.34,1078.85 1034.5,1089.5C 1024.83,1098.83 1015.17,1108.17 1005.5,1117.5C 1005.33,1108.83 1005.5,1100.16 1006,1091.5C 1007.08,1088.92 1008.91,1087.25 1011.5,1086.5C 1013.29,1086.79 1014.95,1086.45 1016.5,1085.5C 1006.17,1084.17 995.833,1084.17 985.5,1085.5C 986.325,1086.39 987.325,1086.72 988.5,1086.5C 992.09,1087.59 994.59,1089.92 996,1093.5C 996.83,1121.34 996.664,1149 995.5,1176.5C 995.667,1160.5 995.5,1144.5 995,1128.5C 977.632,1145.7 960.465,1163.03 943.5,1180.5C 937.167,1180.5 930.833,1180.5 924.5,1180.5C 924.5,1166.5 924.5,1152.5 924.5,1138.5C 933.167,1138.5 941.833,1138.5 950.5,1138.5C 954.036,1139.88 955.87,1142.55 956,1146.5C 956.667,1139.17 956.667,1131.83 956,1124.5C 955.595,1127.78 954.095,1130.28 951.5,1132C 942.506,1132.5 933.506,1132.67 924.5,1132.5C 924.5,1118.17 924.5,1103.83 924.5,1089.5C 934.839,1089.33 945.172,1089.5 955.5,1090C 959.521,1091.87 961.687,1095.03 962,1099.5C 962.499,1093.84 962.666,1088.18 962.5,1082.5C 957.883,1083.49 953.216,1084.15 948.5,1084.5C 933.818,1084.17 919.152,1084.5 904.5,1085.5C 905.325,1086.39 906.325,1086.72 907.5,1086.5C 911.286,1087.36 913.786,1089.7 915,1093.5C 915.667,1121.17 915.667,1148.83 915,1176.5C 913.59,1180.08 911.09,1182.41 907.5,1183.5C 906.325,1183.28 905.325,1183.61 904.5,1184.5C 915.48,1185.5 926.48,1185.83 937.5,1185.5C 928.167,1195.5 918.5,1205.17 908.5,1214.5C 902.284,1209.79 895.284,1208.29 887.5,1210C 877.386,1214.73 873.553,1222.56 876,1233.5C 876.837,1237.16 878.67,1240.16 881.5,1242.5C 629.527,1494.81 377.527,1747.14 125.5,1999.5C 83.5,1999.5 41.5,1999.5 -0.5,1999.5C -0.5,1957.83 -0.5,1916.17 -0.5,1874.5C 213.194,1661.81 426.194,1448.47 638.5,1234.5C 643.5,1234.5 648.5,1234.5 653.5,1234.5C 654.434,1233.43 654.768,1232.1 654.5,1230.5C 650.833,1230.5 647.167,1230.5 643.5,1230.5C 658.167,1215.5 672.833,1200.5 687.5,1185.5C 693.805,1182.53 698.472,1177.86 701.5,1171.5C 714.132,1159.37 726.632,1147.04 739,1134.5C 739.464,1135.09 739.631,1135.76 739.5,1136.5C 734.16,1150.35 728.326,1164.01 722,1177.5C 719.823,1180.52 716.989,1182.52 713.5,1183.5C 712.325,1183.28 711.325,1183.61 710.5,1184.5C 719.833,1185.83 729.167,1185.83 738.5,1184.5C 737.675,1183.61 736.675,1183.28 735.5,1183.5C 733.201,1182.37 731.868,1180.53 731.5,1178C 734.465,1168.6 737.798,1159.43 741.5,1150.5C 754.504,1150.33 767.504,1150.5 780.5,1151C 783.525,1158.41 786.358,1165.91 789,1173.5C 790.419,1177.92 789.252,1181.25 785.5,1183.5C 784.325,1183.28 783.325,1183.61 782.5,1184.5C 793.167,1185.83 803.833,1185.83 814.5,1184.5C 813.675,1183.61 812.675,1183.28 811.5,1183.5C 805.846,1181.34 802.012,1177.34 800,1171.5C 790.198,1148.59 780.698,1125.59 771.5,1102.5C 825.167,1048.17 879.167,994.167 933.5,940.5 Z"/></g>
<g><path style="opacity:1" fill="#a88e5c" d="M 896.5,920.5 C 916.538,931.018 937.871,936.518 960.5,937C 961.229,934.942 962.229,933.109 963.5,931.5C 965.573,935.308 967.906,938.974 970.5,942.5C 961.196,967.141 961.196,991.808 970.5,1016.5C 964.524,1011.01 959.358,1004.67 955,997.5C 954.667,997.167 954.333,996.833 954,996.5C 953.517,997.448 953.351,998.448 953.5,999.5C 950.128,980.534 951.795,961.868 958.5,943.5C 950.278,941.597 941.945,940.597 933.5,940.5C 922.534,938.178 911.868,934.845 901.5,930.5C 902.621,928.911 902.454,927.244 901,925.5C 898.8,924.349 897.3,922.682 896.5,920.5 Z"/></g>
<g><path style="opacity:1" fill="#d6bd8b" d="M 1089.5,982.5 C 1087.69,980.236 1085.85,977.903 1084,975.5C 1083.77,976.737 1083.27,977.737 1082.5,978.5C 1083.44,973.195 1083.61,967.861 1083,962.5C 1081.2,957.04 1077.7,953.207 1072.5,951C 1057.14,950.346 1044.81,956.18 1035.5,968.5C 1025.9,979.696 1018.9,992.363 1014.5,1006.5C 1013.08,1005.08 1012.08,1003.41 1011.5,1001.5C 1011.5,1000.5 1011.5,999.5 1011.5,998.5C 1012.4,997.71 1013.07,996.71 1013.5,995.5C 1018.4,982.272 1025.74,970.606 1035.5,960.5C 1038.67,957.502 1042,954.669 1045.5,952C 1056.2,944.525 1067.86,942.525 1080.5,946C 1082.96,947.458 1085.13,949.291 1087,951.5C 1092.01,961.597 1092.84,971.93 1089.5,982.5 Z"/></g>
<g><path style="opacity:1" fill="#fcfbfb" d="M 1035.5,968.5 C 1035.33,984.17 1035.5,999.837 1036,1015.5C 1040.73,1027.61 1049.56,1033.28 1062.5,1032.5C 1062.5,1033.5 1062.5,1034.5 1062.5,1035.5C 1045.83,1035.5 1029.17,1035.5 1012.5,1035.5C 1012.5,1030.5 1012.5,1025.5 1012.5,1020.5C 1012.85,1015.78 1013.51,1011.12 1014.5,1006.5C 1018.9,992.363 1025.9,979.696 1035.5,968.5 Z"/></g>
<g><path style="opacity:1" fill="#b79e6b" d="M 970.5,1016.5 C 973.316,1023.64 977.65,1029.64 983.5,1034.5C 983.833,1035.5 984.5,1036.17 985.5,1036.5C 986.47,1039.66 988.137,1042.49 990.5,1045C 989.906,1045.46 989.239,1045.63 988.5,1045.5C 982.975,1044.07 977.975,1041.57 973.5,1038C 961.69,1027.88 955.023,1015.05 953.5,999.5C 953.351,998.448 953.517,997.448 954,996.5C 954.333,996.833 954.667,997.167 955,997.5C 959.358,1004.67 964.524,1011.01 970.5,1016.5 Z"/></g>
<g><path style="opacity:1" fill="#e5cd9a" d="M 1089.5,982.5 C 1085.69,998.464 1078.02,1012.13 1066.5,1023.5C 1064.74,1022.67 1063.4,1021.34 1062.5,1019.5C 1072.97,1007.77 1079.64,994.104 1082.5,978.5C 1083.27,977.737 1083.77,976.737 1084,975.5C 1085.85,977.903 1087.69,980.236 1089.5,982.5 Z"/></g>
<g><path style="opacity:1" fill="#c7ae7d" d="M 1062.5,1019.5 C 1063.4,1021.34 1064.74,1022.67 1066.5,1023.5C 1063.13,1029.12 1058.46,1030.95 1052.5,1029C 1056.36,1026.3 1059.69,1023.14 1062.5,1019.5 Z"/></g>
<g><path style="opacity:1" fill="#f4f1f2" d="M 1006.5,1024.5 C 1006.5,1028.5 1006.5,1032.5 1006.5,1036.5C 999.833,1036.5 993.167,1036.5 986.5,1036.5C 986.167,1036.5 985.833,1036.5 985.5,1036.5C 984.5,1036.17 983.833,1035.5 983.5,1034.5C 991.99,1033.54 999.656,1030.21 1006.5,1024.5 Z"/></g>
<g><path style="opacity:1" fill="#cec3c2" d="M 1012.5,1020.5 C 1012.5,1025.5 1012.5,1030.5 1012.5,1035.5C 1029.17,1035.5 1045.83,1035.5 1062.5,1035.5C 1062.5,1034.5 1062.5,1033.5 1062.5,1032.5C 1063.43,1033.57 1063.77,1034.9 1063.5,1036.5C 1046.5,1036.5 1029.5,1036.5 1012.5,1036.5C 1011.17,1031.17 1011.17,1025.83 1012.5,1020.5 Z"/></g>
<g><path style="opacity:1" fill="#a58a5a" d="M 1011.5,1001.5 C 1012.08,1003.41 1013.08,1005.08 1014.5,1006.5C 1013.51,1011.12 1012.85,1015.78 1012.5,1020.5C 1011.17,1025.83 1011.17,1031.17 1012.5,1036.5C 1012.5,1039.17 1012.5,1041.83 1012.5,1044.5C 1020.79,1043.93 1028.79,1042.09 1036.5,1039C 1039.83,1038.33 1043.17,1038.33 1046.5,1039C 1035.99,1044 1024.99,1047.5 1013.5,1049.5C 1017.53,1064.51 1025.53,1076.84 1037.5,1086.5C 1040.7,1088.35 1042.7,1091.02 1043.5,1094.5C 1040.09,1093.63 1037.09,1091.96 1034.5,1089.5C 1021.34,1078.85 1013,1065.19 1009.5,1048.5C 1004.82,1048.67 1000.15,1048.5 995.5,1048C 992.896,1047.61 990.562,1046.78 988.5,1045.5C 989.239,1045.63 989.906,1045.46 990.5,1045C 988.137,1042.49 986.47,1039.66 985.5,1036.5C 985.833,1036.5 986.167,1036.5 986.5,1036.5C 992.449,1041.63 999.449,1044.3 1007.5,1044.5C 1007.81,1041.61 1007.47,1038.95 1006.5,1036.5C 1006.5,1032.5 1006.5,1028.5 1006.5,1024.5C 1006.8,1016.43 1008.46,1008.77 1011.5,1001.5 Z"/></g>
<g><path style="opacity:1" fill="#3f151d" d="M 986.5,1036.5 C 993.167,1036.5 999.833,1036.5 1006.5,1036.5C 1007.47,1038.95 1007.81,1041.61 1007.5,1044.5C 999.449,1044.3 992.449,1041.63 986.5,1036.5 Z"/></g>
<g><path style="opacity:1" fill="#744c39" d="M 291.5,1085.5 C 283.833,1085.5 276.167,1085.5 268.5,1085.5C 258.985,1085.17 249.652,1085.51 240.5,1086.5C 239.325,1086.72 238.325,1086.39 237.5,1085.5C 255.662,1084.17 273.662,1084.17 291.5,1085.5 Z"/></g>
<g><path style="opacity:1" fill="#855e4a" d="M 391.5,1085.5 C 384.833,1085.5 378.167,1085.5 371.5,1085.5C 364.978,1085.18 358.645,1085.51 352.5,1086.5C 351.325,1086.72 350.325,1086.39 349.5,1085.5C 363.661,1084.17 377.661,1084.17 391.5,1085.5 Z"/></g>
<g><path style="opacity:1" fill="#99755f" d="M 631.5,1086.5 C 623.5,1085.17 615.5,1085.17 607.5,1086.5C 606.325,1086.72 605.325,1086.39 604.5,1085.5C 614.833,1084.17 625.167,1084.17 635.5,1085.5C 634.311,1086.43 632.978,1086.76 631.5,1086.5 Z"/></g>
<g><path style="opacity:1" fill="#74513c" d="M 856.5,1085.5 C 845.986,1085.17 835.653,1085.51 825.5,1086.5C 824.325,1086.72 823.325,1086.39 822.5,1085.5C 833.993,1084.18 845.326,1084.18 856.5,1085.5 Z"/></g>
<g><path style="opacity:1" fill="#77553f" d="M 948.5,1084.5 C 934.833,1085.17 921.167,1085.83 907.5,1086.5C 906.325,1086.72 905.325,1086.39 904.5,1085.5C 919.152,1084.5 933.818,1084.17 948.5,1084.5 Z"/></g>
<g><path style="opacity:1" fill="#805f48" d="M 1011.5,1086.5 C 1003.83,1085.17 996.167,1085.17 988.5,1086.5C 987.325,1086.72 986.325,1086.39 985.5,1085.5C 995.833,1084.17 1006.17,1084.17 1016.5,1085.5C 1014.95,1086.45 1013.29,1086.79 1011.5,1086.5 Z"/></g>
<g><path style="opacity:1" fill="#55362a" d="M 1446.5,1083.5 C 1450.5,1083.5 1454.5,1083.5 1458.5,1083.5C 1458.82,1089.69 1458.49,1095.69 1457.5,1101.5C 1457.5,1095.83 1457.5,1090.17 1457.5,1084.5C 1453.63,1084.81 1449.96,1084.48 1446.5,1083.5 Z"/></g>
<g><path style="opacity:1" fill="#6d5039" d="M 1571.5,1084.5 C 1584.68,1084.17 1597.68,1084.5 1610.5,1085.5C 1603.83,1085.5 1597.17,1085.5 1590.5,1085.5C 1584.31,1085.18 1578.31,1085.51 1572.5,1086.5C 1571.17,1086.5 1569.83,1086.5 1568.5,1086.5C 1568.82,1084.95 1569.82,1084.29 1571.5,1084.5 Z"/></g>
<g><path style="opacity:1" fill="#efd8a4" d="M 1717.5,1083.5 C 1723.8,1083.79 1729.8,1085.29 1735.5,1088C 1756.26,1099.69 1765.26,1117.52 1762.5,1141.5C 1759.13,1168.21 1744.13,1183.21 1717.5,1186.5C 1714.83,1186.5 1712.17,1186.5 1709.5,1186.5C 1709.5,1185.5 1709.5,1184.5 1709.5,1183.5C 1711.74,1183.79 1713.74,1183.46 1715.5,1182.5C 1732.55,1180.29 1743.72,1170.96 1749,1154.5C 1752.33,1141.17 1752.33,1127.83 1749,1114.5C 1743.44,1099.11 1732.61,1090.11 1716.5,1087.5C 1712.7,1086.52 1708.7,1086.18 1704.5,1086.5C 1704.5,1085.5 1704.5,1084.5 1704.5,1083.5C 1708.83,1083.5 1713.17,1083.5 1717.5,1083.5 Z"/></g>
<g><path style="opacity:1" fill="#967a4a" d="M 240.5,1086.5 C 249.652,1085.51 258.985,1085.17 268.5,1085.5C 268.5,1086.5 268.5,1087.5 268.5,1088.5C 264.5,1088.5 260.5,1088.5 256.5,1088.5C 256.5,1119.5 256.5,1150.5 256.5,1181.5C 268.012,1181.83 279.346,1181.49 290.5,1180.5C 299.875,1179.15 307.875,1175.15 314.5,1168.5C 314.5,1171.17 314.5,1173.83 314.5,1176.5C 307.349,1181.39 299.349,1184.06 290.5,1184.5C 273.325,1184.83 256.325,1184.5 239.5,1183.5C 243.02,1182.82 245.52,1180.82 247,1177.5C 247.5,1165.84 247.667,1154.17 247.5,1142.5C 247.667,1125.5 247.5,1108.5 247,1091.5C 245.841,1088.51 243.675,1086.84 240.5,1086.5 Z"/></g>
<g><path style="opacity:1" fill="#b9a06c" d="M 352.5,1086.5 C 358.645,1085.51 364.978,1085.18 371.5,1085.5C 371.5,1086.5 371.5,1087.5 371.5,1088.5C 370.5,1088.5 369.5,1088.5 368.5,1088.5C 368.169,1118 368.502,1147.34 369.5,1176.5C 370.167,1180.5 372.5,1182.83 376.5,1183.5C 368.5,1184.83 360.5,1184.83 352.5,1183.5C 356.09,1182.41 358.59,1180.08 360,1176.5C 360.667,1148.83 360.667,1121.17 360,1093.5C 358.917,1089.58 356.417,1087.25 352.5,1086.5 Z"/></g>
<g><path style="opacity:1" fill="#e4cc98" d="M 607.5,1086.5 C 615.5,1085.17 623.5,1085.17 631.5,1086.5C 628.325,1086.84 626.159,1088.51 625,1091.5C 624.333,1120.17 624.333,1148.83 625,1177.5C 625.728,1181.06 627.894,1183.06 631.5,1183.5C 623.5,1184.83 615.5,1184.83 607.5,1183.5C 611.417,1182.75 613.917,1180.42 615,1176.5C 615.667,1148.83 615.667,1121.17 615,1093.5C 613.917,1089.58 611.417,1087.25 607.5,1086.5 Z"/></g>
<g><path style="opacity:1" fill="#a88e5c" d="M 825.5,1086.5 C 835.653,1085.51 845.986,1085.17 856.5,1085.5C 857.167,1085.5 857.833,1085.5 858.5,1085.5C 859.234,1086.71 859.567,1088.04 859.5,1089.5C 858.5,1089.5 857.5,1089.5 856.5,1089.5C 855.833,1089.5 855.167,1089.5 854.5,1089.5C 850.366,1088.52 846.032,1088.18 841.5,1088.5C 841.169,1119 841.502,1149.34 842.5,1179.5C 849.5,1179.5 856.5,1179.5 863.5,1179.5C 863.5,1181.17 863.5,1182.83 863.5,1184.5C 862.5,1184.5 861.5,1184.5 860.5,1184.5C 848.655,1184.83 836.988,1184.49 825.5,1183.5C 829.153,1182.01 831.653,1179.34 833,1175.5C 833.667,1147.83 833.667,1120.17 833,1092.5C 831.52,1089.18 829.02,1087.18 825.5,1086.5 Z"/></g>
<g><path style="opacity:1" fill="#a78c5c" d="M 950.5,1138.5 C 941.682,1137.51 932.682,1137.17 923.5,1137.5C 923.171,1152.01 923.504,1166.34 924.5,1180.5C 930.833,1180.5 937.167,1180.5 943.5,1180.5C 956.748,1181.1 965.581,1175.1 970,1162.5C 968.564,1169.98 966.397,1177.32 963.5,1184.5C 944.659,1184.83 925.993,1184.5 907.5,1183.5C 911.09,1182.41 913.59,1180.08 915,1176.5C 915.667,1148.83 915.667,1121.17 915,1093.5C 913.786,1089.7 911.286,1087.36 907.5,1086.5C 921.167,1085.83 934.833,1085.17 948.5,1084.5C 953.216,1084.15 957.883,1083.49 962.5,1082.5C 962.666,1088.18 962.499,1093.84 962,1099.5C 961.687,1095.03 959.521,1091.87 955.5,1090C 945.172,1089.5 934.839,1089.33 924.5,1089.5C 924.5,1103.83 924.5,1118.17 924.5,1132.5C 933.506,1132.67 942.506,1132.5 951.5,1132C 954.095,1130.28 955.595,1127.78 956,1124.5C 956.667,1131.83 956.667,1139.17 956,1146.5C 955.87,1142.55 954.036,1139.88 950.5,1138.5 Z"/></g>
<g><path style="opacity:1" fill="#bba270" d="M 988.5,1086.5 C 996.167,1085.17 1003.83,1085.17 1011.5,1086.5C 1008.91,1087.25 1007.08,1088.92 1006,1091.5C 1005.5,1100.16 1005.33,1108.83 1005.5,1117.5C 1005.5,1138.5 1005.5,1159.5 1005.5,1180.5C 1011.17,1180.5 1016.83,1180.5 1022.5,1180.5C 1036.72,1181.98 1046.22,1175.98 1051,1162.5C 1049.17,1169.84 1047,1177.17 1044.5,1184.5C 1025.66,1184.83 1006.99,1184.5 988.5,1183.5C 991.833,1182.17 994.167,1179.83 995.5,1176.5C 996.664,1149 996.83,1121.34 996,1093.5C 994.59,1089.92 992.09,1087.59 988.5,1086.5 Z"/></g>
<g><path style="opacity:1" fill="#907645" d="M 1557.5,1099.5 C 1555.78,1097.64 1554.62,1095.3 1554,1092.5C 1552.79,1090.95 1551.29,1089.78 1549.5,1089C 1539.84,1088.5 1530.17,1088.33 1520.5,1088.5C 1520.33,1118.17 1520.5,1147.84 1521,1177.5C 1521.28,1178.42 1521.78,1179.08 1522.5,1179.5C 1523.13,1182 1524.8,1183.33 1527.5,1183.5C 1519.5,1184.83 1511.5,1184.83 1503.5,1183.5C 1507.42,1182.75 1509.92,1180.42 1511,1176.5C 1511.5,1165.84 1511.67,1155.17 1511.5,1144.5C 1511.5,1126.17 1511.5,1107.83 1511.5,1089.5C 1501.16,1089.33 1490.83,1089.5 1480.5,1090C 1476.75,1091.99 1474.92,1095.15 1475,1099.5C 1474.5,1093.84 1474.33,1088.18 1474.5,1082.5C 1476.85,1082.84 1479.19,1083.34 1481.5,1084C 1492.5,1084.17 1503.5,1084.33 1514.5,1084.5C 1528.9,1084.73 1543.24,1084.07 1557.5,1082.5C 1557.5,1088.17 1557.5,1093.83 1557.5,1099.5 Z"/></g>
<g><path style="opacity:1" fill="#a18755" d="M 1572.5,1086.5 C 1578.31,1085.51 1584.31,1085.18 1590.5,1085.5C 1590.5,1086.5 1590.5,1087.5 1590.5,1088.5C 1589.17,1102.98 1588.5,1117.82 1588.5,1133C 1588.5,1148 1588.83,1162.84 1589.5,1177.5C 1590.5,1180.5 1592.5,1182.5 1595.5,1183.5C 1587.5,1184.83 1579.5,1184.83 1571.5,1183.5C 1575.02,1182.82 1577.52,1180.82 1579,1177.5C 1579.5,1159.5 1579.67,1141.5 1579.5,1123.5C 1579.67,1113.16 1579.5,1102.83 1579,1092.5C 1577.62,1089.61 1575.45,1087.61 1572.5,1086.5 Z"/></g>
<g><path style="opacity:1" fill="#2b0b13" d="M 1568.5,1086.5 C 1569.83,1086.5 1571.17,1086.5 1572.5,1086.5C 1575.45,1087.61 1577.62,1089.61 1579,1092.5C 1579.5,1102.83 1579.67,1113.16 1579.5,1123.5C 1560.5,1142.17 1541.5,1160.83 1522.5,1179.5C 1521.78,1179.08 1521.28,1178.42 1521,1177.5C 1520.5,1147.84 1520.33,1118.17 1520.5,1088.5C 1530.17,1088.33 1539.84,1088.5 1549.5,1089C 1551.29,1089.78 1552.79,1090.95 1554,1092.5C 1554.62,1095.3 1555.78,1097.64 1557.5,1099.5C 1560.73,1094.92 1564.4,1090.59 1568.5,1086.5 Z"/></g>
<g><path style="opacity:1" fill="#ccb385" d="M 1246.5,1083.5 C 1261.54,1081.43 1275.38,1084.76 1288,1093.5C 1289.33,1099.8 1290,1106.13 1290,1112.5C 1282.57,1093.03 1268.41,1084.69 1247.5,1087.5C 1250.62,1086.52 1253.96,1086.19 1257.5,1086.5C 1257.5,1085.5 1257.5,1084.5 1257.5,1083.5C 1253.83,1083.5 1250.17,1083.5 1246.5,1083.5 Z"/></g>
<g><path style="opacity:1" fill="#270a11" d="M 1716.5,1087.5 C 1732.61,1090.11 1743.44,1099.11 1749,1114.5C 1752.33,1127.83 1752.33,1141.17 1749,1154.5C 1743.72,1170.96 1732.55,1180.29 1715.5,1182.5C 1693.46,1183.62 1679.29,1173.62 1673,1152.5C 1671.08,1140.82 1671.08,1129.15 1673,1117.5C 1679.46,1095.87 1693.96,1085.87 1716.5,1087.5 Z"/></g>
<g><path style="opacity:1" fill="#6f4536" d="M 268.5,1088.5 C 276.019,1088.18 283.352,1088.51 290.5,1089.5C 279.5,1089.5 268.5,1089.5 257.5,1089.5C 257.5,1119.83 257.5,1150.17 257.5,1180.5C 268.5,1180.5 279.5,1180.5 290.5,1180.5C 279.346,1181.49 268.012,1181.83 256.5,1181.5C 256.5,1150.5 256.5,1119.5 256.5,1088.5C 260.5,1088.5 264.5,1088.5 268.5,1088.5 Z"/></g>
<g><path style="opacity:1" fill="#9a7958" d="M 371.5,1088.5 C 377.358,1088.18 383.025,1088.51 388.5,1089.5C 382.167,1089.5 375.833,1089.5 369.5,1089.5C 369.5,1118.5 369.5,1147.5 369.5,1176.5C 368.502,1147.34 368.169,1118 368.5,1088.5C 369.5,1088.5 370.5,1088.5 371.5,1088.5 Z"/></g>
<g><path style="opacity:1" fill="#78563f" d="M 854.5,1089.5 C 850.5,1089.5 846.5,1089.5 842.5,1089.5C 842.5,1119.5 842.5,1149.5 842.5,1179.5C 841.502,1149.34 841.169,1119 841.5,1088.5C 846.032,1088.18 850.366,1088.52 854.5,1089.5 Z"/></g>
<g><path style="opacity:1" fill="#3c101b" d="M 854.5,1089.5 C 855.167,1089.5 855.833,1089.5 856.5,1089.5C 862.722,1091.22 866.889,1095.22 869,1101.5C 872.808,1119.59 865.642,1129.59 847.5,1131.5C 872.498,1131.98 882.332,1144.31 877,1168.5C 874.074,1174.2 869.574,1177.87 863.5,1179.5C 856.5,1179.5 849.5,1179.5 842.5,1179.5C 842.5,1149.5 842.5,1119.5 842.5,1089.5C 846.5,1089.5 850.5,1089.5 854.5,1089.5 Z"/></g>
<g><path style="opacity:1" fill="#4b2d25" d="M 1590.5,1088.5 C 1596.69,1088.18 1602.69,1088.51 1608.5,1089.5C 1602.17,1089.5 1595.83,1089.5 1589.5,1089.5C 1589.5,1118.83 1589.5,1148.17 1589.5,1177.5C 1588.83,1162.84 1588.5,1148 1588.5,1133C 1588.5,1117.82 1589.17,1102.98 1590.5,1088.5 Z"/></g>
<g><path style="opacity:1" fill="#491321" d="M 290.5,1089.5 C 307.779,1092.61 318.946,1102.61 324,1119.5C 328.536,1137.47 325.369,1153.8 314.5,1168.5C 307.875,1175.15 299.875,1179.15 290.5,1180.5C 279.5,1180.5 268.5,1180.5 257.5,1180.5C 257.5,1150.17 257.5,1119.83 257.5,1089.5C 268.5,1089.5 279.5,1089.5 290.5,1089.5 Z"/></g>
<g><path style="opacity:1" fill="#cab07e" d="M 1347.5,1097.5 C 1348.48,1100.62 1348.81,1103.96 1348.5,1107.5C 1344.03,1120.23 1339.37,1132.9 1334.5,1145.5C 1345.65,1146.49 1356.99,1146.83 1368.5,1146.5C 1368.41,1147.5 1368.75,1148.33 1369.5,1149C 1356.99,1149.17 1344.66,1149.67 1332.5,1150.5C 1329.11,1158.3 1325.94,1166.3 1323,1174.5C 1321.66,1178.61 1322.83,1181.61 1326.5,1183.5C 1318.83,1184.83 1311.17,1184.83 1303.5,1183.5C 1308.26,1182.59 1311.76,1179.92 1314,1175.5C 1324.91,1149.36 1336.07,1123.36 1347.5,1097.5 Z"/></g>
<g><path style="opacity:1" fill="#ebd3a0" d="M 1246.5,1083.5 C 1250.17,1083.5 1253.83,1083.5 1257.5,1083.5C 1257.5,1084.5 1257.5,1085.5 1257.5,1086.5C 1253.96,1086.19 1250.62,1086.52 1247.5,1087.5C 1241.69,1087.9 1236.36,1089.73 1231.5,1093C 1216.72,1105.33 1210.55,1121.16 1213,1140.5C 1213.95,1155.08 1220.12,1166.75 1231.5,1175.5C 1240.47,1181.63 1250.47,1183.97 1261.5,1182.5C 1261.83,1183.83 1262.17,1185.17 1262.5,1186.5C 1249.84,1188 1237.84,1186 1226.5,1180.5C 1221.6,1177.11 1217.1,1173.11 1213,1168.5C 1203.42,1153.77 1200.42,1137.77 1204,1120.5C 1209.79,1098.52 1223.96,1086.19 1246.5,1083.5 Z"/></g>
<g><path style="opacity:1" fill="#aa8f5e" d="M 268.5,1085.5 C 276.167,1085.5 283.833,1085.5 291.5,1085.5C 295.557,1085.85 299.557,1086.51 303.5,1087.5C 317.688,1092.19 327.521,1101.52 333,1115.5C 336.547,1129.25 336.214,1142.92 332,1156.5C 328.693,1165.5 322.859,1172.16 314.5,1176.5C 314.5,1173.83 314.5,1171.17 314.5,1168.5C 325.369,1153.8 328.536,1137.47 324,1119.5C 318.946,1102.61 307.779,1092.61 290.5,1089.5C 283.352,1088.51 276.019,1088.18 268.5,1088.5C 268.5,1087.5 268.5,1086.5 268.5,1085.5 Z"/></g>
<g><path style="opacity:1" fill="#320e16" d="M 1368.5,1144.5 C 1357.35,1145.49 1346.01,1145.83 1334.5,1145.5C 1339.37,1132.9 1344.03,1120.23 1348.5,1107.5C 1349.93,1105.4 1351.1,1103.07 1352,1100.5C 1357.79,1115.08 1363.29,1129.74 1368.5,1144.5 Z"/></g>
<g><path style="opacity:1" fill="#471421" d="M 486.5,1108.5 C 490.5,1120.5 494.5,1132.5 498.5,1144.5C 487.5,1145.83 476.5,1145.83 465.5,1144.5C 470.63,1130.45 475.964,1116.45 481.5,1102.5C 482.167,1101.17 482.833,1101.17 483.5,1102.5C 484.136,1104.78 485.136,1106.78 486.5,1108.5 Z"/></g>
<g><path style="opacity:1" fill="#381019" d="M 1114.5,1120.5 C 1117.17,1128.5 1119.83,1136.5 1122.5,1144.5C 1111.35,1145.49 1100.01,1145.83 1088.5,1145.5C 1094.04,1130.75 1099.87,1116.08 1106,1101.5C 1109.14,1107.78 1111.97,1114.11 1114.5,1120.5 Z"/></g>
<g><path style="opacity:1" fill="#d0b785" d="M 1717.5,1083.5 C 1713.17,1083.5 1708.83,1083.5 1704.5,1083.5C 1704.5,1084.5 1704.5,1085.5 1704.5,1086.5C 1708.7,1086.18 1712.7,1086.52 1716.5,1087.5C 1693.96,1085.87 1679.46,1095.87 1673,1117.5C 1671.08,1129.15 1671.08,1140.82 1673,1152.5C 1679.29,1173.62 1693.46,1183.62 1715.5,1182.5C 1713.74,1183.46 1711.74,1183.79 1709.5,1183.5C 1709.5,1184.5 1709.5,1185.5 1709.5,1186.5C 1694.08,1186.71 1681.25,1181.04 1671,1169.5C 1657.39,1149.28 1656.06,1128.28 1667,1106.5C 1679.29,1088.6 1696.12,1080.94 1717.5,1083.5 Z"/></g>
<g><path style="opacity:1" fill="#3f121d" d="M 777.5,1144.5 C 766.5,1145.83 755.5,1145.83 744.5,1144.5C 745.492,1141.18 746.492,1137.84 747.5,1134.5C 751.857,1123.44 756.523,1112.44 761.5,1101.5C 767.62,1115.53 772.954,1129.86 777.5,1144.5 Z"/></g>
<g><path style="opacity:1" fill="#b59b6a" d="M 771.5,1102.5 C 780.698,1125.59 790.198,1148.59 800,1171.5C 802.012,1177.34 805.846,1181.34 811.5,1183.5C 802.833,1184.83 794.167,1184.83 785.5,1183.5C 789.252,1181.25 790.419,1177.92 789,1173.5C 786.358,1165.91 783.525,1158.41 780.5,1151C 767.504,1150.5 754.504,1150.33 741.5,1150.5C 753.322,1149.5 765.322,1149.17 777.5,1149.5C 777.5,1148.5 777.5,1147.5 777.5,1146.5C 778.833,1145.83 778.833,1145.17 777.5,1144.5C 772.954,1129.86 767.62,1115.53 761.5,1101.5C 756.523,1112.44 751.857,1123.44 747.5,1134.5C 747.192,1130.64 746.525,1126.97 745.5,1123.5C 751.544,1110.07 757.044,1096.41 762,1082.5C 764.942,1089.38 768.108,1096.05 771.5,1102.5 Z"/></g>
<g><path style="opacity:1" fill="#c3a977" d="M 745.5,1123.5 C 746.525,1126.97 747.192,1130.64 747.5,1134.5C 746.492,1137.84 745.492,1141.18 744.5,1144.5C 743.957,1144.56 743.624,1144.89 743.5,1145.5C 754.814,1146.5 766.147,1146.83 777.5,1146.5C 777.5,1147.5 777.5,1148.5 777.5,1149.5C 765.322,1149.17 753.322,1149.5 741.5,1150.5C 737.798,1159.43 734.465,1168.6 731.5,1178C 731.868,1180.53 733.201,1182.37 735.5,1183.5C 728.167,1184.83 720.833,1184.83 713.5,1183.5C 716.989,1182.52 719.823,1180.52 722,1177.5C 728.326,1164.01 734.16,1150.35 739.5,1136.5C 741.739,1132.35 743.739,1128.02 745.5,1123.5 Z"/></g>
<g><path style="opacity:1" fill="#cfb685" d="M 1111.5,1091.5 C 1112.7,1094.43 1113.7,1097.43 1114.5,1100.5C 1114.25,1106.97 1114.25,1113.63 1114.5,1120.5C 1111.97,1114.11 1109.14,1107.78 1106,1101.5C 1099.87,1116.08 1094.04,1130.75 1088.5,1145.5C 1089.57,1146.43 1090.9,1146.77 1092.5,1146.5C 1092.5,1147.5 1092.5,1148.5 1092.5,1149.5C 1103.68,1149.17 1114.68,1149.51 1125.5,1150.5C 1112.17,1150.5 1098.83,1150.5 1085.5,1150.5C 1082.61,1159.68 1079.61,1168.85 1076.5,1178C 1076.87,1180.53 1078.2,1182.37 1080.5,1183.5C 1073.17,1184.83 1065.83,1184.83 1058.5,1183.5C 1063.43,1181.74 1066.93,1178.41 1069,1173.5C 1078.46,1151.58 1087.63,1129.58 1096.5,1107.5C 1100.85,1099.63 1104.35,1091.3 1107,1082.5C 1108.55,1085.59 1110.05,1088.59 1111.5,1091.5 Z"/></g>
<g><path style="opacity:1" fill="#370e19" d="M 995.5,1176.5 C 994.167,1179.83 991.833,1182.17 988.5,1183.5C 987.325,1183.28 986.325,1183.61 985.5,1184.5C 995.812,1185.5 1006.15,1185.83 1016.5,1185.5C 1004.2,1198.3 991.702,1210.97 979,1223.5C 978.517,1224.45 978.351,1225.45 978.5,1226.5C 975.593,1220.31 972.76,1213.98 970,1207.5C 964.295,1220.41 958.462,1233.24 952.5,1246C 953.793,1246.49 955.127,1246.66 956.5,1246.5C 705.194,1497.14 454.194,1748.14 203.5,1999.5C 177.5,1999.5 151.5,1999.5 125.5,1999.5C 377.527,1747.14 629.527,1494.81 881.5,1242.5C 887.982,1246.79 894.982,1247.63 902.5,1245C 908.502,1241.16 911.502,1235.66 911.5,1228.5C 906.5,1228.5 901.5,1228.5 896.5,1228.5C 896.5,1229.5 896.5,1230.5 896.5,1231.5C 900.119,1231.88 903.452,1232.88 906.5,1234.5C 905.654,1238.34 903.321,1240.84 899.5,1242C 883.214,1243.61 877.048,1236.44 881,1220.5C 885.468,1213.92 891.635,1211.75 899.5,1214C 902.562,1215.06 905.062,1216.89 907,1219.5C 909.324,1218.22 909.824,1216.56 908.5,1214.5C 918.5,1205.17 928.167,1195.5 937.5,1185.5C 946.349,1185.83 955.016,1185.49 963.5,1184.5C 966.397,1177.32 968.564,1169.98 970,1162.5C 965.581,1175.1 956.748,1181.1 943.5,1180.5C 960.465,1163.03 977.632,1145.7 995,1128.5C 995.5,1144.5 995.667,1160.5 995.5,1176.5 Z"/></g>
<g><path style="opacity:1" fill="#9d8251" d="M 858.5,1085.5 C 877.474,1088.97 884.307,1099.97 879,1118.5C 876.108,1124.39 871.608,1128.56 865.5,1131C 888.172,1136.84 895.005,1150.68 886,1172.5C 880.124,1179.52 872.624,1183.52 863.5,1184.5C 863.5,1182.83 863.5,1181.17 863.5,1179.5C 869.574,1177.87 874.074,1174.2 877,1168.5C 882.332,1144.31 872.498,1131.98 847.5,1131.5C 865.642,1129.59 872.808,1119.59 869,1101.5C 866.889,1095.22 862.722,1091.22 856.5,1089.5C 857.5,1089.5 858.5,1089.5 859.5,1089.5C 859.567,1088.04 859.234,1086.71 858.5,1085.5 Z"/></g>
<g><path style="opacity:1" fill="#d1b786" d="M 487.5,1092.5 C 486.512,1097.64 486.179,1102.97 486.5,1108.5C 485.136,1106.78 484.136,1104.78 483.5,1102.5C 482.833,1101.17 482.167,1101.17 481.5,1102.5C 475.964,1116.45 470.63,1130.45 465.5,1144.5C 464.662,1144.84 464.328,1145.51 464.5,1146.5C 464.5,1147.5 464.5,1148.5 464.5,1149.5C 477.011,1149.17 489.345,1149.5 501.5,1150.5C 488.496,1150.33 475.496,1150.5 462.5,1151C 459.475,1158.41 456.642,1165.91 454,1173.5C 453.333,1176.17 453.333,1178.83 454,1181.5C 454.708,1182.38 455.542,1183.05 456.5,1183.5C 447.682,1184.49 438.682,1184.83 429.5,1184.5C 429.5,1183.17 430.167,1182.5 431.5,1182.5C 436.434,1183.79 440.268,1182.12 443,1177.5C 456.884,1146.4 470.218,1115.06 483,1083.5C 485.038,1086.24 486.538,1089.24 487.5,1092.5 Z"/></g>
<g><path style="opacity:1" fill="#dfc793" d="M 1114.5,1100.5 C 1125.62,1126.08 1136.78,1151.74 1148,1177.5C 1150.18,1180.52 1153.01,1182.52 1156.5,1183.5C 1147.83,1184.83 1139.17,1184.83 1130.5,1183.5C 1134.25,1181.21 1135.42,1177.87 1134,1173.5C 1131.26,1165.77 1128.42,1158.1 1125.5,1150.5C 1114.68,1149.51 1103.68,1149.17 1092.5,1149.5C 1092.5,1148.5 1092.5,1147.5 1092.5,1146.5C 1102.85,1146.83 1113.19,1146.5 1123.5,1145.5C 1123.38,1144.89 1123.04,1144.56 1122.5,1144.5C 1119.83,1136.5 1117.17,1128.5 1114.5,1120.5C 1114.25,1113.63 1114.25,1106.97 1114.5,1100.5 Z"/></g>
<g><path style="opacity:1" fill="#d1b785" d="M 701.5,1171.5 C 698.472,1177.86 693.805,1182.53 687.5,1185.5C 680.528,1186.51 673.528,1186.67 666.5,1186C 661.262,1185.3 656.762,1183.13 653,1179.5C 652.333,1173.17 652.333,1166.83 653,1160.5C 653.308,1159.69 653.808,1159.03 654.5,1158.5C 656.447,1179.95 667.447,1186.78 687.5,1179C 695.398,1170.75 696.565,1161.58 691,1151.5C 679.535,1141.61 668.535,1131.28 658,1120.5C 651.007,1105.48 654.507,1093.65 668.5,1085C 678.086,1083.58 687.753,1083.08 697.5,1083.5C 697.829,1089.54 697.496,1095.54 696.5,1101.5C 691.831,1087.84 682.831,1084 669.5,1090C 661.191,1098.11 660.358,1106.95 667,1116.5C 678.99,1126.49 690.323,1137.16 701,1148.5C 704.161,1156.09 704.327,1163.76 701.5,1171.5 Z"/></g>
<g><path style="opacity:1" fill="#bba170" d="M 1353.5,1083.5 C 1365.98,1113.14 1378.48,1142.81 1391,1172.5C 1392.78,1178.45 1396.62,1182.12 1402.5,1183.5C 1393.5,1184.83 1384.5,1184.83 1375.5,1183.5C 1378.61,1182.72 1380.28,1180.72 1380.5,1177.5C 1377.9,1168.71 1374.9,1160.04 1371.5,1151.5C 1358.52,1150.5 1345.52,1150.17 1332.5,1150.5C 1344.66,1149.67 1356.99,1149.17 1369.5,1149C 1368.75,1148.33 1368.41,1147.5 1368.5,1146.5C 1369.83,1145.83 1369.83,1145.17 1368.5,1144.5C 1363.29,1129.74 1357.79,1115.08 1352,1100.5C 1351.1,1103.07 1349.93,1105.4 1348.5,1107.5C 1348.81,1103.96 1348.48,1100.62 1347.5,1097.5C 1348.51,1094.16 1349.51,1090.82 1350.5,1087.5C 1351.14,1085.92 1352.14,1084.59 1353.5,1083.5 Z"/></g>
<g><path style="opacity:1" fill="#876848" d="M 950.5,1138.5 C 941.833,1138.5 933.167,1138.5 924.5,1138.5C 924.5,1152.5 924.5,1166.5 924.5,1180.5C 923.504,1166.34 923.171,1152.01 923.5,1137.5C 932.682,1137.17 941.682,1137.51 950.5,1138.5 Z"/></g>
<g><path style="opacity:1" fill="#e3cb97" d="M 487.5,1092.5 C 491.928,1103.02 496.594,1113.35 501.5,1123.5C 508.503,1141.67 516.003,1159.67 524,1177.5C 526.177,1180.52 529.011,1182.52 532.5,1183.5C 523.833,1184.83 515.167,1184.83 506.5,1183.5C 507.721,1182.97 508.887,1182.31 510,1181.5C 510.667,1178.83 510.667,1176.17 510,1173.5C 507.629,1165.54 504.796,1157.88 501.5,1150.5C 489.345,1149.5 477.011,1149.17 464.5,1149.5C 464.5,1148.5 464.5,1147.5 464.5,1146.5C 476.186,1146.83 487.852,1146.5 499.5,1145.5C 499.376,1144.89 499.043,1144.56 498.5,1144.5C 494.5,1132.5 490.5,1120.5 486.5,1108.5C 486.179,1102.97 486.512,1097.64 487.5,1092.5 Z"/></g>
<g><path style="opacity:1" fill="#a78e5c" d="M 1446.5,1083.5 C 1449.96,1084.48 1453.63,1084.81 1457.5,1084.5C 1457.5,1090.17 1457.5,1095.83 1457.5,1101.5C 1452.5,1087.87 1443.17,1084.04 1429.5,1090C 1421.2,1098.07 1420.36,1106.91 1427,1116.5C 1438.3,1126.13 1449.3,1136.13 1460,1146.5C 1467.82,1164.37 1462.99,1177.53 1445.5,1186C 1435.87,1187.34 1426.54,1186.34 1417.5,1183C 1415.91,1181.95 1414.41,1180.79 1413,1179.5C 1412.33,1173.17 1412.33,1166.83 1413,1160.5C 1413.41,1160.04 1413.91,1159.71 1414.5,1159.5C 1417.02,1180.43 1428.02,1186.93 1447.5,1179C 1455.32,1170.71 1456.48,1161.54 1451,1151.5C 1440.97,1141.8 1430.63,1132.46 1420,1123.5C 1411.74,1110.65 1412.91,1098.82 1423.5,1088C 1425.89,1086.14 1428.55,1084.81 1431.5,1084C 1436.49,1083.5 1441.49,1083.33 1446.5,1083.5 Z"/></g>
<g><path style="opacity:1" fill="#96715c" d="M 465.5,1144.5 C 476.5,1145.83 487.5,1145.83 498.5,1144.5C 499.043,1144.56 499.376,1144.89 499.5,1145.5C 487.852,1146.5 476.186,1146.83 464.5,1146.5C 464.328,1145.51 464.662,1144.84 465.5,1144.5 Z"/></g>
<g><path style="opacity:1" fill="#825f49" d="M 744.5,1144.5 C 755.5,1145.83 766.5,1145.83 777.5,1144.5C 778.833,1145.17 778.833,1145.83 777.5,1146.5C 766.147,1146.83 754.814,1146.5 743.5,1145.5C 743.624,1144.89 743.957,1144.56 744.5,1144.5 Z"/></g>
<g><path style="opacity:1" fill="#8e6f57" d="M 1122.5,1144.5 C 1123.04,1144.56 1123.38,1144.89 1123.5,1145.5C 1113.19,1146.5 1102.85,1146.83 1092.5,1146.5C 1090.9,1146.77 1089.57,1146.43 1088.5,1145.5C 1100.01,1145.83 1111.35,1145.49 1122.5,1144.5 Z"/></g>
<g><path style="opacity:1" fill="#81634b" d="M 1368.5,1144.5 C 1369.83,1145.17 1369.83,1145.83 1368.5,1146.5C 1356.99,1146.83 1345.65,1146.49 1334.5,1145.5C 1346.01,1145.83 1357.35,1145.49 1368.5,1144.5 Z"/></g>
<g><path style="opacity:1" fill="#b59c6a" d="M 1590.5,1085.5 C 1597.17,1085.5 1603.83,1085.5 1610.5,1085.5C 1612.95,1085.3 1615.28,1085.63 1617.5,1086.5C 1631.33,1092.16 1636.83,1102.49 1634,1117.5C 1631.38,1129.79 1623.88,1136.95 1611.5,1139C 1619.51,1147.53 1626.68,1156.7 1633,1166.5C 1638.03,1173.76 1644.53,1179.26 1652.5,1183C 1653.79,1183.49 1655.13,1183.66 1656.5,1183.5C 1653.04,1184.48 1649.37,1184.81 1645.5,1184.5C 1639.79,1183.98 1634.79,1181.81 1630.5,1178C 1621.39,1166.95 1612.89,1155.45 1605,1143.5C 1602.11,1139.43 1598.27,1136.77 1593.5,1135.5C 1616.46,1136.72 1626.29,1126.05 1623,1103.5C 1620.92,1095.92 1616.08,1091.25 1608.5,1089.5C 1602.69,1088.51 1596.69,1088.18 1590.5,1088.5C 1590.5,1087.5 1590.5,1086.5 1590.5,1085.5 Z"/></g>
<g><path style="opacity:1" fill="#1e070c" d="M 1999.5,1156.5 C 1999.5,1172.17 1999.5,1187.83 1999.5,1203.5C 1733.81,1468.19 1468.81,1733.53 1204.5,1999.5C 1188.83,1999.5 1173.17,1999.5 1157.5,1999.5C 1437.47,1717.86 1718.14,1436.86 1999.5,1156.5 Z"/></g>
<g><path style="opacity:1" fill="#d1b888" d="M 1294.5,1142.5 C 1298.15,1167.12 1287.48,1181.78 1262.5,1186.5C 1262.17,1185.17 1261.83,1183.83 1261.5,1182.5C 1270.35,1180.99 1277.85,1176.99 1284,1170.5C 1289.2,1161.71 1292.7,1152.38 1294.5,1142.5 Z"/></g>
<g><path style="opacity:1" fill="#c4aa78" d="M 371.5,1085.5 C 378.167,1085.5 384.833,1085.5 391.5,1085.5C 393.199,1085.34 394.866,1085.51 396.5,1086C 411.255,1091.33 417.422,1101.83 415,1117.5C 412.226,1130.28 404.392,1137.44 391.5,1139C 393.96,1140.46 396.127,1142.29 398,1144.5C 400.37,1148.6 403.203,1152.26 406.5,1155.5C 412.407,1166.74 420.74,1175.74 431.5,1182.5C 430.167,1182.5 429.5,1183.17 429.5,1184.5C 428.5,1184.5 427.5,1184.5 426.5,1184.5C 424.801,1184.66 423.134,1184.49 421.5,1184C 413.821,1180.66 407.654,1175.49 403,1168.5C 396.333,1159.17 389.667,1149.83 383,1140.5C 380.533,1138.2 377.7,1136.53 374.5,1135.5C 395.766,1136.4 405.6,1126.4 404,1105.5C 402.623,1096.36 397.456,1091.03 388.5,1089.5C 383.025,1088.51 377.358,1088.18 371.5,1088.5C 371.5,1087.5 371.5,1086.5 371.5,1085.5 Z"/></g>
<g><path style="opacity:1" fill="#ecd3a0" d="M 545.5,1172.5 C 553.461,1174.25 555.128,1178.41 550.5,1185C 543.17,1186.67 540.003,1183.83 541,1176.5C 542.397,1174.93 543.897,1173.6 545.5,1172.5 Z"/></g>
<g><path style="opacity:1" fill="#6e4435" d="M 239.5,1183.5 C 256.325,1184.5 273.325,1184.83 290.5,1184.5C 272.662,1185.83 254.662,1185.83 236.5,1184.5C 237.325,1183.61 238.325,1183.28 239.5,1183.5 Z"/></g>
<g><path style="opacity:1" fill="#7d5644" d="M 352.5,1183.5 C 360.5,1184.83 368.5,1184.83 376.5,1183.5C 377.978,1183.24 379.311,1183.57 380.5,1184.5C 370.167,1185.83 359.833,1185.83 349.5,1184.5C 350.325,1183.61 351.325,1183.28 352.5,1183.5 Z"/></g>
<g><path style="opacity:1" fill="#8e6954" d="M 456.5,1183.5 C 457.675,1183.28 458.675,1183.61 459.5,1184.5C 452.197,1185.5 444.863,1185.83 437.5,1185.5C 433.629,1185.81 429.962,1185.48 426.5,1184.5C 427.5,1184.5 428.5,1184.5 429.5,1184.5C 438.682,1184.83 447.682,1184.49 456.5,1183.5 Z"/></g>
<g><path style="opacity:1" fill="#946f5c" d="M 506.5,1183.5 C 515.167,1184.83 523.833,1184.83 532.5,1183.5C 533.675,1183.28 534.675,1183.61 535.5,1184.5C 524.833,1185.83 514.167,1185.83 503.5,1184.5C 504.325,1183.61 505.325,1183.28 506.5,1183.5 Z"/></g>
<g><path style="opacity:1" fill="#906c58" d="M 607.5,1183.5 C 615.5,1184.83 623.5,1184.83 631.5,1183.5C 632.978,1183.24 634.311,1183.57 635.5,1184.5C 625.167,1185.83 614.833,1185.83 604.5,1184.5C 605.325,1183.61 606.325,1183.28 607.5,1183.5 Z"/></g>
<g><path style="opacity:1" fill="#815e4a" d="M 713.5,1183.5 C 720.833,1184.83 728.167,1184.83 735.5,1183.5C 736.675,1183.28 737.675,1183.61 738.5,1184.5C 729.167,1185.83 719.833,1185.83 710.5,1184.5C 711.325,1183.61 712.325,1183.28 713.5,1183.5 Z"/></g>
<g><path style="opacity:1" fill="#765340" d="M 785.5,1183.5 C 794.167,1184.83 802.833,1184.83 811.5,1183.5C 812.675,1183.28 813.675,1183.61 814.5,1184.5C 803.833,1185.83 793.167,1185.83 782.5,1184.5C 783.325,1183.61 784.325,1183.28 785.5,1183.5 Z"/></g>
<g><path style="opacity:1" fill="#6f4c3a" d="M 825.5,1183.5 C 836.988,1184.49 848.655,1184.83 860.5,1184.5C 847.994,1185.82 835.327,1185.82 822.5,1184.5C 823.325,1183.61 824.325,1183.28 825.5,1183.5 Z"/></g>
<g><path style="opacity:1" fill="#6f4d3a" d="M 907.5,1183.5 C 925.993,1184.5 944.659,1184.83 963.5,1184.5C 955.016,1185.49 946.349,1185.83 937.5,1185.5C 926.48,1185.83 915.48,1185.5 904.5,1184.5C 905.325,1183.61 906.325,1183.28 907.5,1183.5 Z"/></g>
<g><path style="opacity:1" fill="#795844" d="M 988.5,1183.5 C 1006.99,1184.5 1025.66,1184.83 1044.5,1184.5C 1035.35,1185.49 1026.01,1185.83 1016.5,1185.5C 1006.15,1185.83 995.812,1185.5 985.5,1184.5C 986.325,1183.61 987.325,1183.28 988.5,1183.5 Z"/></g>
<g><path style="opacity:1" fill="#80604c" d="M 1058.5,1183.5 C 1065.83,1184.83 1073.17,1184.83 1080.5,1183.5C 1081.68,1183.28 1082.68,1183.61 1083.5,1184.5C 1074.17,1185.83 1064.83,1185.83 1055.5,1184.5C 1056.32,1183.61 1057.32,1183.28 1058.5,1183.5 Z"/></g>
<g><path style="opacity:1" fill="#8a6a56" d="M 1130.5,1183.5 C 1139.17,1184.83 1147.83,1184.83 1156.5,1183.5C 1157.68,1183.28 1158.68,1183.61 1159.5,1184.5C 1148.83,1185.83 1138.17,1185.83 1127.5,1184.5C 1128.32,1183.61 1129.32,1183.28 1130.5,1183.5 Z"/></g>
<g><path style="opacity:1" fill="#7c5d4a" d="M 1303.5,1183.5 C 1311.17,1184.83 1318.83,1184.83 1326.5,1183.5C 1327.68,1183.28 1328.68,1183.61 1329.5,1184.5C 1320.17,1185.83 1310.83,1185.83 1301.5,1184.5C 1301.96,1183.7 1302.62,1183.37 1303.5,1183.5 Z"/></g>
<g><path style="opacity:1" fill="#72543f" d="M 1375.5,1183.5 C 1384.5,1184.83 1393.5,1184.83 1402.5,1183.5C 1403.68,1183.28 1404.68,1183.61 1405.5,1184.5C 1394.83,1185.83 1384.17,1185.83 1373.5,1184.5C 1373.96,1183.7 1374.62,1183.37 1375.5,1183.5 Z"/></g>
<g><path style="opacity:1" fill="#5d402b" d="M 1503.5,1183.5 C 1511.5,1184.83 1519.5,1184.83 1527.5,1183.5C 1528.98,1183.24 1530.31,1183.57 1531.5,1184.5C 1521.17,1185.83 1510.83,1185.83 1500.5,1184.5C 1501.32,1183.61 1502.32,1183.28 1503.5,1183.5 Z"/></g>
<g><path style="opacity:1" fill="#644733" d="M 1571.5,1183.5 C 1579.5,1184.83 1587.5,1184.83 1595.5,1183.5C 1596.98,1183.24 1598.31,1183.57 1599.5,1184.5C 1589.17,1185.83 1578.83,1185.83 1568.5,1184.5C 1569.32,1183.61 1570.32,1183.28 1571.5,1183.5 Z"/></g>
<g><path style="opacity:1" fill="#705541" d="M 1656.5,1183.5 C 1657.04,1183.56 1657.38,1183.89 1657.5,1184.5C 1653.35,1185.81 1649.35,1185.81 1645.5,1184.5C 1649.37,1184.81 1653.04,1184.48 1656.5,1183.5 Z"/></g>
<g><path style="opacity:1" fill="#ede9ea" d="M 963.5,1199.5 C 967.204,1199.36 970.537,1200.36 973.5,1202.5C 975.029,1202.47 976.196,1201.8 977,1200.5C 978.951,1202.14 978.784,1203.64 976.5,1205C 972.998,1205.69 969.664,1205.19 966.5,1203.5C 961.404,1205.98 960.404,1204.65 963.5,1199.5 Z"/></g>
<g><path style="opacity:1" fill="#1c070b" d="M 1999.5,1203.5 C 1999.5,1245.17 1999.5,1286.83 1999.5,1328.5C 1775.47,1551.53 1552.14,1775.19 1329.5,1999.5C 1287.83,1999.5 1246.17,1999.5 1204.5,1999.5C 1468.81,1733.53 1733.81,1468.19 1999.5,1203.5 Z"/></g>
<g><path style="opacity:1" fill="#f6f4f4" d="M 978.5,1226.5 C 980.878,1232.93 983.545,1239.26 986.5,1245.5C 984.994,1246.75 983.494,1246.75 982,1245.5C 980.735,1242.54 979.569,1239.54 978.5,1236.5C 972.863,1235.34 967.196,1235.17 961.5,1236C 959.912,1239.63 958.246,1243.13 956.5,1246.5C 955.127,1246.66 953.793,1246.49 952.5,1246C 958.462,1233.24 964.295,1220.41 970,1207.5C 972.76,1213.98 975.593,1220.31 978.5,1226.5 Z"/></g>
<g><path style="opacity:1" fill="#f9f8f9" d="M 1130.5,1236.5 C 1130.78,1237.29 1131.28,1237.96 1132,1238.5C 1132.5,1228.84 1132.67,1219.17 1132.5,1209.5C 1133.83,1209.5 1135.17,1209.5 1136.5,1209.5C 1136.67,1222.5 1136.5,1235.5 1136,1248.5C 1127.63,1238.64 1119.13,1228.97 1110.5,1219.5C 1110.22,1218.71 1109.72,1218.04 1109,1217.5C 1108.5,1227.16 1108.33,1236.83 1108.5,1246.5C 1107.17,1246.5 1105.83,1246.5 1104.5,1246.5C 1104.33,1233.5 1104.5,1220.5 1105,1207.5C 1113.37,1217.36 1121.87,1227.03 1130.5,1236.5 Z"/></g>
<g><path style="opacity:1" fill="#8b757b" d="M 1154.5,1209.5 C 1161.65,1208.51 1168.98,1208.18 1176.5,1208.5C 1176.5,1210.17 1176.5,1211.83 1176.5,1213.5C 1173.5,1213.5 1170.5,1213.5 1167.5,1213.5C 1169.95,1212.53 1172.61,1212.19 1175.5,1212.5C 1175.5,1211.5 1175.5,1210.5 1175.5,1209.5C 1168.5,1209.5 1161.5,1209.5 1154.5,1209.5 Z"/></g>
<g><path style="opacity:1" fill="#8a757a" d="M 1276.5,1209.5 C 1269.5,1209.5 1262.5,1209.5 1255.5,1209.5C 1255.5,1210.5 1255.5,1211.5 1255.5,1212.5C 1258.39,1212.19 1261.05,1212.53 1263.5,1213.5C 1260.5,1213.5 1257.5,1213.5 1254.5,1213.5C 1254.5,1211.83 1254.5,1210.17 1254.5,1208.5C 1262.02,1208.18 1269.35,1208.51 1276.5,1209.5 Z"/></g>
<g><path style="opacity:1" fill="#f5f3f4" d="M 1304.5,1207.5 C 1310.14,1220.07 1315.81,1232.73 1321.5,1245.5C 1319.99,1246.75 1318.49,1246.75 1317,1245.5C 1315.74,1242.54 1314.57,1239.54 1313.5,1236.5C 1307.86,1235.34 1302.2,1235.17 1296.5,1236C 1294.67,1239.32 1293.34,1242.82 1292.5,1246.5C 1290.8,1246.66 1289.13,1246.49 1287.5,1246C 1293.58,1233.34 1299.25,1220.5 1304.5,1207.5 Z"/></g>
<g><path style="opacity:1" fill="#eeeaeb" d="M 688.5,1209.5 C 694.636,1209.18 700.636,1209.84 706.5,1211.5C 706.785,1213.29 706.452,1214.95 705.5,1216.5C 698.953,1212.74 692.286,1212.57 685.5,1216C 680.701,1220.84 679.201,1226.67 681,1233.5C 685.348,1241.91 692.181,1244.75 701.5,1242C 702.966,1241.36 704.3,1240.53 705.5,1239.5C 706.747,1241.01 706.747,1242.51 705.5,1244C 689.177,1250.18 679.177,1244.84 675.5,1228C 676.532,1219.48 680.865,1213.31 688.5,1209.5 Z"/></g>
<g><path style="opacity:1" fill="#fefffe" d="M 726.5,1209.5 C 727.833,1209.5 729.167,1209.5 730.5,1209.5C 730.5,1221.83 730.5,1234.17 730.5,1246.5C 729.167,1246.5 727.833,1246.5 726.5,1246.5C 726.5,1234.17 726.5,1221.83 726.5,1209.5 Z"/></g>
<g><path style="opacity:1" fill="#f9f8f8" d="M 757.5,1231.5 C 757.44,1230.96 757.107,1230.62 756.5,1230.5C 755.505,1235.79 755.172,1241.13 755.5,1246.5C 754.167,1246.5 752.833,1246.5 751.5,1246.5C 751.5,1234.17 751.5,1221.83 751.5,1209.5C 757.105,1208.91 762.439,1209.74 767.5,1212C 772.876,1220.65 770.876,1226.99 761.5,1231C 765.045,1235.92 768.712,1240.76 772.5,1245.5C 770.833,1246.83 769.167,1246.83 767.5,1245.5C 764.498,1240.51 761.164,1235.85 757.5,1231.5 Z"/></g>
<g><path style="opacity:1" fill="#f5f3f4" d="M 812.5,1209.5 C 813.833,1209.5 815.167,1209.5 816.5,1209.5C 816.5,1218.17 816.5,1226.83 816.5,1235.5C 816.124,1240.76 813.457,1244.26 808.5,1246C 800.488,1248.24 794.655,1245.74 791,1238.5C 790.5,1228.84 790.334,1219.17 790.5,1209.5C 791.833,1209.5 793.167,1209.5 794.5,1209.5C 794.334,1218.84 794.5,1228.17 795,1237.5C 796.8,1241.24 799.8,1242.9 804,1242.5C 807.934,1242.9 810.601,1241.24 812,1237.5C 812.5,1228.17 812.666,1218.84 812.5,1209.5 Z"/></g>
<g><path style="opacity:1" fill="#8b7178" d="M 812.5,1209.5 C 813.919,1208.55 815.585,1208.22 817.5,1208.5C 817.827,1217.68 817.493,1226.68 816.5,1235.5C 816.5,1226.83 816.5,1218.17 816.5,1209.5C 815.167,1209.5 813.833,1209.5 812.5,1209.5 Z"/></g>
<g><path style="opacity:1" fill="#f4f1f2" d="M 842.5,1231.5 C 841.513,1236.31 841.179,1241.31 841.5,1246.5C 840.5,1246.5 839.5,1246.5 838.5,1246.5C 838.5,1234.17 838.5,1221.83 838.5,1209.5C 843.267,1209.19 847.934,1209.69 852.5,1211C 859.895,1219.28 858.562,1225.95 848.5,1231C 852.167,1236 855.833,1241 859.5,1246C 857.833,1246.67 856.167,1246.67 854.5,1246C 851.333,1241.5 848.167,1237 845,1232.5C 844.329,1231.75 843.496,1231.41 842.5,1231.5 Z"/></g>
<g><path style="opacity:1" fill="#f3f1f1" d="M 908.5,1214.5 C 909.824,1216.56 909.324,1218.22 907,1219.5C 905.062,1216.89 902.562,1215.06 899.5,1214C 891.635,1211.75 885.468,1213.92 881,1220.5C 877.048,1236.44 883.214,1243.61 899.5,1242C 903.321,1240.84 905.654,1238.34 906.5,1234.5C 907.404,1233.79 907.737,1232.79 907.5,1231.5C 903.833,1231.5 900.167,1231.5 896.5,1231.5C 896.5,1230.5 896.5,1229.5 896.5,1228.5C 901.5,1228.5 906.5,1228.5 911.5,1228.5C 911.502,1235.66 908.502,1241.16 902.5,1245C 894.982,1247.63 887.982,1246.79 881.5,1242.5C 878.67,1240.16 876.837,1237.16 876,1233.5C 873.553,1222.56 877.386,1214.73 887.5,1210C 895.284,1208.29 902.284,1209.79 908.5,1214.5 Z"/></g>
<g><path style="opacity:1" fill="#fefffe" d="M 931.5,1209.5 C 932.833,1209.5 934.167,1209.5 935.5,1209.5C 935.5,1221.83 935.5,1234.17 935.5,1246.5C 934.167,1246.5 932.833,1246.5 931.5,1246.5C 931.5,1234.17 931.5,1221.83 931.5,1209.5 Z"/></g>
<g><path style="opacity:1" fill="#faf9f9" d="M 1016.5,1209.5 C 1023.91,1208.62 1030.91,1209.79 1037.5,1213C 1046.77,1222.97 1046.77,1232.97 1037.5,1243C 1030.86,1246.07 1023.86,1247.23 1016.5,1246.5C 1016.5,1234.17 1016.5,1221.83 1016.5,1209.5 Z"/></g>
<g><path style="opacity:1" fill="#fefffe" d="M 1064.5,1209.5 C 1070.83,1209.5 1077.17,1209.5 1083.5,1209.5C 1083.5,1210.5 1083.5,1211.5 1083.5,1212.5C 1078.5,1212.5 1073.5,1212.5 1068.5,1212.5C 1068.5,1216.5 1068.5,1220.5 1068.5,1224.5C 1073.5,1224.5 1078.5,1224.5 1083.5,1224.5C 1083.5,1225.5 1083.5,1226.5 1083.5,1227.5C 1078.5,1227.5 1073.5,1227.5 1068.5,1227.5C 1068.5,1232.83 1068.5,1238.17 1068.5,1243.5C 1073.5,1243.5 1078.5,1243.5 1083.5,1243.5C 1083.5,1244.5 1083.5,1245.5 1083.5,1246.5C 1077.17,1246.5 1070.83,1246.5 1064.5,1246.5C 1064.5,1234.17 1064.5,1221.83 1064.5,1209.5 Z"/></g>
<g><path style="opacity:1" fill="#5d3f46" d="M 1132.5,1209.5 C 1132.67,1219.17 1132.5,1228.84 1132,1238.5C 1131.28,1237.96 1130.78,1237.29 1130.5,1236.5C 1131.17,1227.5 1131.83,1218.5 1132.5,1209.5 Z"/></g>
<g><path style="opacity:1" fill="#fefefe" d="M 1154.5,1209.5 C 1161.5,1209.5 1168.5,1209.5 1175.5,1209.5C 1175.5,1210.5 1175.5,1211.5 1175.5,1212.5C 1172.61,1212.19 1169.95,1212.53 1167.5,1213.5C 1166.51,1224.32 1166.17,1235.32 1166.5,1246.5C 1165.5,1246.5 1164.5,1246.5 1163.5,1246.5C 1163.5,1235.17 1163.5,1223.83 1163.5,1212.5C 1160.5,1212.5 1157.5,1212.5 1154.5,1212.5C 1154.5,1211.5 1154.5,1210.5 1154.5,1209.5 Z"/></g>
<g><path style="opacity:1" fill="#968388" d="M 1197.5,1208.5 C 1198.5,1221.32 1198.83,1234.32 1198.5,1247.5C 1196.83,1247.5 1195.17,1247.5 1193.5,1247.5C 1193.5,1246.17 1193.5,1244.83 1193.5,1243.5C 1193.5,1233.17 1193.5,1222.83 1193.5,1212.5C 1193.5,1211.17 1193.5,1209.83 1193.5,1208.5C 1194.83,1208.5 1196.17,1208.5 1197.5,1208.5 Z"/></g>
<g><path style="opacity:1" fill="#fefffe" d="M 1194.5,1209.5 C 1195.5,1209.5 1196.5,1209.5 1197.5,1209.5C 1197.5,1221.83 1197.5,1234.17 1197.5,1246.5C 1196.5,1246.5 1195.5,1246.5 1194.5,1246.5C 1194.5,1234.17 1194.5,1221.83 1194.5,1209.5 Z"/></g>
<g><path style="opacity:1" fill="#f2eff0" d="M 1223.5,1209.5 C 1226.85,1209.33 1230.18,1209.5 1233.5,1210C 1235.83,1211 1237.5,1212.67 1238.5,1215C 1236.21,1217.03 1234.21,1216.69 1232.5,1214C 1229.83,1213.33 1227.17,1213.33 1224.5,1214C 1221.69,1217.29 1222.02,1220.29 1225.5,1223C 1228.83,1224.67 1232.17,1226.33 1235.5,1228C 1239.2,1231.4 1240.37,1235.56 1239,1240.5C 1237.83,1243 1236,1244.83 1233.5,1246C 1225.59,1248.38 1219.93,1245.88 1216.5,1238.5C 1217.63,1237.74 1218.79,1237.07 1220,1236.5C 1223.9,1243.19 1228.9,1244.19 1235,1239.5C 1235.75,1236.7 1235.42,1234.03 1234,1231.5C 1229.91,1229.21 1225.75,1227.04 1221.5,1225C 1217.08,1219.13 1217.74,1213.97 1223.5,1209.5 Z"/></g>
<g><path style="opacity:1" fill="#fefefe" d="M 1276.5,1209.5 C 1276.5,1210.5 1276.5,1211.5 1276.5,1212.5C 1273.5,1212.5 1270.5,1212.5 1267.5,1212.5C 1267.5,1223.83 1267.5,1235.17 1267.5,1246.5C 1266.5,1246.5 1265.5,1246.5 1264.5,1246.5C 1264.83,1235.32 1264.49,1224.32 1263.5,1213.5C 1261.05,1212.53 1258.39,1212.19 1255.5,1212.5C 1255.5,1211.5 1255.5,1210.5 1255.5,1209.5C 1262.5,1209.5 1269.5,1209.5 1276.5,1209.5 Z"/></g>
<g><path style="opacity:1" fill="#310d16" d="M 1193.5,1212.5 C 1193.5,1222.83 1193.5,1233.17 1193.5,1243.5C 941.139,1494.86 689.473,1746.86 438.5,1999.5C 427.833,1999.5 417.167,1999.5 406.5,1999.5C 658.167,1747.17 910.167,1495.17 1162.5,1243.5C 1162.26,1244.79 1162.6,1245.79 1163.5,1246.5C 1164.57,1247.43 1165.9,1247.77 1167.5,1247.5C 1167.5,1244.17 1167.5,1240.83 1167.5,1237.5C 1176.17,1229.17 1184.83,1220.83 1193.5,1212.5 Z"/></g>
<g><path style="opacity:1" fill="#74545b" d="M 759.5,1213.5 C 758.5,1213.5 757.5,1213.5 756.5,1213.5C 756.5,1217.83 756.5,1222.17 756.5,1226.5C 757.833,1226.5 759.167,1226.5 760.5,1226.5C 759.081,1227.45 757.415,1227.78 755.5,1227.5C 755.5,1222.5 755.5,1217.5 755.5,1212.5C 757.099,1212.23 758.432,1212.57 759.5,1213.5 Z"/></g>
<g><path style="opacity:1" fill="#3e131d" d="M 759.5,1213.5 C 765.795,1213.98 767.961,1217.32 766,1223.5C 764.736,1225.61 762.903,1226.61 760.5,1226.5C 759.167,1226.5 757.833,1226.5 756.5,1226.5C 756.5,1222.17 756.5,1217.83 756.5,1213.5C 757.5,1213.5 758.5,1213.5 759.5,1213.5 Z"/></g>
<g><path style="opacity:1" fill="#3e141e" d="M 842.5,1213.5 C 852.191,1212.43 855.191,1216.26 851.5,1225C 848.649,1226.29 845.649,1226.79 842.5,1226.5C 842.5,1222.17 842.5,1217.83 842.5,1213.5 Z"/></g>
<g><path style="opacity:1" fill="#37111a" d="M 1026.5,1213.5 C 1035.73,1213.9 1040.4,1218.73 1040.5,1228C 1039.85,1236.15 1035.52,1240.98 1027.5,1242.5C 1025.5,1242.5 1023.5,1242.5 1021.5,1242.5C 1021.5,1232.83 1021.5,1223.17 1021.5,1213.5C 1023.17,1213.5 1024.83,1213.5 1026.5,1213.5 Z"/></g>
<g><path style="opacity:1" fill="#887379" d="M 1154.5,1212.5 C 1157.5,1212.5 1160.5,1212.5 1163.5,1212.5C 1163.5,1223.83 1163.5,1235.17 1163.5,1246.5C 1162.6,1245.79 1162.26,1244.79 1162.5,1243.5C 1162.5,1233.5 1162.5,1223.5 1162.5,1213.5C 1159.61,1213.81 1156.95,1213.47 1154.5,1212.5 Z"/></g>
<g><path style="opacity:1" fill="#b8aaae" d="M 1167.5,1213.5 C 1167.5,1221.5 1167.5,1229.5 1167.5,1237.5C 1167.5,1240.83 1167.5,1244.17 1167.5,1247.5C 1165.9,1247.77 1164.57,1247.43 1163.5,1246.5C 1164.5,1246.5 1165.5,1246.5 1166.5,1246.5C 1166.17,1235.32 1166.51,1224.32 1167.5,1213.5 Z"/></g>
<g><path style="opacity:1" fill="#958388" d="M 1276.5,1212.5 C 1274.05,1213.47 1271.39,1213.81 1268.5,1213.5C 1268.5,1224.83 1268.5,1236.17 1268.5,1247.5C 1266.83,1247.5 1265.17,1247.5 1263.5,1247.5C 1263.5,1236.17 1263.5,1224.83 1263.5,1213.5C 1264.49,1224.32 1264.83,1235.32 1264.5,1246.5C 1265.5,1246.5 1266.5,1246.5 1267.5,1246.5C 1267.5,1235.17 1267.5,1223.83 1267.5,1212.5C 1270.5,1212.5 1273.5,1212.5 1276.5,1212.5 Z"/></g>
<g><path style="opacity:1" fill="#3d151f" d="M 975.5,1230.5 C 971.702,1231.48 967.702,1231.82 963.5,1231.5C 965.121,1226.26 967.288,1221.26 970,1216.5C 972.134,1221.07 973.967,1225.74 975.5,1230.5 Z"/></g>
<g><path style="opacity:1" fill="#34121b" d="M 1310.5,1230.5 C 1306.7,1231.48 1302.7,1231.82 1298.5,1231.5C 1300.12,1226.26 1302.29,1221.26 1305,1216.5C 1307.12,1221.08 1308.96,1225.74 1310.5,1230.5 Z"/></g>
<g><path style="opacity:1" fill="#5d3e46" d="M 1110.5,1219.5 C 1109.83,1228.5 1109.17,1237.5 1108.5,1246.5C 1108.33,1236.83 1108.5,1227.16 1109,1217.5C 1109.72,1218.04 1110.22,1218.71 1110.5,1219.5 Z"/></g>
<g><path style="opacity:1" fill="#6a4d54" d="M 1026.5,1213.5 C 1024.83,1213.5 1023.17,1213.5 1021.5,1213.5C 1021.5,1223.17 1021.5,1232.83 1021.5,1242.5C 1023.5,1242.5 1025.5,1242.5 1027.5,1242.5C 1025.39,1243.47 1023.06,1243.8 1020.5,1243.5C 1020.5,1233.17 1020.5,1222.83 1020.5,1212.5C 1022.74,1212.21 1024.74,1212.54 1026.5,1213.5 Z"/></g>
<g><path style="opacity:1" fill="#8f6b56" d="M 236.5,1231.5 C 288.664,1230.5 340.997,1230.17 393.5,1230.5C 476.833,1230.5 560.167,1230.5 643.5,1230.5C 647.167,1230.5 650.833,1230.5 654.5,1230.5C 654.768,1232.1 654.434,1233.43 653.5,1234.5C 653.5,1233.5 653.5,1232.5 653.5,1231.5C 641.167,1231.5 628.833,1231.5 616.5,1231.5C 604.167,1231.5 591.833,1231.5 579.5,1231.5C 566.833,1231.5 554.167,1231.5 541.5,1231.5C 514.167,1231.5 486.833,1231.5 459.5,1231.5C 427.167,1231.5 394.833,1231.5 362.5,1231.5C 342.833,1231.5 323.167,1231.5 303.5,1231.5C 291.5,1231.5 279.5,1231.5 267.5,1231.5C 257.167,1231.5 246.833,1231.5 236.5,1231.5 Z"/></g>
<g><path style="opacity:1" fill="#7b5f47" d="M 1425.5,1230.5 C 1508.83,1230.5 1592.17,1230.5 1675.5,1230.5C 1704.67,1230.17 1733.67,1230.5 1762.5,1231.5C 1750.17,1231.5 1737.83,1231.5 1725.5,1231.5C 1705.5,1231.5 1685.5,1231.5 1665.5,1231.5C 1658.83,1231.5 1652.17,1231.5 1645.5,1231.5C 1617.5,1231.5 1589.5,1231.5 1561.5,1231.5C 1531.5,1231.5 1501.5,1231.5 1471.5,1231.5C 1439.83,1231.5 1408.17,1231.5 1376.5,1231.5C 1366.17,1231.5 1355.83,1231.5 1345.5,1231.5C 1345.5,1232.5 1345.5,1233.5 1345.5,1234.5C 1344.57,1233.43 1344.23,1232.1 1344.5,1230.5C 1371.5,1230.5 1398.5,1230.5 1425.5,1230.5 Z"/></g>
<g><path style="opacity:1" fill="#a78d5a" d="M 236.5,1231.5 C 246.833,1231.5 257.167,1231.5 267.5,1231.5C 268.448,1232.98 269.781,1233.98 271.5,1234.5C 259.833,1234.5 248.167,1234.5 236.5,1234.5C 236.5,1233.5 236.5,1232.5 236.5,1231.5 Z"/></g>
<g><path style="opacity:1" fill="#d0b784" d="M 267.5,1231.5 C 279.5,1231.5 291.5,1231.5 303.5,1231.5C 305.857,1233.1 308.523,1234.1 311.5,1234.5C 298.167,1234.5 284.833,1234.5 271.5,1234.5C 269.781,1233.98 268.448,1232.98 267.5,1231.5 Z"/></g>
<g><path style="opacity:1" fill="#b29865" d="M 362.5,1231.5 C 394.833,1231.5 427.167,1231.5 459.5,1231.5C 461.857,1233.1 464.523,1234.1 467.5,1234.5C 441.167,1234.5 414.833,1234.5 388.5,1234.5C 376.5,1234.5 364.5,1234.5 352.5,1234.5C 356.119,1234.12 359.452,1233.12 362.5,1231.5 Z"/></g>
<g><path style="opacity:1" fill="#b39a67" d="M 541.5,1231.5 C 554.167,1231.5 566.833,1231.5 579.5,1231.5C 578.198,1233.03 576.531,1234.03 574.5,1234.5C 561.833,1234.5 549.167,1234.5 536.5,1234.5C 538.531,1234.03 540.198,1233.03 541.5,1231.5 Z"/></g>
<g><path style="opacity:1" fill="#987d4c" d="M 579.5,1231.5 C 591.833,1231.5 604.167,1231.5 616.5,1231.5C 617.1,1232.9 618.1,1233.9 619.5,1234.5C 604.5,1234.5 589.5,1234.5 574.5,1234.5C 576.531,1234.03 578.198,1233.03 579.5,1231.5 Z"/></g>
<g><path style="opacity:1" fill="#ddc490" d="M 616.5,1231.5 C 628.833,1231.5 641.167,1231.5 653.5,1231.5C 653.5,1232.5 653.5,1233.5 653.5,1234.5C 648.5,1234.5 643.5,1234.5 638.5,1234.5C 632.167,1234.5 625.833,1234.5 619.5,1234.5C 618.1,1233.9 617.1,1232.9 616.5,1231.5 Z"/></g>
<g><path style="opacity:1" fill="#68464e" d="M 757.5,1231.5 C 756.833,1236.5 756.167,1241.5 755.5,1246.5C 755.172,1241.13 755.505,1235.79 756.5,1230.5C 757.107,1230.62 757.44,1230.96 757.5,1231.5 Z"/></g>
<g><path style="opacity:1" fill="#b6a6aa" d="M 842.5,1231.5 C 842.5,1236.83 842.5,1242.17 842.5,1247.5C 840.901,1247.77 839.568,1247.43 838.5,1246.5C 839.5,1246.5 840.5,1246.5 841.5,1246.5C 841.179,1241.31 841.513,1236.31 842.5,1231.5 Z"/></g>
<g><path style="opacity:1" fill="#927b80" d="M 896.5,1231.5 C 900.167,1231.5 903.833,1231.5 907.5,1231.5C 907.737,1232.79 907.404,1233.79 906.5,1234.5C 903.452,1232.88 900.119,1231.88 896.5,1231.5 Z"/></g>
<g><path style="opacity:1" fill="#8e777d" d="M 975.5,1230.5 C 976.043,1230.56 976.376,1230.89 976.5,1231.5C 974.167,1231.83 971.833,1232.17 969.5,1232.5C 966.707,1232.57 964.707,1232.24 963.5,1231.5C 967.702,1231.82 971.702,1231.48 975.5,1230.5 Z"/></g>
<g><path style="opacity:1" fill="#89767b" d="M 1310.5,1230.5 C 1311.04,1230.56 1311.38,1230.89 1311.5,1231.5C 1309.17,1231.83 1306.83,1232.17 1304.5,1232.5C 1301.71,1232.57 1299.71,1232.24 1298.5,1231.5C 1302.7,1231.82 1306.7,1231.48 1310.5,1230.5 Z"/></g>
<g><path style="opacity:1" fill="#a68c59" d="M 1376.5,1231.5 C 1377.8,1233.03 1379.47,1234.03 1381.5,1234.5C 1369.5,1234.5 1357.5,1234.5 1345.5,1234.5C 1345.5,1233.5 1345.5,1232.5 1345.5,1231.5C 1355.83,1231.5 1366.17,1231.5 1376.5,1231.5 Z"/></g>
<g><path style="opacity:1" fill="#bfa673" d="M 1645.5,1231.5 C 1652.17,1231.5 1658.83,1231.5 1665.5,1231.5C 1664.55,1232.98 1663.22,1233.98 1661.5,1234.5C 1654.17,1234.5 1646.83,1234.5 1639.5,1234.5C 1641.84,1234.06 1643.84,1233.06 1645.5,1231.5 Z"/></g>
<g><path style="opacity:1" fill="#e7cf9b" d="M 303.5,1231.5 C 323.167,1231.5 342.833,1231.5 362.5,1231.5C 359.452,1233.12 356.119,1234.12 352.5,1234.5C 343.833,1234.5 335.167,1234.5 326.5,1234.5C 321.5,1234.5 316.5,1234.5 311.5,1234.5C 308.523,1234.1 305.857,1233.1 303.5,1231.5 Z"/></g>
<g><path style="opacity:1" fill="#e3cb96" d="M 459.5,1231.5 C 486.833,1231.5 514.167,1231.5 541.5,1231.5C 540.198,1233.03 538.531,1234.03 536.5,1234.5C 513.5,1234.5 490.5,1234.5 467.5,1234.5C 464.523,1234.1 461.857,1233.1 459.5,1231.5 Z"/></g>
<g><path style="opacity:1" fill="#e1ca95" d="M 1376.5,1231.5 C 1408.17,1231.5 1439.83,1231.5 1471.5,1231.5C 1468.45,1233.12 1465.12,1234.12 1461.5,1234.5C 1447.83,1234.5 1434.17,1234.5 1420.5,1234.5C 1407.5,1234.5 1394.5,1234.5 1381.5,1234.5C 1379.47,1234.03 1377.8,1233.03 1376.5,1231.5 Z"/></g>
<g><path style="opacity:1" fill="#b19865" d="M 1471.5,1231.5 C 1501.5,1231.5 1531.5,1231.5 1561.5,1231.5C 1563.86,1233.1 1566.52,1234.1 1569.5,1234.5C 1535.5,1234.5 1501.5,1234.5 1467.5,1234.5C 1465.5,1234.5 1463.5,1234.5 1461.5,1234.5C 1465.12,1234.12 1468.45,1233.12 1471.5,1231.5 Z"/></g>
<g><path style="opacity:1" fill="#e3cb97" d="M 1561.5,1231.5 C 1589.5,1231.5 1617.5,1231.5 1645.5,1231.5C 1643.84,1233.06 1641.84,1234.06 1639.5,1234.5C 1616.17,1234.5 1592.83,1234.5 1569.5,1234.5C 1566.52,1234.1 1563.86,1233.1 1561.5,1231.5 Z"/></g>
<g><path style="opacity:1" fill="#a18755" d="M 1665.5,1231.5 C 1685.5,1231.5 1705.5,1231.5 1725.5,1231.5C 1726.1,1232.9 1727.1,1233.9 1728.5,1234.5C 1709.17,1234.5 1689.83,1234.5 1670.5,1234.5C 1667.5,1234.5 1664.5,1234.5 1661.5,1234.5C 1663.22,1233.98 1664.55,1232.98 1665.5,1231.5 Z"/></g>
<g><path style="opacity:1" fill="#e3cb97" d="M 1725.5,1231.5 C 1737.83,1231.5 1750.17,1231.5 1762.5,1231.5C 1762.5,1232.5 1762.5,1233.5 1762.5,1234.5C 1751.17,1234.5 1739.83,1234.5 1728.5,1234.5C 1727.1,1233.9 1726.1,1232.9 1725.5,1231.5 Z"/></g>
<g><path style="opacity:1" fill="#451220" d="M 326.5,1234.5 C 335.167,1234.5 343.833,1234.5 352.5,1234.5C 364.5,1234.5 376.5,1234.5 388.5,1234.5C 259.167,1364.5 129.5,1494.17 -0.5,1623.5C -0.5,1602.83 -0.5,1582.17 -0.5,1561.5C 108.833,1452.83 217.833,1343.83 326.5,1234.5 Z"/></g>
<g><path style="opacity:1" fill="#41111d" d="M 388.5,1234.5 C 414.833,1234.5 441.167,1234.5 467.5,1234.5C 490.5,1234.5 513.5,1234.5 536.5,1234.5C 549.167,1234.5 561.833,1234.5 574.5,1234.5C 589.5,1234.5 604.5,1234.5 619.5,1234.5C 625.833,1234.5 632.167,1234.5 638.5,1234.5C 426.194,1448.47 213.194,1661.81 -0.5,1874.5C -0.5,1790.83 -0.5,1707.17 -0.5,1623.5C 129.5,1494.17 259.167,1364.5 388.5,1234.5 Z"/></g>
<g><path style="opacity:1" fill="#2a0b12" d="M 1420.5,1234.5 C 1434.17,1234.5 1447.83,1234.5 1461.5,1234.5C 1463.5,1234.5 1465.5,1234.5 1467.5,1234.5C 1212.83,1489.5 958.167,1744.5 703.5,1999.5C 687.833,1999.5 672.167,1999.5 656.5,1999.5C 911.167,1744.5 1165.83,1489.5 1420.5,1234.5 Z"/></g>
<g><path style="opacity:1" fill="#270a11" d="M 1467.5,1234.5 C 1501.5,1234.5 1535.5,1234.5 1569.5,1234.5C 1592.83,1234.5 1616.17,1234.5 1639.5,1234.5C 1646.83,1234.5 1654.17,1234.5 1661.5,1234.5C 1664.5,1234.5 1667.5,1234.5 1670.5,1234.5C 1420.53,1484.97 1170.37,1735.3 920,1985.5C 915.997,1990.34 911.83,1995 907.5,1999.5C 839.5,1999.5 771.5,1999.5 703.5,1999.5C 958.167,1744.5 1212.83,1489.5 1467.5,1234.5 Z"/></g>
<g><path style="opacity:1" fill="#19060a" d="M 1999.5,1328.5 C 1999.5,1365.17 1999.5,1401.83 1999.5,1438.5C 1812.17,1625.17 1625.17,1812.17 1438.5,1999.5C 1402.17,1999.5 1365.83,1999.5 1329.5,1999.5C 1552.14,1775.19 1775.47,1551.53 1999.5,1328.5 Z"/></g>
<g><path style="opacity:1" fill="#150408" d="M 1999.5,1438.5 C 1999.5,1521.83 1999.5,1605.17 1999.5,1688.5C 1895.5,1791.83 1791.83,1895.5 1688.5,1999.5C 1605.17,1999.5 1521.83,1999.5 1438.5,1999.5C 1625.17,1812.17 1812.17,1625.17 1999.5,1438.5 Z"/></g>
<g><path style="opacity:1" fill="#0f0305" d="M 1999.5,1688.5 C 1999.5,1792.17 1999.5,1895.83 1999.5,1999.5C 1895.83,1999.5 1792.17,1999.5 1688.5,1999.5C 1791.83,1895.5 1895.5,1791.83 1999.5,1688.5 Z"/></g>
</svg>
