<?xml version="1.0" encoding="UTF-8"?>
<!DOCTYPE svg PUBLIC "-//W3C//DTD SVG 1.1//EN" "http://www.w3.org/Graphics/SVG/1.1/DTD/svg11.dtd">
<svg xmlns="http://www.w3.org/2000/svg" version="1.1" width="300px" height="346px" style="shape-rendering:geometricPrecision; text-rendering:geometricPrecision; image-rendering:optimizeQuality; fill-rule:evenodd; clip-rule:evenodd" xmlns:xlink="http://www.w3.org/1999/xlink">
<g><path style="opacity:0.843" fill="#a58b58" d="M 120.5,-0.5 C 122.833,-0.5 125.167,-0.5 127.5,-0.5C 133.399,0.204943 139.399,0.87161 145.5,1.5C 146.476,2.81486 147.476,4.14819 148.5,5.5C 148.043,6.29755 147.376,6.63088 146.5,6.5C 138.836,6.11138 131.17,5.77805 123.5,5.5C 122.925,3.5887 121.925,1.92203 120.5,0.5C 120.5,0.166667 120.5,-0.166667 120.5,-0.5 Z"/></g>
<g><path style="opacity:0.838" fill="#c5ac79" d="M 120.5,0.5 C 121.925,1.92203 122.925,3.5887 123.5,5.5C 114.022,5.58082 104.688,6.58082 95.5,8.5C 94.9305,5.66545 93.2639,3.99879 90.5,3.5C 100.218,1.09569 110.218,0.0956935 120.5,0.5 Z"/></g>
<g><path style="opacity:0.885" fill="#8d7442" d="M 145.5,1.5 C 154.831,2.03445 163.831,3.70112 172.5,6.5C 171.761,6.36899 171.094,6.53566 170.5,7C 173.294,8.5355 175.294,10.7022 176.5,13.5C 166.533,10.5062 156.533,8.17289 146.5,6.5C 147.376,6.63088 148.043,6.29755 148.5,5.5C 147.476,4.14819 146.476,2.81486 145.5,1.5 Z"/></g>
<g><path style="opacity:0.929" fill="#e6ce99" d="M 90.5,3.5 C 93.2639,3.99879 94.9305,5.66545 95.5,8.5C 78.7822,11.2008 63.4489,17.2008 49.5,26.5C 47.1402,25.135 45.4735,23.135 44.5,20.5C 58.7834,12.0713 74.1168,6.40461 90.5,3.5 Z"/></g>
<g><path style="opacity:0.945" fill="#b79e6a" d="M 172.5,6.5 C 185.689,9.50749 198.355,14.0075 210.5,20C 215.31,23.3547 215.644,27.0214 211.5,31C 209.833,31.6667 208.167,31.6667 206.5,31C 197.885,22.8568 187.885,17.0235 176.5,13.5C 175.294,10.7022 173.294,8.5355 170.5,7C 171.094,6.53566 171.761,6.36899 172.5,6.5 Z"/></g>
<g><path style="opacity:0.934" fill="#000000" d="M 198.5,88.5 C 192.5,94.1667 186.5,99.8333 180.5,105.5C 178.167,107.5 175.833,109.5 173.5,111.5C 173.964,91.4325 173.464,71.4325 172,51.5C 166.439,40.9635 157.606,35.9635 145.5,36.5C 145.5,35.1667 145.5,33.8333 145.5,32.5C 172.5,32.5 199.5,32.5 226.5,32.5C 226.5,33.8333 226.5,35.1667 226.5,36.5C 212.827,35.9033 203.661,41.9033 199,54.5C 198.5,65.8284 198.333,77.1618 198.5,88.5 Z"/></g>
<g><path style="opacity:0.972" fill="#c9b07d" d="M 44.5,20.5 C 45.4735,23.135 47.1402,25.135 49.5,26.5C 42.8604,32.4729 36.5271,38.8063 30.5,45.5C 27.0627,43.9774 25.0627,41.3107 24.5,37.5C 30.5541,31.1126 37.2207,25.4459 44.5,20.5 Z"/></g>
<g><path style="opacity:0.956" fill="#b29865" d="M 24.5,37.5 C 25.0627,41.3107 27.0627,43.9774 30.5,45.5C 25.4939,51.5035 21.4939,58.1702 18.5,65.5C 15.6771,62.5249 13.3437,59.1916 11.5,55.5C 15.0908,48.9175 19.4242,42.9175 24.5,37.5 Z"/></g>
<g><path style="opacity:0.966" fill="#f2dba5" d="M 299.5,77.5 C 299.5,83.8333 299.5,90.1667 299.5,96.5C 297.097,103.988 294.097,111.321 290.5,118.5C 289.542,118.047 288.708,117.381 288,116.5C 287.667,116.833 287.333,117.167 287,117.5C 286.338,116.016 285.504,114.683 284.5,113.5C 287.507,106.305 289.174,98.8045 289.5,91C 289.963,78.5739 284.296,70.5739 272.5,67C 266.509,66.5005 260.509,66.3338 254.5,66.5C 252.251,65.9202 250.585,64.5869 249.5,62.5C 260.814,58.4114 272.48,57.5781 284.5,60C 292.438,63.4115 297.438,69.2449 299.5,77.5 Z"/></g>
<g><path style="opacity:0.951" fill="#a18754" d="M 11.5,55.5 C 13.3437,59.1916 15.6771,62.5249 18.5,65.5C 15.4842,73.5768 13.4842,81.9101 12.5,90.5C 9.20292,87.2635 6.36958,83.5969 4,79.5C 3.32924,78.7476 2.4959,78.4142 1.5,78.5C 3.68348,70.2657 7.01681,62.5991 11.5,55.5 Z"/></g>
<g><path style="opacity:0.905" fill="#b9a06c" d="M 249.5,62.5 C 250.585,64.5869 252.251,65.9202 254.5,66.5C 247.391,68.2031 240.391,70.5364 233.5,73.5C 231.167,73.1667 229.833,71.8333 229.5,69.5C 235.894,66.3686 242.561,64.0353 249.5,62.5 Z"/></g>
<g><path style="opacity:0.908" fill="#917745" d="M 229.5,69.5 C 229.833,71.8333 231.167,73.1667 233.5,73.5C 225.2,77.9854 217.2,82.9854 209.5,88.5C 209.727,86.0672 208.727,84.4006 206.5,83.5C 213.631,78.0944 221.298,73.4278 229.5,69.5 Z"/></g>
<g><path style="opacity:1" fill="#ae9563" d="M 206.5,83.5 C 208.727,84.4006 209.727,86.0672 209.5,88.5C 205.61,91.2714 201.943,94.2714 198.5,97.5C 193.558,101.103 188.892,105.103 184.5,109.5C 184.043,107.227 182.71,105.894 180.5,105.5C 186.5,99.8333 192.5,94.1667 198.5,88.5C 201.167,86.8333 203.833,85.1667 206.5,83.5 Z"/></g>
<g><path style="opacity:0.944" fill="#000000" d="M 198.5,97.5 C 198.5,134.833 198.5,172.167 198.5,209.5C 197.559,211.772 196.226,213.772 194.5,215.5C 187.086,223.311 181.42,232.311 177.5,242.5C 176.167,245.167 174.833,247.833 173.5,250.5C 173.5,208.167 173.5,165.833 173.5,123.5C 176.38,118.278 180.047,113.612 184.5,109.5C 188.892,105.103 193.558,101.103 198.5,97.5 Z"/></g>
<g><path style="opacity:0.975" fill="#bca46f" d="M 1.5,78.5 C 2.4959,78.4142 3.32924,78.7476 4,79.5C 6.36958,83.5969 9.20292,87.2635 12.5,90.5C 12.2269,125.629 27.2269,151.963 57.5,169.5C 61.1892,173.865 64.5225,178.531 67.5,183.5C 29.8384,170.851 7.17169,145.184 -0.5,106.5C -0.5,100.833 -0.5,95.1667 -0.5,89.5C 0.52495,86.0264 1.19162,82.3597 1.5,78.5 Z"/></g>
<g><path style="opacity:0.911" fill="#d7c08d" d="M 180.5,105.5 C 182.71,105.894 184.043,107.227 184.5,109.5C 180.047,113.612 176.38,118.278 173.5,123.5C 171.5,125.833 169.5,128.167 167.5,130.5C 165.923,127.95 163.923,125.95 161.5,124.5C 165.528,120.141 169.528,115.807 173.5,111.5C 175.833,109.5 178.167,107.5 180.5,105.5 Z"/></g>
<g><path style="opacity:0.954" fill="#b29865" d="M 284.5,113.5 C 285.504,114.683 286.338,116.016 287,117.5C 287.333,117.167 287.667,116.833 288,116.5C 288.708,117.381 289.542,118.047 290.5,118.5C 286.368,126.438 281.035,133.438 274.5,139.5C 273.197,137.858 271.864,136.191 270.5,134.5C 275.924,127.979 280.591,120.979 284.5,113.5 Z"/></g>
<g><path style="opacity:0.961" fill="#f1daa4" d="M 161.5,124.5 C 163.923,125.95 165.923,127.95 167.5,130.5C 163.155,136.538 158.821,142.538 154.5,148.5C 151.8,146.766 149.8,144.432 148.5,141.5C 152.45,135.549 156.783,129.882 161.5,124.5 Z"/></g>
<g><path style="opacity:0.843" fill="#907544" d="M 270.5,134.5 C 271.864,136.191 273.197,137.858 274.5,139.5C 269.887,144.779 264.887,149.779 259.5,154.5C 258.529,152.517 257.529,150.517 256.5,148.5C 261.5,144.167 266.167,139.5 270.5,134.5 Z"/></g>
<g><path style="opacity:0.93" fill="#d8c18b" d="M 148.5,141.5 C 149.8,144.432 151.8,146.766 154.5,148.5C 150.258,155.982 146.258,163.649 142.5,171.5C 141.504,171.586 140.671,171.252 140,170.5C 137.843,168.183 136.343,165.516 135.5,162.5C 139.085,154.989 143.418,147.989 148.5,141.5 Z"/></g>
<g><path style="opacity:0.899" fill="#b19765" d="M 256.5,148.5 C 257.529,150.517 258.529,152.517 259.5,154.5C 251.844,160.33 243.844,165.663 235.5,170.5C 234.925,168.589 233.925,166.922 232.5,165.5C 241.032,160.643 249.032,154.976 256.5,148.5 Z"/></g>
<g><path style="opacity:0.891" fill="#d6be8a" d="M 232.5,165.5 C 233.925,166.922 234.925,168.589 235.5,170.5C 224.146,176.844 212.146,181.511 199.5,184.5C 199.261,182.533 199.594,180.699 200.5,179C 211.563,175.37 222.229,170.87 232.5,165.5 Z"/></g>
<g><path style="opacity:0.865" fill="#c7ae7a" d="M 135.5,162.5 C 136.343,165.516 137.843,168.183 140,170.5C 140.671,171.252 141.504,171.586 142.5,171.5C 140.174,176.804 137.84,182.137 135.5,187.5C 147.879,188.164 160.213,187.497 172.5,185.5C 172.5,187.5 172.5,189.5 172.5,191.5C 160.887,192.997 149.221,193.664 137.5,193.5C 135.712,193.785 134.045,193.452 132.5,192.5C 130.141,189.149 127.808,185.815 125.5,182.5C 127.793,175.248 131.126,168.581 135.5,162.5 Z"/></g>
<g><path style="opacity:0.932" fill="#d8c08c" d="M 250.5,240.5 C 248.863,238.684 247.363,236.684 246,234.5C 245.329,233.748 244.496,233.414 243.5,233.5C 246.642,224.596 246.142,215.93 242,207.5C 236.982,201.698 230.816,200.031 223.5,202.5C 223.025,200.216 222.025,198.216 220.5,196.5C 242.3,189.73 253.634,197.73 254.5,220.5C 254.237,227.421 252.903,234.087 250.5,240.5 Z"/></g>
<g><path style="opacity:0.949" fill="#aa915e" d="M 57.5,169.5 C 77.6617,180.791 99.3283,186.624 122.5,187C 123.399,185.348 124.399,183.848 125.5,182.5C 127.808,185.815 130.141,189.149 132.5,192.5C 134.045,193.452 135.712,193.785 137.5,193.5C 136.081,194.451 134.415,194.784 132.5,194.5C 124.031,219.778 124.698,244.778 134.5,269.5C 132.983,269.489 131.816,268.823 131,267.5C 126.64,260.768 121.807,254.435 116.5,248.5C 115.702,248.957 115.369,249.624 115.5,250.5C 112.032,231.534 113.699,212.868 120.5,194.5C 102.371,192.869 84.7038,189.202 67.5,183.5C 64.5225,178.531 61.1892,173.865 57.5,169.5 Z"/></g>
<g><path style="opacity:0.895" fill="#ebd39e" d="M 220.5,196.5 C 222.025,198.216 223.025,200.216 223.5,202.5C 213.287,205.437 204.953,211.104 198.5,219.5C 197.833,219.5 197.167,219.5 196.5,219.5C 195.833,218.167 195.167,216.833 194.5,215.5C 196.226,213.772 197.559,211.772 198.5,209.5C 204.904,203.63 212.238,199.296 220.5,196.5 Z"/></g>
<g><path style="opacity:0.939" fill="#010100" d="M 196.5,219.5 C 197.167,219.5 197.833,219.5 198.5,219.5C 198.045,235.904 198.545,252.237 200,268.5C 205.196,278.855 213.696,283.688 225.5,283C 226.38,284.356 226.714,285.856 226.5,287.5C 209.167,287.5 191.833,287.5 174.5,287.5C 174.334,281.158 174.5,274.825 175,268.5C 176.646,261.097 178.48,253.764 180.5,246.5C 185.061,237.045 190.394,228.045 196.5,219.5 Z"/></g>
<g><path style="opacity:1" fill="#c2ab79" d="M 194.5,215.5 C 195.167,216.833 195.833,218.167 196.5,219.5C 190.394,228.045 185.061,237.045 180.5,246.5C 178.738,245.738 177.738,244.404 177.5,242.5C 181.42,232.311 187.086,223.311 194.5,215.5 Z"/></g>
<g><path style="opacity:0.968" fill="#edd6a1" d="M 243.5,233.5 C 244.496,233.414 245.329,233.748 246,234.5C 247.363,236.684 248.863,238.684 250.5,240.5C 246.969,251.233 241.636,260.9 234.5,269.5C 231.438,268.732 229.772,266.732 229.5,263.5C 236.308,254.549 240.974,244.549 243.5,233.5 Z"/></g>
<g><path style="opacity:0.972" fill="#b79e6a" d="M 134.5,269.5 C 136.731,275.295 140.397,279.961 145.5,283.5C 145.967,286.297 147.633,287.631 150.5,287.5C 153.902,290.535 157.902,292.535 162.5,293.5C 164.252,295.246 165.585,297.246 166.5,299.5C 140.663,297.838 124.163,284.505 117,259.5C 116.047,256.568 115.547,253.568 115.5,250.5C 115.369,249.624 115.702,248.957 116.5,248.5C 121.807,254.435 126.64,260.768 131,267.5C 131.816,268.823 132.983,269.489 134.5,269.5 Z"/></g>
<g><path style="opacity:0.936" fill="#d3bb88" d="M 229.5,263.5 C 229.772,266.732 231.438,268.732 234.5,269.5C 230.637,275.041 225.637,279.041 219.5,281.5C 217.519,281.563 215.852,280.896 214.5,279.5C 220.255,274.749 225.255,269.416 229.5,263.5 Z"/></g>
<g><path style="opacity:0.819" fill="#070503" d="M 168.5,273.5 C 169.833,278.167 169.833,282.833 168.5,287.5C 162.5,287.5 156.5,287.5 150.5,287.5C 147.633,287.631 145.967,286.297 145.5,283.5C 153.275,283.797 160.275,281.464 166.5,276.5C 167.425,275.643 168.092,274.643 168.5,273.5 Z"/></g>
<g><path style="opacity:0.904" fill="#a68c5a" d="M 177.5,242.5 C 177.738,244.404 178.738,245.738 180.5,246.5C 178.48,253.764 176.646,261.097 175,268.5C 174.5,274.825 174.334,281.158 174.5,287.5C 175.369,289.717 175.702,292.05 175.5,294.5C 183.858,294.244 191.858,292.411 199.5,289C 203.167,288.333 206.833,288.333 210.5,289C 200.045,295.262 188.712,298.929 176.5,300C 181.3,317.44 191.133,331.273 206,341.5C 206.49,342.793 206.657,344.127 206.5,345.5C 205.167,345.5 203.833,345.5 202.5,345.5C 186.273,334.599 175.94,319.599 171.5,300.5C 169.585,300.784 167.919,300.451 166.5,299.5C 165.585,297.246 164.252,295.246 162.5,293.5C 164.764,294.219 167.097,294.552 169.5,294.5C 169.702,292.05 169.369,289.717 168.5,287.5C 169.833,282.833 169.833,278.167 168.5,273.5C 169.528,265.694 171.195,258.027 173.5,250.5C 174.833,247.833 176.167,245.167 177.5,242.5 Z"/></g>
</svg>
